<svg width="14" height="14" viewBox="0 0 14 14" fill="none" xmlns="http://www.w3.org/2000/svg">
<path d="M11.2251 11.5569H2.77507C2.59507 11.5569 2.44507 11.4069 2.44507 11.2269V2.76689C2.44507 2.58689 2.59507 2.43689 2.77507 2.43689H11.2251C11.4051 2.43689 11.5551 2.58689 11.5551 2.76689V11.2369C11.5551 11.4169 11.4051 11.5669 11.2251 11.5669V11.5569ZM3.09507 10.9069H10.8951V3.08689H3.09507V10.9069Z" fill="#231F20"/>
<path d="M4.52507 11.5569C4.44507 11.5569 4.35507 11.5269 4.29507 11.4569C4.16507 11.3269 4.16507 11.1269 4.29507 10.9969L10.9951 4.30689C11.1151 4.17689 11.3251 4.17689 11.4551 4.30689C11.5851 4.43689 11.5851 4.63689 11.4551 4.76689L4.76507 11.4669C4.70507 11.5269 4.61507 11.5669 4.53507 11.5669L4.52507 11.5569Z" fill="#231F20"/>
<path d="M8.14507 11.3669C8.06507 11.3669 7.97507 11.3369 7.91507 11.2669C7.78507 11.1369 7.78507 10.9369 7.91507 10.8069L10.9051 7.83689C11.0351 7.70689 11.2351 7.71689 11.3651 7.83689C11.4951 7.96689 11.4951 8.16689 11.3651 8.29689L8.37507 11.2669C8.31507 11.3269 8.22507 11.3569 8.14507 11.3569V11.3669Z" fill="#231F20"/>
<path d="M2.78507 6.14689C2.70507 6.14689 2.61507 6.11689 2.55507 6.04689C2.43507 5.92689 2.43507 5.71689 2.56507 5.59689L5.62507 2.53689C5.75507 2.40689 5.95507 2.40689 6.08507 2.53689C6.21507 2.66689 6.21507 2.86689 6.08507 2.99689L3.01507 6.05689C2.95507 6.11689 2.86507 6.15689 2.78507 6.15689V6.14689Z" fill="#231F20"/>
<path d="M2.78507 9.62689C2.70507 9.62689 2.61507 9.59689 2.55507 9.52689C2.42507 9.39689 2.42507 9.19689 2.55507 9.06689L9.12507 2.52689C9.25507 2.40689 9.45507 2.39689 9.58507 2.52689C9.71507 2.65689 9.71507 2.85689 9.58507 2.98689L3.01507 9.53689C2.95507 9.59689 2.86507 9.62689 2.78507 9.62689Z" fill="#231F20"/>
</svg>
