<svg width="14" height="14" viewBox="0 0 14 14" fill="none" xmlns="http://www.w3.org/2000/svg">
<g clip-path="url(#clip0_2089_173)">
<path d="M8.79316 0.541992L7.52651 4.74529L8.14887 4.93283L9.41552 0.729537L8.79316 0.541992Z" fill="#231F20"/>
<path d="M13.2936 4.78277L9.41228 6.07242L9.61724 6.68926L13.4986 5.39961L13.2936 4.78277Z" fill="#231F20"/>
<path d="M9.23754 8.2242L8.8881 8.77228L12.4464 11.0409L12.7959 10.4928L9.23754 8.2242Z" fill="#231F20"/>
<path d="M7.69219 9.10686L7.04263 9.13079L7.20205 13.4579L7.85161 13.4339L7.69219 9.10686Z" fill="#231F20"/>
<path d="M5.17348 8.2257L2.25045 11.1857L2.71295 11.6424L5.63598 8.68242L5.17348 8.2257Z" fill="#231F20"/>
<path d="M4.77122 6.49034H0.501221V7.14034H4.77122V6.49034Z" fill="#231F20"/>
<path d="M3.10784 0.92698L2.58547 1.3138L5.52528 5.28382L6.04765 4.89701L3.10784 0.92698Z" fill="#231F20"/>
</g>
<defs>
<clipPath id="clip0_2089_173">
<rect width="14" height="14" fill="white"/>
</clipPath>
</defs>
</svg>
