<svg width="14" height="14" viewBox="0 0 14 14" fill="none" xmlns="http://www.w3.org/2000/svg">
<path fill-rule="evenodd" clip-rule="evenodd" d="M4.80997 12.3949L4.78997 12.2349L4.72997 12.0749L4.60997 11.9449L4.44997 11.8849L4.24997 11.8249L4.07997 11.8849L3.95997 11.9449L3.79997 12.0749L3.73997 12.2349L3.71997 12.3949L3.73997 12.5949L3.79997 12.7749L3.95997 12.8649L4.07997 12.9449H4.44997L4.60997 12.8649L4.72997 12.7749L4.78997 12.5949L4.80997 12.3949Z" fill="#231F20"/>
<path fill-rule="evenodd" clip-rule="evenodd" d="M8.47997 8.87493L8.45997 8.71493L8.35997 8.50493L8.20997 8.38493L8.08997 8.32493L7.88997 8.28493L7.74997 8.32493L7.58997 8.38493L7.44997 8.50493L7.40997 8.71493L7.35997 8.87493L7.40997 9.03493L7.44997 9.21493L7.58997 9.31493L7.74997 9.41493H8.08997L8.20997 9.31493L8.35997 9.21493L8.45997 9.03493L8.47997 8.87493Z" fill="#231F20"/>
<path fill-rule="evenodd" clip-rule="evenodd" d="M6.67997 10.6549L6.65997 10.4749L6.61997 10.3049L6.28997 10.0849H5.92997L5.78997 10.2049L5.65997 10.3049L5.57997 10.4749V10.8149L5.65997 11.0149L5.78997 11.1349L5.92997 11.2049L6.10997 11.2449L6.28997 11.2049L6.46997 11.1349L6.61997 11.0149L6.65997 10.8149L6.67997 10.6549Z" fill="#231F20"/>
<path fill-rule="evenodd" clip-rule="evenodd" d="M10.28 7.00493L10.22 6.84493L10.16 6.66493L10.04 6.60493L9.89997 6.48493H9.50997L9.36997 6.60493L9.22997 6.66493L9.18997 6.84493L9.16997 7.00493L9.18997 7.17493L9.22997 7.35493L9.50997 7.55493L9.72997 7.57493L9.89997 7.55493L10.04 7.45493L10.16 7.35493L10.22 7.17493L10.28 7.00493Z" fill="#231F20"/>
<path fill-rule="evenodd" clip-rule="evenodd" d="M4.86997 1.44493L4.76997 1.29493L4.66997 1.17493L4.48997 1.09493L4.34997 1.05493L4.16997 1.09493L3.99997 1.17493L3.85997 1.29493L3.77997 1.44493L3.73997 1.60493L3.77997 1.80493L3.85997 1.92493L3.99997 2.06493L4.16997 2.14493L4.34997 2.19493L4.48997 2.14493L4.66997 2.06493L4.76997 1.92493L4.86997 1.80493V1.44493Z" fill="#231F20"/>
<path fill-rule="evenodd" clip-rule="evenodd" d="M6.67997 3.22493L6.61997 3.06493L6.48997 2.91493L6.30997 2.85493L6.16997 2.79493L5.96997 2.85493L5.82997 2.91493L5.65997 3.06493L5.59997 3.22493L5.57997 3.38493L5.59997 3.56493L5.65997 3.72493L5.82997 3.85493L5.96997 3.93493H6.30997L6.48997 3.85493L6.61997 3.72493L6.67997 3.56493V3.22493Z" fill="#231F20"/>
<path fill-rule="evenodd" clip-rule="evenodd" d="M8.45997 5.30493L8.41997 5.10493L8.33997 4.94493L8.18997 4.86493L8.06997 4.76493H7.70997L7.56997 4.86493L7.42997 4.94493L7.35997 5.10493L7.31997 5.30493L7.35997 5.47493L7.42997 5.63493L7.56997 5.77493L7.70997 5.83493L7.88997 5.87493L8.06997 5.83493L8.18997 5.77493L8.33997 5.63493L8.41997 5.47493L8.45997 5.30493Z" fill="#231F20"/>
</svg>
