<svg width="14" height="14" viewBox="0 0 14 14" fill="none" xmlns="http://www.w3.org/2000/svg">
<path d="M4.50011 11.165L3.86011 11.055L3.96011 10.465L4.31011 9.51496L4.82011 8.78496L5.43011 8.42496L5.78011 8.46496L6.28011 8.84496L6.53011 9.39496L6.87011 10.285L6.94011 10.315L7.07011 10.255L7.27011 9.99496L7.58011 9.12496L7.80011 8.70496L7.99011 8.54496L8.45011 8.43496L8.78011 8.49496L8.94011 8.57496L9.50011 9.18496L9.76011 9.82496L10.1401 10.575L9.56011 10.865L9.17011 10.095L8.92011 9.47496L8.57011 9.11496L8.41011 9.09496L8.32011 9.12496L8.18011 9.38496L7.82011 10.355L7.42011 10.815L7.07011 10.975L6.78011 10.965L6.46011 10.805L6.31011 10.635L5.73011 9.21496L5.55011 9.09496L5.22011 9.29496L4.88011 9.80496L4.59011 10.635L4.50011 11.165Z" fill="#231F20"/>
<path d="M6.95011 7.95496L6.00011 7.83496L5.42011 7.49496L4.76011 6.88496L4.43011 6.16496L4.33011 5.36496L4.46011 4.55496L4.82011 3.87496L5.42011 3.30496L6.12011 2.93496L6.87011 2.83496H6.96011L7.74011 2.97496L8.33011 3.30496L9.01011 3.95496L9.37011 4.65496L9.47011 5.45496L9.34011 6.26496L8.94011 6.98496L8.39011 7.45496L7.63011 7.87496L6.96011 7.95496H6.95011ZM6.26011 7.24496L6.94011 7.31496L7.47011 7.24496L8.00011 6.93496L8.45011 6.54496L8.72011 6.03496L8.81011 5.42496L8.72011 4.81496L8.45011 4.32496L7.94011 3.84496L7.47011 3.59496L6.90011 3.51496L6.26011 3.59496L5.77011 3.87496L5.31011 4.32496L5.06011 4.82496L4.97011 5.43496L5.06011 6.04496L5.31011 6.55496L5.79011 6.98496L6.26011 7.25496V7.24496Z" fill="#231F20"/>
</svg>
