<svg width="14" height="14" viewBox="0 0 14 14" fill="none" xmlns="http://www.w3.org/2000/svg">
<path d="M6.88422 11.24C5.69422 11.24 4.65422 10.65 4.03422 9.61001C3.31422 8.41001 3.28422 6.87001 3.94422 5.69001C4.03422 5.53001 4.23422 5.48001 4.38422 5.57001C4.54422 5.66001 4.59422 5.86001 4.50422 6.01001C3.95422 6.97001 3.99422 8.28001 4.58422 9.27001C4.88422 9.78001 5.58422 10.63 6.96422 10.58C8.17422 10.58 9.20422 9.92001 9.72422 8.83001C10.2042 7.83001 10.1242 6.70001 9.51422 5.95001C9.40422 5.81001 9.42422 5.61001 9.56422 5.49001C9.70422 5.38001 9.90422 5.40001 10.0242 5.54001C10.7842 6.48001 10.8942 7.89001 10.3142 9.11001C9.68422 10.43 8.43422 11.22 6.97422 11.23C6.94422 11.23 6.91422 11.23 6.88422 11.23V11.24Z" fill="#231F20"/>
<path d="M11.3642 5.37001C11.2342 5.37001 11.1042 5.29001 11.0542 5.15001C10.9842 4.96001 10.9342 4.77001 10.8742 4.58001C10.6342 3.76001 10.4842 3.41001 10.0842 3.41001C9.87422 3.41001 9.76422 3.71001 9.61422 4.17001C9.44422 4.70001 9.22422 5.37001 8.54422 5.37001C7.86422 5.37001 7.60422 4.73001 7.43422 4.27001C7.26422 3.79001 7.16422 3.62001 6.97422 3.61001C6.75422 3.61001 6.65422 3.83001 6.48422 4.29001C6.31422 4.74001 6.09422 5.35001 5.44422 5.35001C4.72422 5.35001 4.52422 4.69001 4.37422 4.21001C4.22422 3.72001 4.14422 3.55001 3.96422 3.55001C3.57422 3.55001 3.44422 3.80001 3.16422 4.51001C3.09422 4.69001 3.01422 4.89001 2.92422 5.08001C2.84422 5.24001 2.65422 5.31001 2.49422 5.24001C2.33422 5.16001 2.26422 4.97001 2.33422 4.81001C2.41422 4.63001 2.49422 4.44001 2.55422 4.27001C2.82422 3.60001 3.09422 2.90001 3.97422 2.90001C4.66422 2.91001 4.86422 3.56001 5.00422 4.02001C5.15422 4.53001 5.24422 4.70001 5.44422 4.70001C5.62422 4.70001 5.71422 4.50001 5.87422 4.07001C6.04422 3.60001 6.28422 2.96001 6.98422 2.96001C7.66422 2.97001 7.88422 3.59001 8.04422 4.05001C8.22422 4.56001 8.32422 4.72001 8.54422 4.72001C8.73422 4.72001 8.84422 4.42001 8.99422 3.97001C9.16422 3.46001 9.39422 2.76001 10.0842 2.76001C11.0042 2.76001 11.2742 3.63001 11.5042 4.40001C11.5542 4.58001 11.6142 4.76001 11.6742 4.94001C11.7342 5.11001 11.6442 5.29001 11.4742 5.36001C11.4342 5.37001 11.4042 5.38001 11.3642 5.38001V5.37001Z" fill="#231F20"/>
</svg>
