<svg width="14" height="14" viewBox="0 0 14 14" fill="none" xmlns="http://www.w3.org/2000/svg">
<g clip-path="url(#clip0_2089_295)">
<path fill-rule="evenodd" clip-rule="evenodd" d="M12.4533 1.05891C12.5833 0.928921 12.7833 0.928939 12.9133 1.05891C13.0433 1.18891 13.0433 1.38887 12.9133 1.51887L12.0266 2.3968C12.2259 2.70335 12.343 3.0678 12.343 3.4593C12.3428 4.53913 11.4631 5.42903 10.3733 5.42903C9.96393 5.42901 9.58246 5.30164 9.26583 5.08528L8.57345 5.77766C8.79956 6.09762 8.93372 6.48739 8.9338 6.90852C8.9338 7.98852 8.07286 8.86848 6.97286 8.86848C6.56327 8.86839 6.18599 8.74887 5.87325 8.54231L5.09005 9.33626C5.33019 9.66206 5.47286 10.064 5.47286 10.4993C5.47263 11.5791 4.59276 12.4593 3.5129 12.4593C3.09708 12.4592 2.71033 12.327 2.39083 12.1048L1.54318 12.9388C1.48326 12.9987 1.39359 13.0286 1.31368 13.0286V13.0394C1.23368 13.0394 1.14322 13.0088 1.08322 12.9388C0.953353 12.8088 0.963273 12.6088 1.08322 12.4788L1.92501 11.6507C1.6866 11.3269 1.54327 10.9297 1.54318 10.4993C1.54318 9.41949 2.42311 8.53962 3.5129 8.53938C3.92666 8.53938 4.30845 8.66673 4.62325 8.88313L5.39962 8.097C5.15121 7.76941 5.00314 7.35955 5.00314 6.90852C5.00335 5.80887 5.88322 4.94881 6.97286 4.94856C7.40083 4.94856 7.79465 5.08558 8.11544 5.31575L8.79611 4.63411C8.55081 4.30619 8.40361 3.90051 8.40353 3.4593C8.40353 2.36933 9.2833 1.49939 10.3733 1.49934C10.8298 1.49934 11.2486 1.6546 11.5822 1.9134L12.4533 1.05891ZM3.5129 9.17903C2.78322 9.17927 2.2035 9.76889 2.20333 10.4886C2.20333 10.7729 2.29576 11.0368 2.45138 11.2523C2.53783 11.249 2.62542 11.2808 2.69357 11.349C2.75784 11.4133 2.78697 11.4949 2.78634 11.5765C2.99467 11.7166 3.24466 11.7991 3.5129 11.7991C4.2329 11.7991 4.82345 11.2086 4.82345 10.4886C4.82339 10.2264 4.74391 9.98216 4.60958 9.77669C4.57432 9.79016 4.53791 9.79915 4.50314 9.79915V9.78938C4.42319 9.78933 4.33359 9.75851 4.27365 9.69856C4.18291 9.60781 4.15663 9.48373 4.19259 9.37239C3.99396 9.25072 3.76142 9.17903 3.5129 9.17903ZM6.97286 5.58919C6.24314 5.58945 5.66338 6.17899 5.66329 6.89876C5.66329 7.201 5.76608 7.48007 5.93868 7.70247C6.016 7.70625 6.09257 7.73818 6.15353 7.79915C6.20798 7.85369 6.23756 7.92076 6.2463 7.98958C6.45347 8.12783 6.70284 8.20921 6.97286 8.2093C7.70286 8.2093 8.28341 7.62876 8.28341 6.89876C8.28338 6.64226 8.20897 6.40521 8.08322 6.20442C8.05623 6.21232 8.02938 6.21907 8.00314 6.21907C7.92319 6.21902 7.83359 6.18842 7.77364 6.11848C7.6854 6.03019 7.65704 5.91009 7.68868 5.8011C7.48259 5.66688 7.23629 5.58919 6.97286 5.58919ZM10.3733 2.14876C9.6433 2.14881 9.06368 2.73933 9.06368 3.4593C9.06377 3.73557 9.15122 3.99357 9.29904 4.20735C9.4015 4.18601 9.51105 4.21726 9.59298 4.29915C9.67082 4.37699 9.70113 4.47949 9.68575 4.57747C9.88617 4.70389 10.1213 4.77862 10.3733 4.77864C11.0931 4.77864 11.6836 4.18912 11.6838 3.4593C11.6838 3.19839 11.6065 2.95718 11.4768 2.75422C11.4102 2.74464 11.3417 2.71512 11.2932 2.65852C11.231 2.59617 11.199 2.51785 11.1965 2.4388C10.9711 2.25705 10.6842 2.14876 10.3733 2.14876Z" fill="#231F20"/>
</g>
<defs>
<clipPath id="clip0_2089_295">
<rect width="14" height="14" fill="white"/>
</clipPath>
</defs>
</svg>
