<svg width="14" height="14" viewBox="0 0 14 14" fill="none" xmlns="http://www.w3.org/2000/svg">
<path fill-rule="evenodd" clip-rule="evenodd" d="M7.54002 11.9449L7.50002 11.7549L7.43002 11.5549L7.33002 11.4549L7.17002 11.3749L6.97002 11.3349L6.79002 11.3749L6.64002 11.4549L6.56002 11.5549L6.50002 11.7549L6.46002 11.9449L6.50002 12.0849L6.56002 12.2649L6.64002 12.3649L6.79002 12.4649H7.17002L7.33002 12.3649L7.43002 12.2649L7.50002 12.0849L7.54002 11.9449Z" fill="#231F20"/>
<path fill-rule="evenodd" clip-rule="evenodd" d="M4.74002 9.40491L4.64002 9.24491L4.52002 9.14491L4.36002 9.08491L4.19002 9.04491L4.03002 9.08491L3.83002 9.14491L3.71002 9.24491L3.65002 9.40491L3.61002 9.63491L3.65002 9.79491L3.71002 9.91491L3.83002 10.0549L4.03002 10.1149L4.19002 10.1749L4.36002 10.1149L4.48002 10.0149L4.64002 9.91491L4.74002 9.79491V9.40491Z" fill="#231F20"/>
<path fill-rule="evenodd" clip-rule="evenodd" d="M2.66002 6.91491L2.62002 6.71491L2.55002 6.57491L2.43002 6.47491L2.29002 6.39491L2.11002 6.35491L1.91002 6.39491L1.79002 6.47491L1.62002 6.57491L1.58002 6.71491L1.52002 6.91491L1.58002 7.10491L1.62002 7.24491L1.79002 7.32491L1.91002 7.42491L2.11002 7.44491L2.29002 7.42491L2.43002 7.32491L2.55002 7.24491L2.62002 7.10491L2.66002 6.91491Z" fill="#231F20"/>
<path fill-rule="evenodd" clip-rule="evenodd" d="M10.11 9.67491L10.09 9.51491L10.03 9.36491L9.90002 9.24491L9.74002 9.18491L9.58002 9.14491L9.36002 9.18491L9.24002 9.24491L9.09002 9.36491L9.03002 9.51491L9.01002 9.67491L9.03002 9.89491L9.09002 10.0149L9.24002 10.1749L9.36002 10.2349H9.74002L9.90002 10.1749L10.03 10.0149L10.09 9.89491L10.11 9.67491Z" fill="#231F20"/>
<path fill-rule="evenodd" clip-rule="evenodd" d="M7.54002 2.12491L7.50002 1.91491L7.43002 1.79491L7.33002 1.63491L7.17002 1.57491L6.97002 1.53491L6.79002 1.57491L6.64002 1.63491L6.50002 1.91491L6.46002 2.12491L6.50002 2.30491L6.56002 2.44491L6.64002 2.56491L6.79002 2.62491L6.97002 2.66491L7.17002 2.62491L7.33002 2.56491L7.43002 2.44491L7.50002 2.30491L7.54002 2.12491Z" fill="#231F20"/>
<path fill-rule="evenodd" clip-rule="evenodd" d="M5.17002 4.24491L5.09002 4.08491L4.96002 3.94491L4.80002 3.88491L4.64002 3.84491L4.46002 3.88491L4.28002 3.94491L4.15002 4.08491L4.07002 4.24491L4.05002 4.40491L4.07002 4.61491L4.15002 4.75491L4.28002 4.85491L4.46002 4.97491H4.80002L4.96002 4.85491L5.09002 4.75491L5.17002 4.61491V4.24491Z" fill="#231F20"/>
<path fill-rule="evenodd" clip-rule="evenodd" d="M12.48 7.06491L12.44 6.91491L12.37 6.73491L12.21 6.59491L12.09 6.53491L11.89 6.51491L11.73 6.53491L11.61 6.59491L11.44 6.73491L11.38 6.91491L11.34 7.06491L11.38 7.24491L11.44 7.38491L11.61 7.48491L11.73 7.60491H12.09L12.21 7.48491L12.37 7.38491L12.44 7.24491L12.48 7.06491Z" fill="#231F20"/>
<path fill-rule="evenodd" clip-rule="evenodd" d="M10.11 4.55491L10.09 4.36491L10.03 4.22491L9.90002 4.08491L9.74002 4.02491L9.54002 3.98491L9.36002 4.02491L9.24002 4.08491L9.14002 4.22491L9.07002 4.36491L9.03002 4.55491L9.07002 4.75491L9.14002 4.87491L9.24002 4.99491L9.36002 5.07491L9.54002 5.09491L9.74002 5.07491L9.90002 4.99491L10.03 4.87491L10.09 4.75491L10.11 4.55491Z" fill="#231F20"/>
</svg>
