<svg width="14" height="14" viewBox="0 0 14 14" fill="none" xmlns="http://www.w3.org/2000/svg">
<path d="M1.20006 9.9807C1.11006 9.9807 1.01006 9.9407 0.950064 9.8607C0.840064 9.7207 0.860064 9.5207 0.990064 9.4007L10.4701 1.5707C10.6101 1.4607 10.8101 1.4807 10.9301 1.6107C11.0401 1.7507 11.0201 1.9507 10.8901 2.0707L1.40006 9.9107C1.34006 9.9607 1.27006 9.9807 1.19006 9.9807H1.20006Z" fill="#231F20"/>
<path d="M3.19006 12.4307C3.10006 12.4307 3.00006 12.3907 2.94006 12.3107C2.83006 12.1707 2.85006 11.9707 2.98006 11.8507L12.4901 4.0207C12.6301 3.9107 12.8301 3.9307 12.9501 4.0607C13.0601 4.2007 13.0401 4.4007 12.9101 4.5207L3.39006 12.3607C3.33006 12.4107 3.26006 12.4307 3.18006 12.4307H3.19006Z" fill="#231F20"/>
<path d="M4.85006 12.7207C4.76006 12.7207 4.66006 12.6807 4.60006 12.6007L1.10006 8.3707C0.980064 8.2307 1.00006 8.0307 1.14006 7.9107C1.28006 7.7907 1.48006 7.8107 1.60006 7.9507L5.10006 12.1807C5.22006 12.3207 5.20006 12.5207 5.06006 12.6407C5.00006 12.6907 4.93006 12.7207 4.85006 12.7207Z" fill="#231F20"/>
<path d="M6.43006 11.4407C6.34006 11.4407 6.24006 11.4007 6.18006 11.3207L2.66006 7.0707C2.55006 6.9307 2.57006 6.7307 2.70006 6.6107C2.84006 6.5007 3.04006 6.5107 3.16006 6.6507L6.67006 10.9007C6.78006 11.0407 6.76006 11.2407 6.63006 11.3607C6.57006 11.4107 6.50006 11.4307 6.42006 11.4307L6.43006 11.4407Z" fill="#231F20"/>
<path d="M7.99006 10.1507C7.90006 10.1507 7.80006 10.1107 7.74006 10.0307L4.25006 5.7707C4.14006 5.6307 4.16006 5.4307 4.29006 5.3107C4.43006 5.2007 4.64006 5.2207 4.75006 5.3507L8.24006 9.6107C8.35006 9.7507 8.33006 9.9507 8.20006 10.0707C8.14006 10.1207 8.07006 10.1407 7.99006 10.1407V10.1507Z" fill="#231F20"/>
<path d="M9.61006 8.8307C9.52006 8.8307 9.42006 8.7907 9.36006 8.7107L5.83006 4.4807C5.71006 4.3407 5.73006 4.1407 5.87006 4.0207C6.01006 3.9007 6.21006 3.9207 6.33006 4.0607L9.86006 8.2907C9.98006 8.4307 9.96006 8.6307 9.82006 8.7507C9.76006 8.8007 9.69006 8.8307 9.61006 8.8307Z" fill="#231F20"/>
<path d="M11.2101 7.4907C11.1201 7.4907 11.0201 7.4507 10.9601 7.3707L7.44006 3.1207C7.33006 2.9807 7.35006 2.7807 7.48006 2.6607C7.62006 2.5507 7.82006 2.5607 7.94006 2.7007L11.4501 6.9507C11.5601 7.0907 11.5401 7.2907 11.4101 7.4107C11.3501 7.4607 11.2801 7.4807 11.2001 7.4807L11.2101 7.4907Z" fill="#231F20"/>
<path d="M12.8101 6.1807C12.7201 6.1807 12.6201 6.1407 12.5601 6.0607L9.04006 1.8107C8.93006 1.6707 8.95006 1.4707 9.08006 1.3507C9.22006 1.2407 9.42006 1.2607 9.54006 1.3907L13.0501 5.6407C13.1601 5.7807 13.1401 5.9807 13.0101 6.1007C12.9501 6.1507 12.8801 6.1707 12.8001 6.1707L12.8101 6.1807Z" fill="#231F20"/>
</svg>
