<svg width="14" height="14" viewBox="0 0 14 14" fill="none" xmlns="http://www.w3.org/2000/svg">
<g clip-path="url(#clip0_2090_369)">
<path d="M13.3232 1.11035L11.1172 3.32422L12.5156 4.66211L12.0664 5.13184L10.6582 3.78516L7.32715 7.13086L8.90137 8.71484L8.44141 9.1748L6.86816 7.5918L4.03613 10.4365L5.50098 11.9551L5.04102 12.415L3.57715 10.8975L1.1377 13.3477L0.676758 12.8896L3.12598 10.4297L1.76074 9.01465L2.2207 8.55469L3.58496 9.96875L6.41016 7.13086L5.2207 5.93457L5.68066 5.47461L6.86914 6.66992L10.1885 3.33594L8.9082 2.11133L9.35742 1.6416L10.6475 2.87598L12.8633 0.652344L13.3232 1.11035Z" fill="#231F20"/>
</g>
<defs>
<clipPath id="clip0_2090_369">
<rect width="14" height="14" fill="white"/>
</clipPath>
</defs>
</svg>
