<svg width="14" height="14" viewBox="0 0 14 14" fill="none" xmlns="http://www.w3.org/2000/svg">
<g clip-path="url(#clip0_2090_376)">
<path fill-rule="evenodd" clip-rule="evenodd" d="M13.3232 1.11035L11.125 3.31641L12.5215 4.64648L12.0732 5.11621L10.667 3.77637L9.79688 4.64844C10.9279 5.98818 10.953 8.00407 9.78125 9.38477C9.0513 10.2147 8.04119 10.6445 7.03125 10.6445L7.01074 10.6348C6.18666 10.6347 5.36308 10.3549 4.68066 9.78711L3.89355 10.5791L5.31836 12.0596L4.84961 12.5098L3.43555 11.04L1.1377 13.3477L0.676758 12.8896L2.98438 10.5713L1.5498 9.08008L2.01855 8.62891L3.44336 10.1104L4.22656 9.32227C3.11469 7.96567 3.1034 6.00074 4.28125 4.625C5.57654 3.14327 7.81439 2.97191 9.33398 4.19434L10.1963 3.3291L8.91602 2.10938L9.36426 1.63867L10.6553 2.86816L12.8633 0.652344L13.3232 1.11035ZM7.39551 7.06152L8.92285 8.60645L8.46094 9.06348L6.9375 7.52148L5.14355 9.32324C6.40112 10.3283 8.20199 10.1716 9.28125 8.95508C10.2312 7.84379 10.2246 6.21058 9.33496 5.11328L7.39551 7.06152ZM8.87207 4.6582C7.62378 3.69349 5.8178 3.84369 4.77148 5.04492C3.82259 6.16553 3.81508 7.74122 4.68555 8.86133L6.48047 7.05957L5.05859 5.62109L5.52051 5.16406L6.93945 6.59961L8.87207 4.6582Z" fill="#231F20"/>
</g>
<defs>
<clipPath id="clip0_2090_376">
<rect width="14" height="14" fill="white"/>
</clipPath>
</defs>
</svg>
