<svg width="14" height="14" viewBox="0 0 14 14" fill="none" xmlns="http://www.w3.org/2000/svg">
<path d="M6.74505 9.82505L5.89505 9.65505L4.94505 9.16505L4.11505 8.37505L3.59505 7.40505L3.42505 6.32505L3.46505 5.89505L3.63505 5.10505L4.11505 4.23505L4.68505 4.54505L4.22505 5.37505L4.07505 6.34505L4.22505 7.23505L4.65505 8.01505L5.35505 8.65505L6.14505 9.05505L6.80505 9.17505H7.25505L7.93505 9.05505L8.84505 8.63505L9.45505 8.00505L9.86505 7.14505L9.92505 6.12505L9.85505 5.39505L9.36505 4.48505L9.93505 4.17505L10.495 5.26505L10.575 6.10505L10.485 7.36505L9.96505 8.42505L9.17505 9.20505L8.08505 9.68505L7.31505 9.81505L6.74505 9.82505Z" fill="#231F20"/>
</svg>
