<svg width="14" height="14" viewBox="0 0 14 14" fill="none" xmlns="http://www.w3.org/2000/svg">
<path d="M2.72502 11.6099C2.54502 11.6099 2.40502 11.4599 2.39502 11.2899C2.39502 11.1099 2.53502 10.9599 2.71502 10.9599L11.275 10.9399C11.455 10.9399 11.595 11.0899 11.605 11.2599C11.605 11.4399 11.465 11.5899 11.285 11.5899L2.72502 11.6099Z" fill="#231F20"/>
<path d="M9.98502 11.5899C9.85502 11.5899 9.72502 11.5099 9.67502 11.3699L6.90502 3.66989L4.13502 11.3299C4.07502 11.4999 3.88502 11.5799 3.71502 11.5299C3.54502 11.4699 3.45502 11.2799 3.51502 11.1099L6.60502 2.59989C6.65502 2.46989 6.77502 2.38989 6.91502 2.38989C7.05502 2.38989 7.17502 2.47989 7.22502 2.60989L10.295 11.1599C10.355 11.3299 10.265 11.5099 10.095 11.5799C10.055 11.5899 10.025 11.5999 9.98502 11.5999V11.5899Z" fill="#231F20"/>
</svg>
