<svg width="14" height="14" viewBox="0 0 14 14" fill="none" xmlns="http://www.w3.org/2000/svg">
<path fill-rule="evenodd" clip-rule="evenodd" d="M4.32504 12.105L4.22504 11.935L4.10504 11.875L3.94504 11.755H3.61504L3.41504 11.875L3.29504 11.935L3.23504 12.105L3.19504 12.305L3.23504 12.465L3.29504 12.645L3.41504 12.745L3.61504 12.805L3.77504 12.875L3.94504 12.805L4.10504 12.745L4.22504 12.645L4.32504 12.465V12.105Z" fill="#231F20"/>
<path fill-rule="evenodd" clip-rule="evenodd" d="M2.26504 10.235L2.24504 10.055L2.20504 9.915L2.03504 9.795L1.87504 9.735L1.69504 9.675L1.37504 9.795L1.24504 9.915L1.16504 10.055V10.445L1.24504 10.565L1.37504 10.725L1.53504 10.765L1.69504 10.785L1.87504 10.765L2.03504 10.725L2.20504 10.565L2.24504 10.445L2.26504 10.235Z" fill="#231F20"/>
<path fill-rule="evenodd" clip-rule="evenodd" d="M5.78504 6.615L5.76504 6.475L5.66504 6.285L5.52504 6.145L5.44504 6.105L5.19504 6.065L5.05504 6.105L4.89504 6.145L4.77504 6.285L4.71504 6.475L4.67504 6.615L4.71504 6.835L4.77504 6.975L4.89504 7.055L5.05504 7.185H5.44504L5.52504 7.055L5.66504 6.975L5.76504 6.835L5.78504 6.615Z" fill="#231F20"/>
<path fill-rule="evenodd" clip-rule="evenodd" d="M7.91504 8.575L7.82504 8.415L7.72504 8.275L7.56504 8.215L7.38504 8.155L7.20504 8.215L7.01504 8.275L6.91504 8.415L6.85504 8.575L6.81504 8.735L6.85504 8.925L6.91504 9.085L7.01504 9.185L7.20504 9.285H7.56504L7.72504 9.185L7.82504 9.085L7.91504 8.925V8.575Z" fill="#231F20"/>
<path fill-rule="evenodd" clip-rule="evenodd" d="M9.06504 3.175L8.98504 2.985L8.88504 2.885L8.72504 2.785H8.35504L8.17504 2.885L8.07504 2.985L8.01504 3.175L7.97504 3.335L8.01504 3.495L8.07504 3.655L8.17504 3.795L8.35504 3.885L8.53504 3.925L8.72504 3.885L8.88504 3.795L8.98504 3.655L9.06504 3.495V3.175Z" fill="#231F20"/>
<path fill-rule="evenodd" clip-rule="evenodd" d="M11.215 5.455L11.195 5.295L11.085 5.115L10.985 5.035L10.845 4.935H10.465L10.195 5.115L10.135 5.295L10.075 5.455L10.135 5.645L10.195 5.785L10.315 5.945L10.465 6.005L10.645 6.065L10.845 6.005L10.985 5.945L11.085 5.785L11.195 5.645L11.215 5.455Z" fill="#231F20"/>
<path fill-rule="evenodd" clip-rule="evenodd" d="M6.08504 10.295L5.96504 10.135L5.86504 10.055L5.70504 9.955H5.37504L5.15504 10.055L5.05504 10.135L4.99504 10.295L4.95504 10.505L4.99504 10.665L5.05504 10.825L5.15504 10.945L5.37504 11.005L5.52504 11.065L5.70504 11.005L5.86504 10.945L5.96504 10.825L6.08504 10.665V10.295Z" fill="#231F20"/>
<path fill-rule="evenodd" clip-rule="evenodd" d="M4.02504 8.415L4.00504 8.255L3.94504 8.095L3.80504 7.995L3.63504 7.925L3.45504 7.865L3.29504 7.925L3.13504 7.995L3.01504 8.095L2.92504 8.255V8.635L3.01504 8.765L3.13504 8.905L3.29504 8.965L3.45504 8.985L3.63504 8.965L3.80504 8.905L3.94504 8.765L4.00504 8.635L4.02504 8.415Z" fill="#231F20"/>
<path fill-rule="evenodd" clip-rule="evenodd" d="M7.44504 4.935L7.40504 4.755L7.34504 4.585L7.20504 4.465L7.08504 4.405L6.87504 4.345L6.69504 4.405L6.59504 4.465L6.43504 4.585L6.37504 4.755L6.31504 4.935L6.43504 5.295L6.59504 5.355L6.69504 5.455H7.08504L7.20504 5.355L7.34504 5.295L7.40504 5.115L7.44504 4.935Z" fill="#231F20"/>
<path fill-rule="evenodd" clip-rule="evenodd" d="M9.59504 6.875L9.50504 6.715L9.38504 6.555L9.06504 6.475L8.88504 6.515L8.72504 6.555L8.55504 6.715L8.51504 6.875L8.49504 7.035L8.51504 7.245L8.55504 7.385L8.72504 7.485L8.88504 7.605H9.22504L9.38504 7.485L9.50504 7.385L9.59504 7.245V6.875Z" fill="#231F20"/>
<path fill-rule="evenodd" clip-rule="evenodd" d="M10.705 1.515L10.625 1.345L10.525 1.245L10.365 1.125H9.99504L9.83504 1.245L9.69504 1.345L9.65504 1.515L9.61504 1.695L9.69504 2.015L9.83504 2.155L9.99504 2.245L10.195 2.265L10.365 2.245L10.525 2.155L10.625 2.015L10.705 1.855V1.515Z" fill="#231F20"/>
<path fill-rule="evenodd" clip-rule="evenodd" d="M12.835 3.815L12.815 3.635L12.745 3.475L12.625 3.395L12.485 3.275H12.105L11.985 3.395L11.835 3.475L11.775 3.635L11.715 3.815L11.775 3.985L11.835 4.165L11.985 4.305L12.105 4.345L12.305 4.405L12.485 4.345L12.625 4.305L12.745 4.165L12.815 3.985L12.835 3.815Z" fill="#231F20"/>
</svg>
