<svg width="206" height="230" viewBox="0 0 206 230" fill="none" xmlns="http://www.w3.org/2000/svg">
<g clip-path="url(#clip0_2101_11)">
<path fill-rule="evenodd" clip-rule="evenodd" d="M101.858 226.445C84.2592 214.664 68.528 200.981 55.1212 185.769C41.9634 170.805 31.0056 154.312 22.6211 136.785C14.2367 119.299 8.38415 100.78 5.1881 81.7236C1.95054 62.5018 1.41095 42.7013 3.61083 22.8595L3.85987 20.4619L6.26729 20.8753C14.7763 22.3635 23.2022 23.1075 31.2961 23.1075C55.4948 23.1075 78.2822 16.6176 100.987 3.30702L102.107 2.64563L103.27 3.26569C128.215 17.1963 150.671 23.6862 173.998 23.6862C182.299 23.6862 190.933 22.8182 199.608 21.1647L202.015 20.71L202.306 23.1489C206.747 61.1791 200.438 100.036 184.084 135.545C166.9 172.913 139.298 204.371 104.307 226.528L103.062 227.313L101.817 226.486L101.858 226.445Z" fill="#001E42"/>
<path d="M102.149 5.24982C125.434 18.2297 148.471 25.9597 173.998 25.9597C199.524 25.9597 191.016 25.133 200.064 23.3968C208.698 97.597 175.699 178.577 103.145 224.585C32.3752 177.254 -2.86441 102.268 5.8936 23.0661C14.278 24.5543 22.7455 25.3397 31.296 25.3397C54.2079 25.3397 77.7425 19.5525 102.149 5.20848M102.107 0L99.8658 1.32279C77.4934 14.4267 55.0796 20.8339 31.3375 20.8339C7.59539 20.8339 15.0667 20.0899 6.72374 18.6017L1.90891 17.775L1.36932 22.6114C-0.872071 42.6186 -0.332478 62.6258 2.94659 82.0956C6.18415 101.359 12.1197 120.126 20.5871 137.777C29.0961 155.51 40.137 172.169 53.4193 187.299C66.9506 202.676 82.8064 216.483 100.571 228.388L103.062 230.041L105.594 228.429C140.958 206.024 168.851 174.195 186.201 136.454C194.419 118.596 200.147 99.7466 203.26 80.3594C206.332 61.179 206.788 41.7919 204.588 22.8595L204.007 17.9817L199.151 18.9324C190.6 20.5859 182.133 21.4127 173.956 21.4127C151.044 21.4127 128.921 15.0054 104.307 1.28145L102.024 0L102.107 0Z" fill="white"/>
<path fill-rule="evenodd" clip-rule="evenodd" d="M195.581 50.514L29.8848 133.188C29.8848 133.188 29.8848 133.271 29.9263 133.312C35.9863 145.92 43.3746 157.991 52.0081 169.276L188.027 101.4C190.102 93.9594 191.763 86.3947 193.008 78.7473C194.502 69.3638 195.374 59.9389 195.54 50.5554L195.581 50.514Z" fill="white"/>
<path fill-rule="evenodd" clip-rule="evenodd" d="M43.541 91.1485L63.0078 77.7966L82.6407 91.1898L75.0864 69.6945L94.7608 56.3426L70.6036 56.4666L63.1324 34.8059L55.7856 56.3426L31.5039 56.3012L51.0953 69.5291L43.541 91.1485Z" fill="#D22630"/>
<path fill-rule="evenodd" clip-rule="evenodd" d="M97.7911 114.463C98.6213 115.331 98.9118 117.067 98.3307 118.39C97.7496 119.712 97.5421 119.547 96.9195 119.878L86.4181 125.045L86.3351 118.803L95.8403 114.173C96.5044 113.843 97.293 113.967 97.7911 114.504V114.463ZM95.4667 106.567C95.3837 106.609 91.0669 108.799 91.0669 108.799L77.9092 115.413V149.723L86.4597 145.465V132.899L92.4782 129.84L98.5382 139.513L106.051 135.834L100.157 126.037C102.357 124.714 104.557 122.73 105.76 120.498C108.334 115.785 107.504 106.03 98.5382 105.74C98.0817 105.74 97.6251 105.74 97.1685 105.906C96.7119 106.071 96.1723 106.237 95.5082 106.567H95.4667Z" fill="#D22630"/>
<path fill-rule="evenodd" clip-rule="evenodd" d="M156.192 111.28L155.901 76.5977L162.003 73.4561L175.036 87.3041V67.0902L183.255 62.9978V97.9277L176.738 101.111L164.244 87.9655L164.327 107.187L156.192 111.28Z" fill="#D22630"/>
<path fill-rule="evenodd" clip-rule="evenodd" d="M119.25 129.303V94.7861L111.571 98.6305V133.023C111.53 133.023 119.25 129.261 119.25 129.261V129.303Z" fill="#D22630"/>
<path fill-rule="evenodd" clip-rule="evenodd" d="M135.48 94.8275C137.015 93.6287 139.257 93.6287 140.709 94.9101C143.739 97.6384 143.449 104.376 142.038 108.345C140.792 111.982 135.895 113.843 133.612 110.288C131.121 106.237 131.536 97.8864 135.48 94.8275ZM144.196 87.3454C140.46 85.5266 136.061 85.816 132.408 87.8001C122.073 93.3807 120.994 109.171 127.386 116.819C128.838 118.555 131.038 119.712 133.612 120.167C139.34 121.201 146.188 118.472 148.928 113.181C152.705 105.368 153.245 91.8099 144.155 87.3454H144.196Z" fill="#D22630"/>
<path fill-rule="evenodd" clip-rule="evenodd" d="M57.7784 132.816C59.3142 131.618 61.5556 131.576 63.0083 132.899C66.0383 135.627 65.7478 142.407 64.3365 146.416C63.0913 150.054 58.1935 151.955 55.9106 148.359C53.4201 144.267 53.8352 135.875 57.7784 132.816ZM66.4949 125.293C62.7593 123.474 58.3595 123.763 54.7069 125.748C44.3716 131.37 43.2924 147.243 49.6845 154.973C51.1373 156.751 53.3371 157.867 55.9106 158.321C61.6386 159.355 68.4872 156.627 71.2267 151.294C75.0039 143.44 75.5435 129.757 66.4534 125.293H66.4949Z" fill="#D22630"/>
</g>
<defs>
<clipPath id="clip0_2101_11">
<rect width="206" height="230" fill="white"/>
</clipPath>
</defs>
</svg>
