<svg width="14" height="14" viewBox="0 0 14 14" fill="none" xmlns="http://www.w3.org/2000/svg">
<path d="M1.45494 12.8837C1.37494 12.8837 1.28494 12.8537 1.22494 12.7937C1.09494 12.6637 1.09494 12.4637 1.22494 12.3337L12.3149 1.21371C12.4449 1.08371 12.6449 1.08371 12.7749 1.21371C12.9049 1.34371 12.9049 1.54371 12.7749 1.67371L1.69494 12.7837C1.63494 12.8437 1.54494 12.8837 1.46494 12.8837H1.45494Z" fill="#231F20"/>
<path d="M7.53494 9.10371C7.35494 9.10371 7.20494 8.95371 7.20494 8.77371V6.85371H4.95494C4.77494 6.85371 4.62494 6.70371 4.62494 6.52371C4.62494 6.34371 4.77494 6.19371 4.95494 6.19371H7.52494C7.70494 6.19371 7.85494 6.34371 7.85494 6.52371V8.77371C7.85494 8.95371 7.70494 9.10371 7.52494 9.10371H7.53494Z" fill="#231F20"/>
<path d="M4.30494 12.3037C4.12494 12.3037 3.97494 12.1537 3.97494 11.9737V10.0337H1.71494C1.53494 10.0337 1.38494 9.88371 1.38494 9.70371C1.38494 9.52371 1.53494 9.37371 1.71494 9.37371H4.30494C4.48494 9.37371 4.63494 9.52371 4.63494 9.70371V11.9737C4.63494 12.1537 4.48494 12.3037 4.30494 12.3037Z" fill="#231F20"/>
<path d="M10.4949 6.14371C10.3149 6.14371 10.1649 5.99371 10.1649 5.81371V3.87371H7.89494C7.71494 3.87371 7.56494 3.72371 7.56494 3.54371C7.56494 3.36371 7.71494 3.21371 7.89494 3.21371H10.4849C10.6649 3.21371 10.8149 3.36371 10.8149 3.54371V5.81371C10.8149 5.99371 10.6649 6.14371 10.4849 6.14371H10.4949Z" fill="#231F20"/>
</svg>
