<svg width="14" height="14" viewBox="0 0 14 14" fill="none" xmlns="http://www.w3.org/2000/svg">
<path d="M3.66989 13.0151L3.13989 12.6451L4.24989 11.0651L4.93989 9.14511L5.15989 6.94511L4.91989 4.82511L4.24989 2.92511L3.13989 1.36511L3.66989 0.985107L4.83989 2.66511L5.54989 4.68511L5.80989 6.94511L5.56989 9.28511L4.79989 11.3951L3.66989 13.0151Z" fill="#231F20"/>
<path d="M10.3299 12.9451L9.18989 11.3151L8.47989 9.28511L8.21989 7.01511L8.45989 4.79511L9.22989 2.64511L10.3299 1.08511L10.8599 1.46511L9.78989 2.98511L9.08989 4.94511L8.86989 7.01511L9.10989 9.14511L9.78989 11.0651L10.8599 12.5651L10.3299 12.9451Z" fill="#231F20"/>
</svg>
