<svg width="14" height="14" viewBox="0 0 14 14" fill="none" xmlns="http://www.w3.org/2000/svg">
<path d="M11.62 11.79C9.98 11.79 9.21 11.45 8.59 9.2C8.38 8.46 8.26 7.65 8.14 6.86C7.84 4.88 7.6 3.67 6.67 3.67C5.69 3.67 5.41 4.88 5.07 6.87C4.94 7.64 4.8 8.44 4.58 9.17C3.87 11.34 3.11 11.73 1.33 11.73C1.15 11.73 1 11.58 1 11.4C1 11.22 1.15 11.07 1.33 11.07C2.8 11.07 3.33 10.91 3.96 8.96C4.17 8.27 4.3 7.5 4.43 6.74C4.76 4.82 5.07 3 6.67 3C8.27 3 8.49 4.82 8.78 6.74C8.89 7.51 9.01 8.3 9.21 9C9.81 11.17 10.45 11.15 11.97 11.11C12.18 11.11 12.3 11.25 12.3 11.43C12.3 11.61 12.16 11.76 11.98 11.76C11.85 11.76 11.73 11.76 11.61 11.76L11.62 11.79Z" fill="#231F20"/>
</svg>
