<svg width="14" height="14" viewBox="0 0 14 14" fill="none" xmlns="http://www.w3.org/2000/svg">
<path d="M4.08806 9.8804C3.90806 9.8804 3.76806 9.7404 3.75806 9.5604C3.75806 9.5404 3.75806 9.5204 3.75806 9.5104C3.75806 9.4504 3.75806 9.3904 3.77806 9.3404L6.80806 2.0804C6.85806 1.9604 7.01806 1.8704 7.10806 1.8804C7.23806 1.8804 7.35806 1.9604 7.40806 2.0904L10.2181 9.3804C10.2581 9.4804 10.2481 9.5904 10.1881 9.6804C10.1281 9.7704 10.0281 9.8204 9.91806 9.8204L4.08806 9.8804ZM7.08806 3.0804L4.52806 9.2304L9.43806 9.1804L7.08806 3.0804Z" fill="#231F20"/>
<path d="M6.94806 12.1204C6.76806 12.1204 6.61806 11.9704 6.61806 11.7904V9.7304C6.61806 9.5504 6.76806 9.4004 6.94806 9.4004C7.12806 9.4004 7.27806 9.5504 7.27806 9.7304V11.7904C7.27806 11.9704 7.12806 12.1204 6.94806 12.1204Z" fill="#231F20"/>
</svg>
