<svg width="14" height="14" viewBox="0 0 14 14" fill="none" xmlns="http://www.w3.org/2000/svg">
<path d="M4.48078 8.04988L3.84078 7.91988L3.96078 7.29988L4.31078 6.32988L4.72078 5.73988L4.85078 5.62988L5.39078 5.34988L5.76078 5.36988L6.25078 5.73988L6.53078 6.30988L6.86078 7.11988L6.96078 7.16988L7.06078 7.11988L7.25078 6.85988L7.55078 6.04988L7.84078 5.60988L7.98078 5.48988L8.26078 5.36988L8.47078 5.34988L8.90078 5.49988L9.50078 6.07988L9.78078 6.74988L10.1408 7.45988L9.56078 7.74988L9.19078 7.01988L8.92078 6.38988L8.54078 6.03988L8.41078 6.00988L8.33078 6.04988L8.13078 6.33988L7.80078 7.20988L7.44078 7.64988L7.13078 7.82988H6.82078L6.48078 7.64988L6.34078 7.51988L6.18078 7.22988L5.93078 6.56988L5.72078 6.12988L5.54078 6.01988L5.21078 6.17988L4.87078 6.65988L4.58078 7.46988L4.48078 8.04988Z" fill="#231F20"/>
<path d="M6.86078 10.1199C4.61078 10.1199 2.30078 9.19988 1.86078 7.58988C1.82078 7.44988 1.80078 7.30988 1.79078 7.15988C1.79078 7.15988 1.79078 7.15988 1.79078 7.14988C1.79078 7.12988 1.79078 7.11988 1.79078 7.09988C1.76078 6.43988 1.98078 5.84988 2.46078 5.34988C3.34078 4.41988 5.07078 3.89988 7.08078 3.87988C9.59078 3.87988 12.1408 4.96988 12.2108 7.05988C12.2308 7.72988 12.0108 8.30988 11.5508 8.77988C10.3808 9.98988 7.99078 10.1199 7.01078 10.1199C6.96078 10.1199 6.91078 10.1199 6.86078 10.1199ZM2.43078 7.08988C2.49078 8.52988 4.75078 9.46988 6.87078 9.46988C6.92078 9.46988 6.95078 9.46988 7.00078 9.46988C8.89078 9.46988 10.3808 9.04988 11.0808 8.32988C11.4208 7.97988 11.5708 7.57988 11.5608 7.07988C11.5108 5.37988 9.21078 4.52988 7.01078 4.52988C5.23078 4.52988 3.67078 5.01988 2.92078 5.79988C2.57078 6.16988 2.40078 6.59988 2.43078 7.07988V7.08988Z" fill="#231F20"/>
</svg>
