<svg width="14" height="14" viewBox="0 0 14 14" fill="none" xmlns="http://www.w3.org/2000/svg">
<path d="M3.04997 9.475C2.96997 9.475 2.87997 9.445 2.81997 9.385C2.68997 9.255 2.68997 9.055 2.81997 8.925L10.7 0.975C10.83 0.845 11.03 0.845 11.16 0.975C11.29 1.105 11.29 1.305 11.16 1.435L3.27997 9.375C3.21997 9.435 3.12997 9.475 3.04997 9.475Z" fill="#231F20"/>
<path d="M3.04997 13.125C2.86997 13.125 2.71997 12.975 2.71997 12.795V9.145C2.71997 8.965 2.86997 8.815 3.04997 8.815C3.22997 8.815 3.37997 8.965 3.37997 9.145V12.795C3.37997 12.975 3.22997 13.125 3.04997 13.125Z" fill="#231F20"/>
<path d="M5.60997 11.175C5.42997 11.175 5.27997 11.025 5.27997 10.845V6.735C5.27997 6.555 5.42997 6.405 5.60997 6.405C5.78997 6.405 5.93997 6.555 5.93997 6.735V10.845C5.93997 11.025 5.78997 11.175 5.60997 11.175Z" fill="#231F20"/>
<path d="M8.46997 8.385C8.28997 8.385 8.14997 8.245 8.13997 8.065L8.11997 3.875C8.11997 3.695 8.28997 3.555 8.44997 3.545C8.62997 3.545 8.76997 3.685 8.77997 3.865L8.79997 8.055C8.79997 8.235 8.65997 8.395 8.46997 8.385Z" fill="#231F20"/>
<path d="M10.96 6.035C10.78 6.035 10.64 5.895 10.63 5.715L10.61 1.205C10.61 1.025 10.75 0.875 10.93 0.875C11.11 0.875 11.25 1.015 11.26 1.195L11.28 5.705C11.28 5.885 11.14 6.035 10.96 6.035Z" fill="#231F20"/>
</svg>
