<svg width="14" height="14" viewBox="0 0 14 14" fill="none" xmlns="http://www.w3.org/2000/svg">
<path d="M1.04492 1.65494C1.04492 1.97494 1.31492 2.24494 1.63492 2.24494C1.95492 2.24494 2.22492 1.97494 2.22492 1.65494C2.22492 1.33494 1.95492 1.06494 1.63492 1.06494C1.31492 1.06494 1.04492 1.33494 1.04492 1.65494Z" fill="#231F20"/>
<path d="M3.73492 1.65494C3.73492 1.97494 4.00492 2.24494 4.32492 2.24494C4.64492 2.24494 4.91492 1.97494 4.91492 1.65494C4.91492 1.33494 4.65492 1.06494 4.32492 1.06494C3.99492 1.06494 3.74492 1.33494 3.73492 1.65494Z" fill="#231F20"/>
<path d="M6.43492 1.65494C6.43492 1.97494 6.69492 2.24494 7.01492 2.24494C7.33492 2.24494 7.60492 1.97494 7.60492 1.65494C7.60492 1.33494 7.34492 1.06494 7.01492 1.06494C6.68492 1.06494 6.43492 1.33494 6.43492 1.65494Z" fill="#231F20"/>
<path d="M9.08492 1.65494C9.08492 1.97494 9.34492 2.24494 9.67492 2.24494C10.0049 2.24494 10.2549 1.97494 10.2549 1.65494C10.2549 1.33494 9.99492 1.06494 9.67492 1.06494C9.35492 1.06494 9.08492 1.33494 9.08492 1.65494Z" fill="#231F20"/>
<path d="M11.7349 1.67494C11.7349 1.99494 12.0049 2.26494 12.3249 2.26494C12.6449 2.26494 12.9149 1.99494 12.9149 1.67494C12.9149 1.35494 12.6449 1.08494 12.3249 1.08494C12.0049 1.08494 11.7349 1.35494 11.7349 1.67494Z" fill="#231F20"/>
<path d="M6.43492 6.95494C6.43492 7.28494 6.69492 7.54494 7.01492 7.54494C7.33492 7.54494 7.60492 7.28494 7.60492 6.95494C7.60492 6.62494 7.34492 6.37494 7.01492 6.37494C6.68492 6.37494 6.43492 6.63494 6.43492 6.95494Z" fill="#231F20"/>
<path d="M6.43492 9.67494C6.43492 9.99494 6.69492 10.2549 7.01492 10.2549C7.33492 10.2549 7.60492 9.99494 7.60492 9.67494C7.60492 9.35494 7.34492 9.08494 7.01492 9.08494C6.68492 9.08494 6.43492 9.34494 6.43492 9.67494Z" fill="#231F20"/>
<path d="M6.43492 12.3049C6.43492 12.6249 6.69492 12.8949 7.01492 12.8949C7.33492 12.8949 7.60492 12.6249 7.60492 12.3049C7.60492 11.9849 7.34492 11.7149 7.01492 11.7149C6.68492 11.7149 6.43492 11.9849 6.43492 12.3049Z" fill="#231F20"/>
<path d="M1.04492 12.3049C1.04492 12.6249 1.31492 12.8949 1.63492 12.8949C1.95492 12.8949 2.22492 12.6249 2.22492 12.3049C2.22492 11.9849 1.95492 11.7149 1.63492 11.7149C1.31492 11.7149 1.04492 11.9849 1.04492 12.3049Z" fill="#231F20"/>
<path d="M11.7349 12.3449C11.7349 12.6649 12.0049 12.9349 12.3249 12.9349C12.6449 12.9349 12.9149 12.6649 12.9149 12.3449C12.9149 12.0249 12.6449 11.7549 12.3249 11.7549C12.0049 11.7549 11.7349 12.0249 11.7349 12.3449Z" fill="#231F20"/>
<path d="M1.04492 6.95494C1.04492 7.28494 1.31492 7.54494 1.63492 7.54494C1.95492 7.54494 2.22492 7.28494 2.22492 6.95494C2.22492 6.62494 1.95492 6.37494 1.63492 6.37494C1.31492 6.37494 1.04492 6.63494 1.04492 6.95494Z" fill="#231F20"/>
<path d="M11.7149 6.95494C11.7149 7.28494 11.9849 7.54494 12.3049 7.54494C12.6249 7.54494 12.8949 7.28494 12.8949 6.95494C12.8949 6.62494 12.6249 6.37494 12.3049 6.37494C11.9849 6.37494 11.7149 6.63494 11.7149 6.95494Z" fill="#231F20"/>
<path d="M11.7149 4.26494C11.7149 4.59494 11.9849 4.85494 12.3049 4.85494C12.6249 4.85494 12.8949 4.59494 12.8949 4.26494C12.8949 3.93494 12.6249 3.67494 12.3049 3.67494C11.9849 3.67494 11.7149 3.94494 11.7149 4.26494Z" fill="#231F20"/>
<path d="M11.7749 9.69494C11.7749 10.0149 12.0449 10.2749 12.3649 10.2749C12.6849 10.2749 12.9549 10.0149 12.9549 9.69494C12.9549 9.37494 12.6849 9.10494 12.3649 9.10494C12.0449 9.10494 11.7749 9.36494 11.7749 9.69494Z" fill="#231F20"/>
<path d="M1.04492 9.65494C1.04492 9.97494 1.31492 10.2349 1.63492 10.2349C1.95492 10.2349 2.22492 9.97494 2.22492 9.65494C2.22492 9.33494 1.95492 9.06494 1.63492 9.06494C1.31492 9.06494 1.04492 9.32494 1.04492 9.65494Z" fill="#231F20"/>
<path d="M1.04492 4.30494C1.04492 4.63494 1.31492 4.89494 1.63492 4.89494C1.95492 4.89494 2.22492 4.63494 2.22492 4.30494C2.22492 3.97494 1.95492 3.71494 1.63492 3.71494C1.31492 3.71494 1.04492 3.98494 1.04492 4.30494Z" fill="#231F20"/>
<path d="M6.43492 4.26494C6.43492 4.59494 6.69492 4.85494 7.01492 4.85494C7.33492 4.85494 7.60492 4.59494 7.60492 4.26494C7.60492 3.93494 7.34492 3.67494 7.01492 3.67494C6.68492 3.67494 6.43492 3.94494 6.43492 4.26494Z" fill="#231F20"/>
<path d="M3.69492 4.30494C3.69492 4.63494 3.96492 4.89494 4.28492 4.89494C4.60492 4.89494 4.87492 4.63494 4.87492 4.30494C4.87492 3.97494 4.61492 3.71494 4.28492 3.71494C3.95492 3.71494 3.69492 3.98494 3.69492 4.30494Z" fill="#231F20"/>
<path d="M3.69492 6.95494C3.69492 7.28494 3.96492 7.54494 4.28492 7.54494C4.60492 7.54494 4.87492 7.28494 4.87492 6.95494C4.87492 6.62494 4.61492 6.37494 4.28492 6.37494C3.95492 6.37494 3.69492 6.63494 3.69492 6.95494Z" fill="#231F20"/>
<path d="M3.71492 9.65494C3.71492 9.97494 3.98492 10.2349 4.30492 10.2349C4.62492 10.2349 4.89492 9.97494 4.89492 9.65494C4.89492 9.33494 4.63492 9.06494 4.30492 9.06494C3.97492 9.06494 3.71492 9.32494 3.71492 9.65494Z" fill="#231F20"/>
<path d="M3.71492 12.3049C3.71492 12.6249 3.98492 12.8949 4.30492 12.8949C4.62492 12.8949 4.89492 12.6249 4.89492 12.3049C4.89492 11.9849 4.63492 11.7149 4.30492 11.7149C3.97492 11.7149 3.71492 11.9849 3.71492 12.3049Z" fill="#231F20"/>
<path d="M9.08492 12.3049C9.08492 12.6249 9.34492 12.8949 9.67492 12.8949C10.0049 12.8949 10.2549 12.6249 10.2549 12.3049C10.2549 11.9849 9.99492 11.7149 9.67492 11.7149C9.35492 11.7149 9.08492 11.9849 9.08492 12.3049Z" fill="#231F20"/>
<path d="M9.12492 9.67494C9.12492 9.99494 9.38492 10.2549 9.71492 10.2549C10.0449 10.2549 10.3049 9.99494 10.3049 9.67494C10.3049 9.35494 10.0349 9.08494 9.71492 9.08494C9.39492 9.08494 9.12492 9.34494 9.12492 9.67494Z" fill="#231F20"/>
<path d="M9.06492 6.95494C9.06492 7.28494 9.32492 7.54494 9.65492 7.54494C9.98492 7.54494 10.2349 7.28494 10.2349 6.95494C10.2349 6.62494 9.97492 6.37494 9.65492 6.37494C9.33492 6.37494 9.06492 6.63494 9.06492 6.95494Z" fill="#231F20"/>
<path d="M9.08492 4.26494C9.08492 4.59494 9.34492 4.85494 9.67492 4.85494C10.0049 4.85494 10.2549 4.59494 10.2549 4.26494C10.2549 3.93494 9.99492 3.67494 9.67492 3.67494C9.35492 3.67494 9.08492 3.94494 9.08492 4.26494Z" fill="#231F20"/>
</svg>
