<svg width="14" height="14" viewBox="0 0 14 14" fill="none" xmlns="http://www.w3.org/2000/svg">
<path d="M4.65 12.68L4.02 12.54C4.49 10.4 4.54 9.6 4.54 7.39C4.5 5.29 4.49 4.5 4 2.34L4.63 2.2C5.13 4.42 5.15 5.23 5.19 7.39C5.19 9.67 5.13 10.53 4.65 12.68Z" fill="#231F20"/>
<path d="M6.1 12.95L5.45 12.88C5.52 12.22 5.67 11.48 6.29 11.01C6.61 10.78 6.98 10.65 7.34 10.54C7.79 10.39 8.25 10.24 8.66 9.87C9.08 9.47 9.27 8.36 9.27 7.44C9.25 6.36 9.23 5.32 8.55 4.7C8.17 4.38 7.81 4.31 7.43 4.24C7.08 4.17 6.73 4.11 6.37 3.86C5.64 3.48 5.49 2.72 5.45 2.04L6.1 2C6.14 2.73 6.31 3.1 6.7 3.31C6.98 3.5 7.24 3.55 7.55 3.6C7.98 3.68 8.47 3.77 8.98 4.22C9.88 5.03 9.9 6.27 9.92 7.36V7.45C9.92 7.81 9.88 9.62 9.1 10.36C8.58 10.83 8.03 11.01 7.54 11.17C7.2 11.28 6.91 11.38 6.68 11.55C6.35 11.8 6.18 12.21 6.1 12.96V12.95Z" fill="#231F20"/>
</svg>
