<svg width="14" height="14" viewBox="0 0 14 14" fill="none" xmlns="http://www.w3.org/2000/svg">
<path d="M5.66502 12.825H3.22502C3.04502 12.825 2.89502 12.675 2.89502 12.495C2.89502 12.315 3.04502 12.165 3.22502 12.165H5.34502V1.87504H3.22502C3.04502 1.87504 2.89502 1.72504 2.89502 1.54504C2.89502 1.36504 3.04502 1.22504 3.22502 1.22504H5.67502C5.85502 1.22504 6.00502 1.37504 6.00502 1.55504V12.505C6.00502 12.685 5.85502 12.835 5.67502 12.835L5.66502 12.825Z" fill="#231F20"/>
<path d="M10.775 12.765H8.30502C8.12502 12.765 7.97502 12.615 7.97502 12.435V1.49504C7.97502 1.31504 8.12502 1.16504 8.30502 1.16504H10.775C10.955 1.16504 11.105 1.31504 11.105 1.49504C11.105 1.67504 10.955 1.82504 10.775 1.82504H8.62502V12.125H10.775C10.955 12.125 11.105 12.275 11.105 12.455C11.105 12.635 10.955 12.785 10.775 12.785V12.765Z" fill="#231F20"/>
</svg>
