<svg width="14" height="14" viewBox="0 0 14 14" fill="none" xmlns="http://www.w3.org/2000/svg">
<path d="M4.49989 12.015C4.26989 12.015 4.06989 11.855 4.02989 11.625L2.53989 3.13495C2.48989 2.87495 2.66989 2.63495 2.91989 2.58495C3.16989 2.54495 3.41989 2.71495 3.46989 2.97495L4.96989 11.465C5.01989 11.725 4.83989 11.965 4.58989 12.015C4.55989 12.015 4.52989 12.015 4.50989 12.015H4.49989Z" fill="#231F20"/>
<path d="M9.74989 11.805C9.74989 11.805 9.69989 11.805 9.66989 11.805C9.40989 11.765 9.23989 11.515 9.27989 11.265L10.6199 2.98495C10.6599 2.72495 10.8999 2.55495 11.1599 2.59495C11.4199 2.63495 11.5899 2.88495 11.5499 3.13495L10.2099 11.415C10.1699 11.645 9.96989 11.815 9.73989 11.815L9.74989 11.805Z" fill="#231F20"/>
<path d="M6.96989 4.78495C5.35989 4.78495 2.67989 4.46495 2.44989 3.27495C2.40989 3.20495 2.38989 3.12495 2.38989 3.04495C2.38989 1.68495 5.26989 1.32495 6.96989 1.32495C8.66989 1.32495 11.6099 1.68495 11.6099 3.05495C11.6099 4.24495 9.19989 4.79495 6.96989 4.79495V4.78495ZM3.37989 3.08495C3.54989 3.35495 4.89989 3.83495 6.97989 3.83495C9.32989 3.83495 10.5799 3.25495 10.6799 3.02495C10.5599 2.79495 9.17989 2.27495 6.97989 2.27495C4.77989 2.27495 3.60989 2.77495 3.37989 3.02495C3.37989 3.04495 3.37989 3.06495 3.37989 3.08495Z" fill="#231F20"/>
<path d="M7.00989 12.675C6.30989 12.675 4.02989 12.585 4.02989 11.435C4.02989 11.175 4.23989 10.955 4.49989 10.955C4.73989 10.955 4.92989 11.125 4.96989 11.345C5.13989 11.485 5.84989 11.715 7.00989 11.715C8.25989 11.715 9.02989 11.485 9.20989 11.335C9.24989 11.115 9.44989 10.955 9.67989 10.955C9.93989 10.955 10.1499 11.165 10.1499 11.435C10.1499 12.585 7.73989 12.675 7.00989 12.675Z" fill="#231F20"/>
</svg>
