<svg width="14" height="14" viewBox="0 0 14 14" fill="none" xmlns="http://www.w3.org/2000/svg">
<path d="M11.36 5.38489C11.23 5.38489 11.1 5.30489 11.05 5.16489C10.98 4.97489 10.93 4.78489 10.87 4.59489C10.62 3.77489 10.48 3.41489 10.08 3.41489C9.87005 3.41489 9.76005 3.71489 9.61005 4.18489C9.44005 4.72489 9.22005 5.38489 8.54005 5.38489C7.86005 5.38489 7.60005 4.74489 7.43005 4.27489C7.27005 3.82489 7.17005 3.61489 6.97005 3.61489C6.75005 3.61489 6.65005 3.83489 6.48005 4.30489C6.31005 4.75489 6.09005 5.36489 5.44005 5.36489C4.72005 5.36489 4.52005 4.70489 4.37005 4.21489C4.22005 3.72489 4.14005 3.55489 3.96005 3.55489C3.57005 3.55489 3.44005 3.80489 3.16005 4.51489C3.09005 4.69489 3.01005 4.89489 2.92005 5.08489C2.84005 5.24489 2.65005 5.31489 2.49005 5.24489C2.33005 5.16489 2.26005 4.97489 2.33005 4.81489C2.41005 4.63489 2.49005 4.44489 2.55005 4.27489C2.83005 3.60489 3.10005 2.90489 3.98005 2.90489C4.67005 2.91489 4.87005 3.56489 5.01005 4.03489C5.16005 4.54489 5.25005 4.71489 5.45005 4.71489C5.63005 4.71489 5.72005 4.51489 5.88005 4.07489C6.05005 3.60489 6.29005 2.96489 6.99005 2.96489C7.67005 2.98489 7.89005 3.60489 8.05005 4.05489C8.23005 4.56489 8.33005 4.73489 8.55005 4.73489C8.74005 4.73489 8.85005 4.43489 9.00005 3.98489C9.18005 3.44489 9.40005 2.76489 10.09 2.76489C11.02 2.76489 11.28 3.64489 11.51 4.41489C11.56 4.59489 11.62 4.77489 11.68 4.95489C11.74 5.12489 11.65 5.30489 11.48 5.36489C11.44 5.37489 11.41 5.38489 11.37 5.38489H11.36Z" fill="#231F20"/>
<path d="M11.61 11.2349H2.42005C2.24005 11.2349 2.10005 11.0949 2.09005 10.9149L2.05005 6.45489C2.05005 6.45489 2.05005 6.45489 2.05005 6.44489C2.05005 6.36489 2.08005 6.29489 2.13005 6.24489C2.13005 6.24489 2.14005 6.23489 2.15005 6.22489C2.15005 6.22489 2.16005 6.21489 2.17005 6.20489C2.23005 6.15489 2.30005 6.12489 2.38005 6.12489L11.63 6.14489C11.81 6.14489 11.95 6.28489 11.95 6.46489L11.93 10.9049C11.93 11.0849 11.78 11.2249 11.6 11.2249L11.61 11.2349ZM11.28 10.5849L11.3 6.79489L2.70005 6.77489L2.73005 10.5849H11.28Z" fill="#231F20"/>
</svg>
