<svg width="14" height="14" viewBox="0 0 14 14" fill="none" xmlns="http://www.w3.org/2000/svg">
<path d="M10.225 12.28L9.95497 12.2L9.72497 11.91L9.70497 11.65L9.71497 11.55L10.045 10.25L10.395 9.03997L8.07497 10.05H7.72497L7.39497 9.70997L7.43497 9.22997L8.31497 6.72997L8.30497 6.70997L7.15497 7.21997L5.79497 7.89997L5.40497 7.95997L5.03497 7.63997L5.05497 7.12997L5.51497 5.72997L6.16497 4.30997L6.11497 4.29997L4.88497 4.95997L3.33497 5.84997L3.15497 5.88997L2.74497 5.86997L2.43497 5.54997V5.20997L2.47497 5.04997L4.02497 2.36997H4.00497L2.57497 2.80997L1.59497 3.21997L1.34497 2.61997L2.35497 2.19997L3.95497 1.71997H4.32497L4.63497 1.96997L4.71497 2.29997L4.67497 2.53997L3.12497 5.21997L5.90497 3.66997L6.12497 3.63997L6.53497 3.71997L6.79497 3.98997L6.83497 4.28997L6.80497 4.46997L6.11497 5.96997L5.70497 7.22997L6.87497 6.63997L8.11497 6.07997L8.28497 6.04997L8.60497 6.07997L8.88497 6.31997L8.97497 6.65997L8.96497 6.85997L8.07497 9.36997L10.305 8.36997L10.525 8.34997L10.745 8.40997L10.955 8.59997L11.055 8.82997L11.075 9.04997L10.675 10.42L10.375 11.6L11.505 11.22L12.385 10.8L12.655 11.39L11.745 11.82L10.425 12.27L10.225 12.28Z" fill="#231F20"/>
</svg>
