<svg width="14" height="14" viewBox="0 0 14 14" fill="none" xmlns="http://www.w3.org/2000/svg">
<path d="M6.59281 6.54942L4.66306 12.3572L5.5646 12.6568L7.49434 6.84897L6.59281 6.54942Z" fill="#231F20"/>
<path d="M7.48661 6.54974L6.58367 6.84504L8.48291 12.6524L9.38585 12.3571L7.48661 6.54974Z" fill="#231F20"/>
<path d="M7.51265 3.04302H6.56265V6.69302H7.51265V3.04302Z" fill="#231F20"/>
<path d="M7.19559 3.4243L6.89038 4.32394L9.72187 5.28455L10.0271 4.38491L7.19559 3.4243Z" fill="#231F20"/>
<path d="M6.88915 3.42456L3.9729 4.38393L4.26978 5.28635L7.18602 4.32698L6.88915 3.42456Z" fill="#231F20"/>
<path fill-rule="evenodd" clip-rule="evenodd" d="M8.07265 2.35302L8.03265 2.03302L7.80265 1.73302L7.62265 1.55302L7.36265 1.34302H6.73265L6.43265 1.55302L6.27265 1.73302L6.04265 2.03302V2.66302L6.27265 2.96302L6.43265 3.14302L6.73265 3.35302L7.04265 3.37302L7.36265 3.35302L7.62265 3.14302L7.80265 2.96302L8.03265 2.66302L8.07265 2.35302Z" fill="#231F20"/>
</svg>
