<svg width="14" height="14" viewBox="0 0 14 14" fill="none" xmlns="http://www.w3.org/2000/svg">
<path d="M3.33807 9.7733C3.33807 9.7733 3.27807 9.7733 3.24807 9.7633C3.16807 9.7333 3.10807 9.6833 3.06807 9.6133C3.06807 9.6133 3.06807 9.5933 3.05807 9.5833C3.02807 9.5133 3.01807 9.4333 3.03807 9.3533H3.01807L5.10807 2.3833C5.12807 2.3033 5.17807 2.2433 5.23807 2.2033C5.23807 2.2033 5.28807 2.1733 5.30807 2.1633C5.35807 2.1433 5.41807 2.1433 5.47807 2.1533C5.49807 2.1533 5.51807 2.1533 5.53807 2.1733C5.59807 2.1933 5.63807 2.2333 5.67807 2.2733C5.69807 2.2933 5.70807 2.3233 5.71807 2.3433C5.71807 2.3433 5.71807 2.3633 5.72807 2.3733L7.02807 6.4633L8.35807 2.9633C8.40807 2.8333 8.53807 2.7633 8.66807 2.7533C8.80807 2.7533 8.92807 2.8533 8.96807 2.9833L10.9681 9.3433C10.9981 9.4433 10.9781 9.5533 10.9181 9.6333C10.8581 9.7133 10.7581 9.7633 10.6581 9.7633H3.33807V9.7733ZM3.76807 9.1233H10.2181L8.62807 4.0833L7.29807 7.5733C7.24807 7.7033 7.14807 7.7833 6.98807 7.7833C6.84807 7.7833 6.72807 7.6933 6.68807 7.5533L5.42807 3.5733L3.76807 9.1233Z" fill="#231F20"/>
<path d="M5.45807 11.8533C5.27807 11.8533 5.12807 11.7033 5.12807 11.5233V9.4433C5.12807 9.2633 5.27807 9.1133 5.45807 9.1133C5.63807 9.1133 5.78807 9.2633 5.78807 9.4433V11.5233C5.78807 11.7033 5.63807 11.8533 5.45807 11.8533Z" fill="#231F20"/>
<path d="M8.60807 11.8133C8.42807 11.8133 8.27807 11.6633 8.27807 11.4833V9.4033C8.27807 9.2233 8.42807 9.0733 8.60807 9.0733C8.78807 9.0733 8.93807 9.2233 8.93807 9.4033V11.4833C8.93807 11.6633 8.78807 11.8133 8.60807 11.8133Z" fill="#231F20"/>
</svg>
