<svg width="14" height="14" viewBox="0 0 14 14" fill="none" xmlns="http://www.w3.org/2000/svg">
<path d="M6.01991 7.12506C6.01991 7.63506 6.42991 8.03506 6.92991 8.03506C7.42991 8.03506 7.83991 7.63506 7.83991 7.12506C7.83991 6.61506 7.43991 6.21506 6.92991 6.21506C6.41991 6.21506 6.01991 6.62506 6.01991 7.12506Z" fill="#231F20"/>
<path d="M12.5899 12.8151H1.40991V1.18506H12.5899V12.8151ZM2.11991 12.1051H11.8799V1.89506H2.11991V12.1051Z" fill="#231F20"/>
<path d="M8.16991 5.05506C8.16991 4.24506 7.81991 3.42506 7.04991 3.42506C5.88991 3.42506 5.83991 4.78506 5.83991 5.05506H5.12991C5.12991 3.65506 5.89991 2.70506 7.04991 2.70506C8.12991 2.70506 8.88991 3.66506 8.88991 5.05506H8.16991Z" fill="#231F20"/>
<path d="M5.39991 11.0951C5.05991 11.0951 4.71991 10.9951 4.39991 10.7551C4.00991 10.4751 3.75991 10.0851 3.68991 9.63506C3.59991 9.06506 3.78991 8.40506 4.20991 7.83506L4.77991 8.25506C4.46991 8.67506 4.31991 9.14506 4.38991 9.52506C4.42991 9.79506 4.57991 10.0151 4.81991 10.1851C5.46991 10.6751 6.27991 10.2051 6.75991 9.56506L7.32991 9.99506C6.84991 10.6351 6.11991 11.0951 5.39991 11.0951Z" fill="#231F20"/>
<path d="M8.60991 11.0951C8.49991 11.0951 8.37991 11.0851 8.26991 11.0651C7.68991 10.9551 7.11991 10.5451 6.74991 9.97506L7.34991 9.59506C7.60991 10.0051 8.00991 10.2951 8.40991 10.3751C8.70991 10.4351 8.98991 10.3751 9.23991 10.1951C9.79991 9.73506 9.67991 8.83506 9.22991 8.27506L9.77991 7.82506C10.4599 8.66506 10.5999 9.98506 9.66991 10.7551C9.33991 10.9851 8.97991 11.1051 8.61991 11.1051L8.60991 11.0951Z" fill="#231F20"/>
<path d="M4.40991 8.25506C3.71991 8.04506 3.18991 7.64506 2.92991 7.12506C2.71991 6.71506 2.67991 6.25506 2.82991 5.78506C2.96991 5.31506 3.27991 4.95506 3.69991 4.74506C4.22991 4.47506 4.92991 4.46506 5.60991 4.71506L5.36991 5.38506C4.86991 5.20506 4.36991 5.20506 4.00991 5.38506C3.75991 5.51506 3.58991 5.71506 3.49991 6.00506C3.40991 6.29506 3.41991 6.56506 3.54991 6.80506C3.72991 7.14506 4.11991 7.42506 4.61991 7.58506L4.40991 8.26506V8.25506Z" fill="#231F20"/>
<path d="M9.61991 8.36506L9.33991 7.71506C9.79991 7.51506 10.8399 6.95506 10.5399 6.00506C10.2399 5.20506 9.34991 5.15506 8.60991 5.38506L8.39991 4.70506C9.70991 4.29506 10.8199 4.70506 11.2099 5.77506C11.5499 6.82506 10.9499 7.79506 9.61991 8.36506Z" fill="#231F20"/>
</svg>
