<svg width="14" height="14" viewBox="0 0 14 14" fill="none" xmlns="http://www.w3.org/2000/svg">
<path d="M6.00488 9.89497C5.82488 9.89497 5.67488 9.74497 5.67488 9.56497V4.50497C5.67488 4.32497 5.82488 4.17497 6.00488 4.17497C6.18488 4.17497 6.33488 4.32497 6.33488 4.50497V9.57497C6.33488 9.75497 6.18488 9.90497 6.00488 9.90497V9.89497Z" fill="#231F20"/>
<path d="M8.09488 9.89497C7.91488 9.89497 7.77488 9.75497 7.76488 9.57497L7.74488 4.42497C7.74488 4.24497 7.88488 4.09497 8.06488 4.09497C8.24488 4.09497 8.38488 4.23497 8.39488 4.41497L8.41488 9.56497C8.41488 9.74497 8.27488 9.89497 8.09488 9.89497Z" fill="#231F20"/>
<path d="M11.1649 7.19497H8.22488C8.04488 7.19497 7.89488 7.04497 7.89488 6.86497C7.89488 6.68497 8.04488 6.53497 8.22488 6.53497H11.1649C11.3449 6.53497 11.4949 6.68497 11.4949 6.86497C11.4949 7.04497 11.3449 7.19497 11.1649 7.19497Z" fill="#231F20"/>
<path d="M5.91488 7.19497H2.83488C2.65488 7.19497 2.50488 7.04497 2.50488 6.86497C2.50488 6.68497 2.65488 6.53497 2.83488 6.53497H5.91488C6.09488 6.53497 6.24488 6.68497 6.24488 6.86497C6.24488 7.04497 6.09488 7.19497 5.91488 7.19497Z" fill="#231F20"/>
</svg>
