<svg width="14" height="14" viewBox="0 0 14 14" fill="none" xmlns="http://www.w3.org/2000/svg">
<path fill-rule="evenodd" clip-rule="evenodd" d="M9.82997 11.12L9.80997 10.94L9.74997 10.78L9.62997 10.64L9.44997 10.57H9.07997L8.93997 10.64L8.81997 10.78L8.73997 10.94V11.3L8.81997 11.47L8.93997 11.57L9.07997 11.67H9.44997L9.62997 11.57L9.74997 11.47L9.80997 11.3L9.82997 11.12Z" fill="#231F20"/>
<path fill-rule="evenodd" clip-rule="evenodd" d="M3.32997 8.15004L3.30997 8.00004L3.22997 7.82004L3.08997 7.70004L2.94997 7.62004H2.59997L2.45997 7.70004L2.33997 7.82004L2.23997 8.00004L2.21997 8.15004L2.23997 8.33004L2.33997 8.47004L2.45997 8.61004L2.59997 8.71004L2.78997 8.73004L2.94997 8.71004L3.08997 8.61004L3.22997 8.47004L3.30997 8.33004L3.32997 8.15004Z" fill="#231F20"/>
<path fill-rule="evenodd" clip-rule="evenodd" d="M11.78 8.43004L11.76 8.27004L11.67 8.04004L11.39 7.88004L11.23 7.84004L11.05 7.88004L10.91 7.96004L10.76 8.04004L10.68 8.27004L10.66 8.43004L10.68 8.59004L10.76 8.75004L10.91 8.85004L11.05 8.98004H11.39L11.53 8.85004L11.67 8.75004L11.76 8.59004L11.78 8.43004Z" fill="#231F20"/>
<path fill-rule="evenodd" clip-rule="evenodd" d="M4.23997 4.50004L4.19997 4.34004L4.13997 4.18004L4.03997 4.03004L3.87997 3.99004L3.65997 3.93004L3.48997 3.99004L3.36997 4.03004L3.22997 4.18004L3.10997 4.50004L3.16997 4.70004L3.22997 4.87004L3.36997 4.95004L3.48997 5.05004H3.87997L4.03997 4.95004L4.13997 4.87004L4.19997 4.70004L4.23997 4.50004Z" fill="#231F20"/>
<path fill-rule="evenodd" clip-rule="evenodd" d="M7.66997 2.90004L7.64997 2.68004L7.57997 2.56004L7.45997 2.42004L7.27997 2.33004L7.11997 2.29004L6.95997 2.33004L6.76997 2.42004L6.68997 2.56004L6.56997 2.68004V3.04004L6.68997 3.18004L6.76997 3.33004L6.95997 3.41004L7.11997 3.43004L7.27997 3.41004L7.45997 3.33004L7.57997 3.18004L7.64997 3.04004L7.66997 2.90004Z" fill="#231F20"/>
<path fill-rule="evenodd" clip-rule="evenodd" d="M5.65997 11L5.57997 10.84L5.47997 10.7L5.27997 10.62L5.12997 10.57L4.94997 10.62L4.80997 10.7L4.64997 10.84L4.58997 11L4.54997 11.16L4.58997 11.32L4.64997 11.51L4.80997 11.61L4.94997 11.71H5.27997L5.47997 11.61L5.57997 11.51L5.65997 11.32V11Z" fill="#231F20"/>
<path fill-rule="evenodd" clip-rule="evenodd" d="M10.84 4.87004L10.82 4.70004L10.76 4.56004L10.62 4.42004L10.46 4.34004L10.28 4.32004L10.12 4.34004L9.94997 4.42004L9.82997 4.56004L9.74997 4.70004V5.05004L9.82997 5.19004L9.94997 5.33004L10.12 5.37004L10.28 5.43004L10.46 5.37004L10.62 5.33004L10.76 5.19004L10.82 5.05004L10.84 4.87004Z" fill="#231F20"/>
</svg>
