<svg width="14" height="14" viewBox="0 0 14 14" fill="none" xmlns="http://www.w3.org/2000/svg">
<path d="M6.88995 10.1204C4.58995 10.1204 2.22995 9.18044 1.82995 7.53044C1.79995 7.39044 1.77995 7.25044 1.76995 7.10044C1.74995 6.43044 1.98995 5.84044 2.47995 5.34044C3.35995 4.43044 5.04995 3.88044 6.99995 3.88044C9.53995 3.84044 12.16 4.95044 12.23 7.08044C12.25 7.74044 12.03 8.31044 11.57 8.78044C10.4 9.99044 8.01995 10.1204 7.03995 10.1204C6.98995 10.1204 6.93995 10.1204 6.88995 10.1204ZM2.41995 7.09044C2.47995 8.61044 4.85995 9.52044 7.01995 9.47044C8.86995 9.47044 10.39 9.04044 11.09 8.33044C11.42 7.99044 11.58 7.59044 11.56 7.11044C11.51 5.41044 9.25995 4.54044 7.04995 4.54044C5.27995 4.54044 3.68995 5.01044 2.92995 5.80044C2.56995 6.17044 2.38995 6.61044 2.40995 7.09044H2.41995Z" fill="#231F20"/>
<path d="M11.9 6.77044H9.28995V7.42044H11.9V6.77044Z" fill="#231F20"/>
<path d="M4.72995 6.77044H2.07995V7.42044H4.72995V6.77044Z" fill="#231F20"/>
</svg>
