<svg width="14" height="14" viewBox="0 0 14 14" fill="none" xmlns="http://www.w3.org/2000/svg">
<path d="M12.1963 7.81494C12.1963 6.77092 11.8873 5.79923 11.3574 4.98486L9.04492 6.85498L8.82422 6.5835L8.60449 6.31104L10.9365 4.42432C9.98361 3.31882 8.574 2.61776 7 2.61768C5.61743 2.61768 4.36167 3.15905 3.43066 4.03955L5.63379 6.34131L5.38184 6.5835L5.12891 6.82471L2.9541 4.5542C2.23458 5.44586 1.80273 6.57997 1.80273 7.81494C1.80277 8.46876 1.92416 9.09416 2.14453 9.67041L4.28809 8.63525L4.44043 8.94971L4.59277 9.26514L2.43945 10.3052C2.69794 10.7774 3.02644 11.2058 3.41309 11.5747L2.92969 12.0815C1.80481 11.0082 1.10359 9.49312 1.10352 7.81494C1.10352 4.55834 3.7434 1.91846 7 1.91846C10.2565 1.91861 12.8965 4.55844 12.8965 7.81494C12.8964 9.42751 12.248 10.8895 11.1992 11.9536L10.9502 11.7075L10.7012 11.4624C10.9332 11.2269 11.1422 10.9689 11.3262 10.6929L8.91406 9.25049L9.09375 8.94971L9.27344 8.6499L11.6738 10.0854C12.0078 9.39936 12.1962 8.62943 12.1963 7.81494Z" fill="black"/>
</svg>
