<svg width="14" height="14" viewBox="0 0 14 14" fill="none" xmlns="http://www.w3.org/2000/svg">
<g clip-path="url(#clip0_2089_295)">
<path d="M4.50329 9.78893C4.42329 9.78893 4.33329 9.75893 4.27329 9.69893C4.14329 9.56893 4.14329 9.36893 4.27329 9.23893L5.69329 7.79893C5.82329 7.66893 6.02329 7.66893 6.15329 7.79893C6.28329 7.92893 6.28329 8.12893 6.15329 8.25893L4.73329 9.69893C4.67329 9.75893 4.58329 9.79893 4.50329 9.79893V9.78893Z" fill="#231F20"/>
<path d="M8.00329 6.21893C7.92329 6.21893 7.83329 6.18893 7.77329 6.11893C7.64329 5.98893 7.64329 5.78893 7.77329 5.65893L9.13329 4.29893C9.26329 4.16893 9.46329 4.16893 9.59329 4.29893C9.72329 4.42893 9.72329 4.62893 9.59329 4.75893L8.23329 6.11893C8.17329 6.17893 8.08329 6.21893 8.00329 6.21893Z" fill="#231F20"/>
<path d="M11.5233 2.75893C11.4433 2.75893 11.3533 2.72893 11.2933 2.65893C11.1633 2.52893 11.1633 2.32893 11.2933 2.19893L12.4533 1.05893C12.5833 0.928926 12.7833 0.928926 12.9133 1.05893C13.0433 1.18893 13.0433 1.38893 12.9133 1.51893L11.7533 2.66893C11.6933 2.72893 11.6033 2.75893 11.5233 2.75893Z" fill="#231F20"/>
<path d="M1.31329 13.0389C1.23329 13.0389 1.14329 13.0089 1.08329 12.9389C0.953289 12.8089 0.963289 12.6089 1.08329 12.4789L2.23329 11.3489C2.36329 11.2189 2.56329 11.2189 2.69329 11.3489C2.82329 11.4789 2.81329 11.6789 2.69329 11.8089L1.54329 12.9389C1.48329 12.9989 1.39329 13.0289 1.31329 13.0289V13.0389Z" fill="#231F20"/>
<path d="M6.97329 8.86893C5.87329 8.86893 5.00329 8.00893 5.00329 6.90893C5.00329 5.80893 5.88329 4.94893 6.97329 4.94893C8.06329 4.94893 8.93329 5.82893 8.93329 6.90893C8.93329 7.98893 8.07329 8.86893 6.97329 8.86893ZM6.97329 5.58893C6.24329 5.58893 5.66329 6.17893 5.66329 6.89893C5.66329 7.61893 6.24329 8.20893 6.97329 8.20893C7.70329 8.20893 8.28329 7.62893 8.28329 6.89893C8.28329 6.16893 7.69329 5.58893 6.97329 5.58893Z" fill="#231F20"/>
<path d="M10.3733 5.42893C9.29329 5.42893 8.40329 4.54893 8.40329 3.45893C8.40329 2.36893 9.28329 1.49893 10.3733 1.49893C11.4633 1.49893 12.3433 2.37893 12.3433 3.45893C12.3433 4.53893 11.4633 5.42893 10.3733 5.42893ZM10.3733 2.14893C9.64329 2.14893 9.06329 2.73893 9.06329 3.45893C9.06329 4.17893 9.65329 4.77893 10.3733 4.77893C11.0933 4.77893 11.6833 4.18893 11.6833 3.45893C11.6833 2.72893 11.0933 2.14893 10.3733 2.14893Z" fill="#231F20"/>
<path d="M3.51329 12.4589C2.43329 12.4589 1.54329 11.5789 1.54329 10.4989C1.54329 9.41893 2.42329 8.53893 3.51329 8.53893C4.60329 8.53893 5.47329 9.41893 5.47329 10.4989C5.47329 11.5789 4.59329 12.4589 3.51329 12.4589ZM3.51329 9.17893C2.78329 9.17893 2.20329 9.76893 2.20329 10.4889C2.20329 11.2089 2.79329 11.7989 3.51329 11.7989C4.23329 11.7989 4.82329 11.2089 4.82329 10.4889C4.82329 9.76893 4.23329 9.17893 3.51329 9.17893Z" fill="#231F20"/>
</g>
<defs>
<clipPath id="clip0_2089_295">
<rect width="14" height="14" fill="white"/>
</clipPath>
</defs>
</svg>
