<svg width="14" height="14" viewBox="0 0 14 14" fill="none" xmlns="http://www.w3.org/2000/svg">
<path d="M7.0827 10.2419C4.8427 10.2419 2.5327 9.33194 2.0827 7.74194C2.0427 7.58194 2.0127 7.41194 2.0027 7.24194C1.9727 6.58194 2.1927 5.98194 2.6727 5.48194C3.5627 4.54194 5.3027 3.96194 7.3027 4.00194C9.8127 4.00194 12.3727 5.09194 12.4327 7.20194C12.4527 7.86194 12.2327 8.44194 11.7727 8.91194C10.6027 10.1219 8.2027 10.2519 7.2327 10.2519C7.1827 10.2519 7.1327 10.2519 7.0827 10.2519V10.2419ZM2.6527 7.22194C2.7127 8.66194 4.9727 9.59194 7.0927 9.59194C7.1327 9.59194 7.1827 9.59194 7.2227 9.59194C9.1227 9.59194 10.6027 9.17194 11.3127 8.45194C11.6427 8.11194 11.8027 7.70194 11.7927 7.21194C11.7427 5.50194 9.4527 4.62194 7.2427 4.65194C5.4627 4.65194 3.9027 5.14194 3.1627 5.92194C2.8127 6.29194 2.6427 6.72194 2.6727 7.21194V7.22194H2.6527Z" fill="#231F20"/>
</svg>
