<svg width="14" height="14" viewBox="0 0 14 14" fill="none" xmlns="http://www.w3.org/2000/svg">
<path d="M9.94505 11.335L9.85505 11.325L9.53505 11.255L9.30505 11.065L9.15505 10.635L9.31505 8.78504L9.27505 8.68504L8.57505 8.95504L7.72505 9.07504H7.63505L7.26505 9.01504L6.98505 8.71504L6.96505 8.38504L6.98505 7.58504L7.06505 6.79504L6.99505 6.63504L6.90505 6.58504L6.27505 6.72504L5.19505 7.08504L4.86505 7.04504L4.58505 6.78504L4.52505 6.46504L4.46505 5.66504L4.37505 5.36504L4.09505 5.00504L4.59505 4.60504L4.97505 5.11504L5.09505 5.54504L5.19505 6.43504L6.09505 6.10504L6.88505 5.92504L7.10505 5.95504L7.40505 6.12504L7.55505 6.28504L7.71505 6.77504L7.63505 7.62504L7.61505 8.37504L7.62505 8.41504L7.68505 8.42504L8.41505 8.33504L9.12505 8.04504L9.30505 8.02504L9.60505 8.08504L9.85505 8.31504L9.96505 8.78504L9.81505 10.605L9.83505 10.655L9.94505 10.675L10.785 10.615L11.555 10.265L11.825 10.855L10.885 11.265L9.94505 11.335Z" fill="#231F20"/>
<path d="M2.97505 6.53504L2.46505 5.97504L2.30505 5.57504L2.17505 4.92504L2.21505 4.21504L2.26505 4.05504L2.61505 3.53504L3.10505 3.03504L3.74505 2.74504L4.32505 2.66504L5.09505 2.77504L5.67505 3.10504L6.08505 3.57504L6.41505 4.23504L5.83505 4.52504L5.52505 3.90504L5.23505 3.58504L4.84505 3.38504L4.29505 3.31504L3.89505 3.37504L3.44505 3.59504L3.12505 3.93504L2.85505 4.34504L2.81505 4.88504L2.92505 5.39504L3.03505 5.67504L3.43505 6.07504L2.97505 6.53504Z" fill="#231F20"/>
</svg>
