<svg width="14" height="14" viewBox="0 0 14 14" fill="none" xmlns="http://www.w3.org/2000/svg">
<path d="M7.07998 12.7451L6.11998 12.6451L5.27998 12.4551L4.44998 12.1451L3.67998 11.6451L2.89998 10.9651L2.36998 10.3551L1.87998 9.58508L1.53998 8.76508L1.33998 7.90508L1.22998 6.98508L1.32998 6.06508L1.50998 5.24508L1.91998 4.31508L2.31998 3.63508L2.98998 2.88508L3.62998 2.32508L4.38998 1.87508L5.21998 1.52508L6.12998 1.27508L7.01998 1.20508L8.07998 1.28508L8.78998 1.52508L9.55998 1.84508L10.37 2.30508L11.04 2.89508L11.66 3.59508L12.14 4.32508L12.47 5.22508L12.67 6.12508L12.77 6.93508L12.67 7.90508L12.48 8.74508L12.16 9.51508L11.69 10.3451L11.11 11.0651L10.4 11.6651L9.60998 12.1451L8.79998 12.4851L7.95998 12.6851L7.07998 12.7951V12.7451ZM7.01998 1.83508L6.22998 1.89508L5.41998 2.12508L4.66998 2.44508L3.99998 2.84508L3.43998 3.34508L2.83998 4.00508L2.49998 4.60508L2.12998 5.44508L1.96998 6.17508L1.86998 6.99508L1.96998 7.81508L2.13998 8.59508L2.42998 9.31508L2.85998 9.99508L3.31998 10.5351L4.02998 11.1551L4.70998 11.5951L5.43998 11.8651L6.20998 12.0351L7.06998 12.1251L7.84998 12.0251L8.60998 11.8551L9.32998 11.5551L10.04 11.1251L10.66 10.6051L11.16 9.97508L11.58 9.22508L11.86 8.55508L12.02 7.80508L12.11 6.98508L12.01 6.21508L11.84 5.41508L11.55 4.62508L11.13 4.00508L10.57 3.37508L9.97998 2.85508L9.25998 2.45508L8.54998 2.16508L7.89998 1.94508L7.00998 1.88508L7.01998 1.83508Z" fill="#231F20"/>
<path d="M2.37998 10.1351L2.09998 9.65508L6.75998 1.35508H7.32998L11.92 9.65508L11.64 10.1351H2.37998ZM2.93998 9.48508H11.08L7.03998 2.17508L2.93998 9.48508Z" fill="#231F20"/>
</svg>
