<svg width="14" height="14" viewBox="0 0 14 14" fill="none" xmlns="http://www.w3.org/2000/svg">
<g clip-path="url(#clip0_2090_376)">
<path d="M12.8629 0.6521L0.676758 12.8894L1.13734 13.348L13.3235 1.11076L12.8629 0.6521Z" fill="#231F20"/>
<path d="M2.01831 8.62913L1.54987 9.07976L4.84986 12.5102L5.3183 12.0595L2.01831 8.62913Z" fill="#231F20"/>
<path d="M5.52085 5.16403L5.05851 5.62091L8.46054 9.06356L8.92288 8.60668L5.52085 5.16403Z" fill="#231F20"/>
<path d="M9.36471 1.63874L8.91638 2.10937L12.0732 5.11667L12.5216 4.64603L9.36471 1.63874Z" fill="#231F20"/>
<path d="M7.01106 10.6347C6.17106 10.6347 5.33106 10.3447 4.64106 9.75469C3.13106 8.41469 2.97106 6.15469 4.28106 4.62469C5.60106 3.11469 7.90106 2.96469 9.42106 4.26469C10.9111 5.57469 11.0711 7.86469 9.78106 9.38469C9.05106 10.2147 8.04106 10.6447 7.03106 10.6447L7.01106 10.6347ZM5.07106 9.26469C6.33106 10.3347 8.18106 10.1947 9.28106 8.95469C10.3411 7.71469 10.2111 5.82469 8.99106 4.75469C7.74106 3.68469 5.85106 3.80469 4.77106 5.04469C3.72106 6.28469 3.82106 8.08469 4.99106 9.20469C5.01106 9.22469 5.04106 9.25469 5.07106 9.27469V9.26469Z" fill="#231F20"/>
</g>
<defs>
<clipPath id="clip0_2090_376">
<rect width="14" height="14" fill="white"/>
</clipPath>
</defs>
</svg>
