<svg width="14" height="14" viewBox="0 0 14 14" fill="none" xmlns="http://www.w3.org/2000/svg">
<path d="M5.35057 1L4.89272 1.46138L12.5232 9.03354L12.9811 8.57215L5.35057 1Z" fill="#231F20"/>
<path d="M1.45608 4.72532L1 5.18846L8.78068 12.8505L9.23675 12.3874L1.45608 4.72532Z" fill="#231F20"/>
<path fill-rule="evenodd" clip-rule="evenodd" d="M4.25769 3.13105L4.19769 2.89105L4.07769 2.61105L3.87769 2.38105L3.58769 2.26105L3.32769 2.22105L3.02769 2.26105L2.75769 2.38105L2.55769 2.61105L2.43769 2.89105L2.39769 3.13105L2.43769 3.48105L2.55769 3.70105L2.75769 3.92105L3.02769 4.06105L3.32769 4.08105L3.58769 4.06105L3.87769 3.92105L4.07769 3.70105L4.19769 3.48105L4.25769 3.13105Z" fill="#231F20"/>
<path fill-rule="evenodd" clip-rule="evenodd" d="M11.6477 10.1211L11.6077 9.83105L11.4677 9.55105L11.2877 9.35105L10.9977 9.23105L10.7177 9.19105L10.4377 9.23105L10.1477 9.35105L9.96769 9.55105L9.82769 9.83105L9.76769 10.1211L9.82769 10.4011L9.96769 10.6611L10.1477 10.8911L10.4377 10.9911L10.7177 11.0511L10.9977 10.9911L11.2877 10.8911L11.4677 10.6611L11.6077 10.4011L11.6477 10.1211Z" fill="#231F20"/>
<path fill-rule="evenodd" clip-rule="evenodd" d="M7.96769 6.72105L7.85769 6.41105L7.79769 6.15105L7.57769 5.97105L7.27769 5.82105L7.04769 5.78105L6.74769 5.82105L6.48769 5.97105L6.28769 6.15105L6.15769 6.41105L6.05769 6.72105L6.15769 6.98105L6.28769 7.24105L6.48769 7.48105L6.74769 7.59105L7.04769 7.63105L7.27769 7.59105L7.57769 7.48105L7.79769 7.24105L7.85769 6.98105L7.96769 6.72105Z" fill="#231F20"/>
<path fill-rule="evenodd" clip-rule="evenodd" d="M9.76769 8.40105L9.72769 8.13105L9.60769 7.87105L9.39769 7.65105L9.11769 7.53105L8.85769 7.51105L8.56769 7.53105L8.28769 7.65105L8.10769 7.87105L7.96769 8.13105L7.85769 8.40105L7.96769 8.68105L8.10769 8.96105L8.28769 9.19105L8.56769 9.33105L8.85769 9.35105L9.11769 9.33105L9.39769 9.19105L9.60769 8.96105L9.72769 8.68105L9.76769 8.40105Z" fill="#231F20"/>
<path fill-rule="evenodd" clip-rule="evenodd" d="M6.03769 4.95105L5.97769 4.67105L5.89769 4.41105L5.67769 4.20105L5.34769 4.06105L5.12769 4.04105L4.84769 4.06105L4.55769 4.20105L4.35769 4.41105L4.19769 4.67105L4.13769 4.95105L4.19769 5.24105L4.35769 5.52105L4.55769 5.70105L4.84769 5.84105L5.12769 5.91105L5.34769 5.84105L5.67769 5.70105L5.89769 5.52105L5.97769 5.24105L6.03769 4.95105Z" fill="#231F20"/>
</svg>
