<svg width="14" height="14" viewBox="0 0 14 14" fill="none" xmlns="http://www.w3.org/2000/svg">
<path d="M9.29826 10.8377L9.07826 10.7777L8.83826 10.4577V10.2677L9.08826 9.20765L9.30826 8.44765L7.67826 9.18765H7.41826L7.09826 8.85765L7.10826 8.44765L7.40826 7.53765L7.73826 6.72765L7.00826 7.00765L6.08826 7.48765L5.77826 7.58765L5.35826 7.27765L5.36826 6.88765L5.72826 5.81765L6.12826 4.88765L4.15826 6.00765L3.99826 6.04765H3.68826L3.36826 5.71765V5.44765L3.40826 5.28765L4.50826 3.44765L3.60826 3.73765L2.86826 4.04765L2.61826 3.44765L3.38826 3.12765L4.60826 2.74765H4.88826L5.20826 2.99765L5.26826 3.25765L5.22826 3.49765L4.19826 5.23765L6.02826 4.19765L6.26826 4.16765L6.58826 4.24765L6.82826 4.52765L6.84826 4.75765L6.82826 4.91765L6.33826 6.04765L6.09826 6.75765L6.73826 6.41765L7.87826 6.00765L8.07826 6.02765L8.35826 6.25765L8.43826 6.53765L8.42826 6.75765L8.01826 7.75765L7.79826 8.43765L9.30826 7.73765L9.52826 7.71765L9.73826 7.77765L9.95826 7.97765L10.0183 8.13765V8.34765L9.70826 9.37765L9.52826 10.1177L10.2483 9.86765L10.8783 9.55765L11.1583 10.1377L10.4983 10.4677L9.48826 10.8277L9.29826 10.8377Z" fill="#231F20"/>
<path d="M5.18837 1.46606L4.71477 1.91127L6.29696 3.59436L6.77055 3.14915L5.18837 1.46606Z" fill="#231F20"/>
<path d="M1.81878 4.5591L1.35645 5.01598L3.05746 6.73731L3.5198 6.28042L1.81878 4.5591Z" fill="#231F20"/>
<path d="M7.1817 3.53691L6.73263 4.00684L9.4293 6.58383L9.87837 6.1139L7.1817 3.53691Z" fill="#231F20"/>
<path d="M10.5202 6.78545L10.0595 7.24402L12.1831 9.37724L12.6437 8.91866L10.5202 6.78545Z" fill="#231F20"/>
<path d="M4.0829 6.84193L3.62408 7.30236L6.41494 10.0835L6.87376 9.62307L4.0829 6.84193Z" fill="#231F20"/>
<path d="M7.58576 10.3855L7.13431 10.8532L8.87541 12.534L9.32686 12.0663L7.58576 10.3855Z" fill="#231F20"/>
</svg>
