<svg width="14" height="14" viewBox="0 0 14 14" fill="none" xmlns="http://www.w3.org/2000/svg">
<path d="M2.19511 12.2751L1.73511 11.8151L11.8051 1.7251L12.2651 2.1851L2.19511 12.2751Z" fill="#231F20"/>
<path fill-rule="evenodd" clip-rule="evenodd" d="M8.38511 7.0351L8.26511 6.6351L8.10511 6.2451L7.79511 5.9451L7.41511 5.7251L7.00511 5.6651L6.58511 5.7251L6.23511 5.9451L5.89511 6.2451L5.73511 6.6351L5.67511 7.0351L5.73511 7.4251L5.89511 7.8051L6.23511 8.1551L6.58511 8.3151L7.00511 8.3751L7.41511 8.3151L7.79511 8.1551L8.10511 7.8051L8.26511 7.4251L8.38511 7.0351Z" fill="#231F20"/>
<path fill-rule="evenodd" clip-rule="evenodd" d="M11.7651 3.9251L11.7051 3.4751L11.5451 3.0951L11.2451 2.7851L10.8351 2.6051L10.4151 2.5051L9.96511 2.6051L9.58511 2.7851L9.29511 3.0951L9.09511 3.4751L9.01511 3.9251L9.09511 4.3251L9.29511 4.7151L9.58511 5.0351L9.96511 5.1951L10.4151 5.2351L10.8351 5.1951L11.2451 5.0351L11.5451 4.7151L11.7051 4.3251L11.7651 3.9251Z" fill="#231F20"/>
<path fill-rule="evenodd" clip-rule="evenodd" d="M4.86511 10.3851L4.80511 9.9551L4.66511 9.5751L4.35511 9.2451L3.93511 9.0651L3.54511 8.9651L3.10511 9.0651L2.71511 9.2451L2.39511 9.5751L2.23511 9.9551L2.12511 10.3851L2.23511 10.7851L2.39511 11.2151L2.71511 11.4951L3.10511 11.6551L3.54511 11.7551L3.93511 11.6551L4.35511 11.4951L4.66511 11.2151L4.80511 10.7851L4.86511 10.3851Z" fill="#231F20"/>
</svg>
