<svg width="14" height="14" viewBox="0 0 14 14" fill="none" xmlns="http://www.w3.org/2000/svg">
<g clip-path="url(#clip0_2089_105)">
<path d="M3.18005 11.23L2.76005 10.82L5.38005 8.17004L5.80005 8.58004L3.18005 11.23Z" fill="#231F20"/>
<path d="M7.02005 13.21C6.86005 13.21 6.73005 13.08 6.73005 12.92V1.08004C6.73005 0.920039 6.86005 0.790039 7.02005 0.790039C7.18005 0.790039 7.31005 0.920039 7.31005 1.08004V12.91C7.31005 13.07 7.18005 13.2 7.02005 13.2V13.21Z" fill="#231F20"/>
<path d="M12.91 7.27004H1.09005C0.930049 7.27004 0.800049 7.14004 0.800049 6.98004C0.800049 6.82004 0.930049 6.69004 1.09005 6.69004H12.91C13.07 6.69004 13.2 6.82004 13.2 6.98004C13.2 7.14004 13.07 7.27004 12.91 7.27004Z" fill="#231F20"/>
<path d="M2.95005 11.34C2.87005 11.34 2.80005 11.31 2.74005 11.25C2.62005 11.13 2.62005 10.95 2.74005 10.83L10.83 2.76004C10.95 2.64004 11.13 2.64004 11.25 2.76004C11.37 2.88004 11.37 3.06004 11.25 3.18004L3.16005 11.25C3.10005 11.31 3.03005 11.34 2.95005 11.34Z" fill="#231F20"/>
<path d="M5.79005 7.02004C5.79005 7.71004 6.33005 8.26004 7.02005 8.26004C7.71005 8.26004 8.26005 7.71004 8.26005 7.02004C8.26005 6.33004 7.71005 5.79004 7.02005 5.79004C6.33005 5.79004 5.79005 6.34004 5.79005 7.02004Z" fill="#231F20"/>
<path d="M11.03 11.34C10.95 11.34 10.88 11.31 10.82 11.25L2.75005 3.17004C2.63005 3.05004 2.63005 2.87004 2.75005 2.75004C2.87005 2.63004 3.05005 2.63004 3.17005 2.75004L11.25 10.83C11.37 10.95 11.37 11.13 11.25 11.25C11.19 11.31 11.12 11.34 11.04 11.34H11.03Z" fill="#231F20"/>
</g>
<defs>
<clipPath id="clip0_2089_105">
<rect width="14" height="14" fill="white"/>
</clipPath>
</defs>
</svg>
