<svg width="14" height="14" viewBox="0 0 14 14" fill="none" xmlns="http://www.w3.org/2000/svg">
<path d="M2.61 12.58L2 12.36L2.5 10.99L2.88 9.07L3.03 6.84L2.87 4.71L2.49 2.69L2.08 1.55L2.69 1.33L3.11 2.52L3.51 4.62L3.68 6.84L3.52 9.15L3.12 11.17L2.61 12.58Z" fill="#231F20"/>
<path d="M3.92 1L4.43 2.38L5.07 4.9L5.23 5.11L6.61 5.17L8.4 5.29L10.21 5.37L11.67 5.73L12.61 6.27L12.91 6.67L12.93 7.02L12.63 7.57L12.48 7.71L11.65 8.09L10.26 8.38L5.43 8.55L5.28 8.71L5.11 9.56L4.66 11.3L4.15 12.74L3.54 12.52L4.04 11.11L4.48 9.42L4.66 8.5L4.74 8.34L5.04 8.02L5.24 7.92L5.67 7.88H6.66L10.18 7.74L11.45 7.47L12.11 7.16L12.26 6.89L12.13 6.71L11.4 6.32L10.12 6.01L8.36 5.94L5.04 5.76L4.79 5.62L4.46 5.12L3.81 2.57L3.31 1.22L3.92 1Z" fill="#231F20"/>
</svg>
