<svg width="14" height="14" viewBox="0 0 14 14" fill="none" xmlns="http://www.w3.org/2000/svg">
<path d="M11.0299 3.00006L2.9699 2.96006C2.7899 2.96006 2.6499 2.81006 2.6499 2.63006C2.6499 2.45006 2.7999 2.31006 2.9799 2.31006L11.0299 2.35006C11.2099 2.35006 11.3499 2.50006 11.3499 2.68006C11.3499 2.86006 11.1999 3.00006 11.0199 3.00006H11.0299Z" fill="#231F20"/>
<path d="M4.2899 11.6901C4.1099 11.6901 3.9699 11.5401 3.9599 11.3701L3.9399 2.64006C3.9399 2.46006 4.0799 2.31006 4.2599 2.31006C4.4399 2.31006 4.5799 2.46006 4.5899 2.63006L4.6099 11.3601C4.6099 11.5401 4.4699 11.6901 4.2899 11.6901Z" fill="#231F20"/>
<path d="M9.5999 11.6701C9.4199 11.6701 9.2699 11.5201 9.2699 11.3401V2.73006C9.2699 2.55006 9.4199 2.40006 9.5999 2.40006C9.7799 2.40006 9.9299 2.55006 9.9299 2.73006V11.3401C9.9299 11.5201 9.7799 11.6701 9.5999 11.6701Z" fill="#231F20"/>
</svg>
