<svg width="14" height="14" viewBox="0 0 14 14" fill="none" xmlns="http://www.w3.org/2000/svg">
<path d="M6.98007 10.915L5.74007 10.705L4.64007 10.165L3.77007 9.26495L3.25007 8.15495L3.07007 7.00495V6.90495L3.28007 5.72495L3.83007 4.64495L4.73007 3.74495L5.84007 3.23495L6.99007 3.07495H7.08007L8.28007 3.26495L9.36007 3.80495L10.2501 4.72495L10.7701 5.82495L10.9301 7.00495L10.7401 8.25495L10.1801 9.36495L9.26007 10.235L8.18007 10.745L6.98007 10.925V10.915ZM5.98007 10.105L7.03007 10.265L8.03007 10.105L8.93007 9.66495L9.68007 8.93495L10.1201 8.01495L10.2701 6.96495L10.1201 5.97495L9.68007 5.06495L8.93007 4.31495L8.03007 3.88495L7.03007 3.73495L5.98007 3.88495L5.07007 4.31495L4.34007 5.06495L3.89007 5.97495L3.73007 6.96495L3.89007 8.01495L4.34007 8.94495L5.07007 9.67495L5.99007 10.115L5.98007 10.105Z" fill="#231F20"/>
<path fill-rule="evenodd" clip-rule="evenodd" d="M7.78007 6.95495L7.74007 6.73495L7.64007 6.54495L7.44007 6.34495L7.26007 6.24495L7.03007 6.20495L6.75007 6.24495L6.59007 6.34495L6.35007 6.54495L6.26007 6.73495V7.23495L6.35007 7.39495L6.59007 7.64495L6.75007 7.72495H7.26007L7.44007 7.64495L7.64007 7.39495L7.74007 7.23495L7.78007 6.95495Z" fill="#231F20"/>
</svg>
