<svg width="14" height="14" viewBox="0 0 14 14" fill="none" xmlns="http://www.w3.org/2000/svg">
<path d="M3.31808 2.99598L2.86144 3.45855L10.5331 11.0318L10.9898 10.5692L3.31808 2.99598Z" fill="#231F20"/>
<path d="M10.4505 3.11952L3.21613 10.6188L3.68393 11.0701L10.9183 3.57081L10.4505 3.11952Z" fill="#231F20"/>
<path d="M7.07998 12.7651L6.11998 12.6651L5.27998 12.4751L4.43998 12.1651L3.66998 11.6651L2.88998 10.9851L2.35998 10.3751L1.86998 9.6051L1.52998 8.7851L1.32998 7.9251L1.22998 7.0051L1.32998 6.0851L1.51998 5.2651L1.92998 4.3351L2.32998 3.6551L2.99998 2.9051L3.63998 2.3451L4.39998 1.8951L5.22998 1.5551L6.12998 1.2951L7.02998 1.2251L8.08998 1.3051L9.55998 1.8551L10.36 2.3151L11.04 2.9051L11.66 3.6051L12.13 4.3351L12.47 5.2251L12.67 6.1251L12.77 6.9351L12.67 7.9051L12.48 8.7451L12.15 9.5151L11.7 10.3351L11.12 11.0651L10.4 11.6551L9.62998 12.1251L8.81998 12.4651L7.97998 12.6651L7.09998 12.7751L7.07998 12.7651ZM7.01998 1.8551L6.22998 1.9151L5.42998 2.1551L4.66998 2.4651L3.99998 2.8651L3.43998 3.3651L2.83998 4.0251L2.49998 4.6251L2.12998 5.4651L1.96998 6.1951L1.87998 7.0151L1.97998 7.8351L2.14998 8.6151L2.43998 9.3351L2.86998 10.0151L3.32998 10.5551L4.03998 11.1751L4.71998 11.6151L5.44998 11.8851L6.20998 12.0551L7.06998 12.1451L7.84998 12.0451L8.60998 11.8751L9.32998 11.5751L10.03 11.1451L10.67 10.6251L11.17 9.9851L11.58 9.2351L11.88 8.5551L12.04 7.8051L12.13 6.9851L12.03 6.2151L11.86 5.4151L11.56 4.6251L11.15 3.9951L10.59 3.3651L9.98998 2.8451L9.27998 2.4451L7.91998 1.9351L7.02998 1.8751L7.01998 1.8551Z" fill="#231F20"/>
</svg>
