<svg width="14" height="14" viewBox="0 0 14 14" fill="none" xmlns="http://www.w3.org/2000/svg">
<path d="M7.47 7.02L5.18 6.88L3.11 6.45L1.37 5.79L1 5.53L1.37 5L1.71 5.24L3.29 5.83L5.26 6.24L7.47 6.37L9.72 6.23L11.69 5.82L13.21 5.24L13.46 5.02L13.89 5.51L13.49 5.83L11.87 6.44L9.8 6.87L7.47 7.02Z" fill="#231F20"/>
<path d="M8.67426 6.53963L8.02811 6.61028L8.3281 9.35393L8.97425 9.28328L8.67426 6.53963Z" fill="#231F20"/>
<path d="M5.11889 6.52304L4.59818 9.36575L5.23755 9.48286L5.75825 6.64016L5.11889 6.52304Z" fill="#231F20"/>
<path d="M11.804 6.19491L11.1858 6.39577L11.7049 7.99355L12.3231 7.79269L11.804 6.19491Z" fill="#231F20"/>
<path d="M2.40144 5.96392L1.76927 7.78745L2.38341 8.00036L3.01558 6.17683L2.40144 5.96392Z" fill="#231F20"/>
</svg>
