<svg width="14" height="14" viewBox="0 0 14 14" fill="none" xmlns="http://www.w3.org/2000/svg">
<path d="M6.82999 10.6949L6.19999 10.6249L5.80999 10.4349L5.25999 10.0449L5.04999 9.72493L4.88999 9.36493L4.78999 8.94493L4.77999 8.28493H5.42999V8.87493L5.49999 9.16493L5.76999 9.63493L6.13999 9.87493L6.42999 10.0149L6.82999 10.0549L7.10999 10.0349L7.42999 9.93493L7.68999 9.77493L7.90999 9.54493L8.08999 9.29493L8.17999 8.98493L8.19999 8.31493L8.84999 8.33493L8.81999 9.12493L8.64999 9.62493L8.40999 9.95493L8.05999 10.3049L7.67999 10.5249L7.20999 10.6649L6.82999 10.6949Z" fill="#231F20"/>
<path d="M9.90999 5.91493L9.43999 5.83493L8.91999 5.62493L8.52999 5.32493L8.12999 4.85493L7.96999 4.13493L7.95999 3.46493H8.60999V4.07493L8.73999 4.60493L8.95999 4.84493L9.27999 5.07493L9.60999 5.21493L9.94999 5.26493L10.57 5.14493L10.9 4.93493L11.27 4.47493L11.36 4.18493V3.50493H12.01L12 4.33493L11.83 4.81493L11.61 5.11493L11.31 5.43493L10.75 5.77493L9.90999 5.91493Z" fill="#231F20"/>
<path d="M4.02999 5.71493L3.45999 5.64493L2.96999 5.46493L2.53999 5.14493L2.16999 4.70493L2.04999 4.33493L1.98999 3.93493V3.30493H2.63999L2.67999 4.19493L2.75999 4.43493L2.96999 4.66493L3.31999 4.91493L3.60999 5.01493L4.03999 5.07493L4.27999 5.04493L4.63999 4.94493L4.89999 4.78493L5.29999 4.30493L5.38999 4.02493V3.34493H6.03999L6.02999 4.17493L5.85999 4.64493L5.62999 4.95493L5.26999 5.32493L4.84999 5.55493L4.39999 5.68493L4.02999 5.71493Z" fill="#231F20"/>
</svg>
