<svg width="14" height="14" viewBox="0 0 14 14" fill="none" xmlns="http://www.w3.org/2000/svg">
<path fill-rule="evenodd" clip-rule="evenodd" d="M11.0899 10.3701L11.0699 10.2101L10.9899 10.0501L10.8499 9.93006L10.7099 9.84006L10.5499 9.82006L10.3599 9.84006L10.2199 9.93006L10.0799 10.0501L10.0399 10.2101L9.97991 10.3701L10.0399 10.5501L10.0799 10.7001L10.2199 10.8201L10.3599 10.9201L10.5499 10.9401L10.7099 10.9201L10.8499 10.8201L10.9899 10.7001L11.0699 10.5501L11.0899 10.3701Z" fill="#231F20"/>
<path fill-rule="evenodd" clip-rule="evenodd" d="M4.00991 3.63006L3.96991 3.47006L3.90991 3.28006L3.77991 3.18006L3.63991 3.08006L3.47991 3.06006L3.25991 3.08006L3.13991 3.18006L2.96991 3.28006L2.92991 3.47006L2.90991 3.63006L2.92991 3.81006L2.96991 3.97006L3.13991 4.07006L3.25991 4.20006H3.63991L3.77991 4.07006L3.90991 3.97006L3.96991 3.81006L4.00991 3.63006Z" fill="#231F20"/>
<path fill-rule="evenodd" clip-rule="evenodd" d="M5.70991 5.09006L5.60991 4.94006L5.50991 4.78006L5.33991 4.72006L5.13991 4.68006L4.99991 4.72006L4.81991 4.78006L4.67991 4.94006L4.56991 5.27006L4.62991 5.43006L4.67991 5.59006L4.81991 5.71006L4.99991 5.82006H5.33991L5.50991 5.71006L5.60991 5.59006L5.70991 5.43006V5.09006Z" fill="#231F20"/>
<path fill-rule="evenodd" clip-rule="evenodd" d="M7.46991 6.95006L7.44991 6.83006L7.36991 6.65006L7.24991 6.52006L7.07991 6.44006L6.93991 6.42006L6.75991 6.44006L6.61991 6.52006L6.49991 6.65006L6.41991 6.83006L6.37991 6.95006L6.41991 7.13006L6.49991 7.29006L6.61991 7.39006L6.75991 7.52006H7.07991L7.24991 7.39006L7.36991 7.29006L7.44991 7.13006L7.46991 6.95006Z" fill="#231F20"/>
<path fill-rule="evenodd" clip-rule="evenodd" d="M9.26991 8.63006L9.22991 8.45006L9.16991 8.35006L9.04991 8.18006L8.90991 8.10006L8.73991 8.06006L8.51991 8.10006L8.39991 8.18006L8.23991 8.35006L8.17991 8.45006L8.15991 8.63006L8.17991 8.83006L8.23991 8.95006L8.39991 9.12006L8.51991 9.18006L8.73991 9.22006L8.90991 9.18006L9.04991 9.12006L9.16991 8.95006L9.22991 8.83006L9.26991 8.63006Z" fill="#231F20"/>
</svg>
