<svg width="14" height="14" viewBox="0 0 14 14" fill="none" xmlns="http://www.w3.org/2000/svg">
<path d="M7.02991 12.3399L6.04991 12.2899L5.33991 12.0699L4.62991 11.7899L3.86991 11.3199L3.23991 10.7999L2.69991 10.1499L2.29991 9.56991L1.93991 8.66991L1.70991 7.82991L1.65991 6.98991L1.73991 6.18991L1.87991 5.37991L2.21991 4.58991L2.66991 3.87991L3.17991 3.27991L3.81991 2.71991L4.52991 2.27991L5.30991 1.95991L6.15991 1.72991L6.98991 1.65991L7.81991 1.77991L8.60991 1.93991L9.40991 2.29991L10.0899 2.67991L10.7199 3.22991L11.2699 3.82991L11.7099 4.54991L12.0399 5.31991L12.2199 6.12991L12.3399 6.91991L12.2799 7.75991L12.0499 8.62991L11.8099 9.28991L11.2999 10.1099L10.7599 10.7399L10.1399 11.2799L9.43991 11.7299L8.65991 12.0499L7.89991 12.2799L7.02991 12.3299V12.3399ZM6.19991 11.6499L7.02991 11.6899L7.78991 11.6499L8.43991 11.4399L9.13991 11.1599L9.74991 10.7699L10.2999 10.2899L10.7799 9.72991L11.2299 9.00991L11.4299 8.43991L11.6399 7.65991L11.6899 6.98991L11.5799 6.23991L11.4199 5.52991L11.1299 4.85991L10.7499 4.22991L10.2599 3.69991L9.70991 3.20991L9.10991 2.87991L8.39991 2.54991L6.96991 2.29991L6.27991 2.35991L5.52991 2.56991L4.83991 2.85991L4.21991 3.24991L3.64991 3.74991L3.19991 4.27991L2.79991 4.90991L2.49991 5.57991L2.37991 6.28991L2.29991 7.01991L2.33991 7.73991L2.54991 8.47991L2.85991 9.27991L3.20991 9.76991L3.68991 10.3599L4.23991 10.8099L4.90991 11.2199L5.54991 11.4599L6.19991 11.6599V11.6499Z" fill="#231F20"/>
</svg>
