<svg width="14" height="14" viewBox="0 0 14 14" fill="none" xmlns="http://www.w3.org/2000/svg">
<path d="M5.20508 12.7339C5.12508 12.7339 5.03508 12.7039 4.97508 12.6339C4.84508 12.5039 4.84508 12.3039 4.97508 12.1739L12.1751 4.97386C12.3051 4.84386 12.5051 4.84386 12.6351 4.97386C12.7651 5.10386 12.7651 5.30386 12.6351 5.43386L5.43508 12.6339C5.37508 12.6939 5.28508 12.7339 5.20508 12.7339Z" fill="#231F20"/>
<path d="M1.59508 9.13386C1.51508 9.13386 1.42508 9.10386 1.36508 9.03386C1.23508 8.90386 1.23508 8.70386 1.36508 8.57386L8.57508 1.37386C8.70508 1.24386 8.90508 1.24386 9.03508 1.37386C9.16508 1.50386 9.16508 1.70386 9.03508 1.83386L1.82508 9.03386C1.76508 9.09386 1.67508 9.13386 1.59508 9.13386Z" fill="#231F20"/>
<path d="M12.4051 9.13386C12.3251 9.13386 12.2351 9.10386 12.1751 9.03386L4.97508 1.82386C4.84508 1.69386 4.84508 1.49386 4.97508 1.36386C5.10508 1.23386 5.30508 1.23386 5.43508 1.36386L12.6351 8.57386C12.7651 8.70386 12.7651 8.90386 12.6351 9.03386C12.5751 9.09386 12.4851 9.13386 12.4051 9.13386Z" fill="#231F20"/>
<path d="M8.80508 12.7339C8.72508 12.7339 8.63508 12.7039 8.57508 12.6339L1.36508 5.43386C1.23508 5.30386 1.23508 5.10386 1.36508 4.97386C1.49508 4.84386 1.69508 4.84386 1.82508 4.97386L9.03508 12.1739C9.16508 12.3039 9.16508 12.5039 9.03508 12.6339C8.97508 12.6939 8.88508 12.7339 8.80508 12.7339Z" fill="#231F20"/>
<path d="M3.35508 10.9739C3.27508 10.9739 3.18508 10.9439 3.12508 10.8739C2.99508 10.7439 2.99508 10.5439 3.12508 10.4139L10.3751 3.17386C10.5051 3.04386 10.7051 3.04386 10.8351 3.17386C10.9651 3.30386 10.9651 3.50386 10.8351 3.63386L3.58508 10.8839C3.52508 10.9439 3.43508 10.9839 3.35508 10.9839V10.9739Z" fill="#231F20"/>
<path d="M10.5851 10.9539C10.5051 10.9539 10.4151 10.9239 10.3551 10.8539L3.16508 3.64386C3.03508 3.51386 3.03508 3.31386 3.16508 3.18386C3.29508 3.06386 3.49508 3.05386 3.62508 3.18386L10.8151 10.3939C10.9451 10.5239 10.9451 10.7239 10.8151 10.8539C10.7551 10.9139 10.6651 10.9439 10.5851 10.9439V10.9539Z" fill="#231F20"/>
</svg>
