<svg width="14" height="14" viewBox="0 0 14 14" fill="none" xmlns="http://www.w3.org/2000/svg">
<path d="M4.01491 11.395H1.11491C0.934912 11.395 0.784912 11.245 0.784912 11.065C0.784912 10.885 0.934912 10.735 1.11491 10.735H3.69491V8.22496C3.69491 8.04496 3.84491 7.89496 4.02491 7.89496H6.71491V5.47496C6.71491 5.29496 6.86491 5.14496 7.04491 5.14496H10.0049V2.91496C10.0049 2.73496 10.1549 2.58496 10.3349 2.58496H12.8849C13.0649 2.58496 13.2149 2.73496 13.2149 2.91496C13.2149 3.09496 13.0649 3.24496 12.8849 3.24496H10.6649V5.49496C10.6649 5.67496 10.5149 5.82496 10.3349 5.82496H7.37491V8.24496C7.37491 8.42496 7.22491 8.57496 7.04491 8.57496H4.35491V11.085C4.35491 11.265 4.20491 11.415 4.02491 11.415L4.01491 11.395Z" fill="#231F20"/>
</svg>
