<svg width="14" height="14" viewBox="0 0 14 14" fill="none" xmlns="http://www.w3.org/2000/svg">
<path d="M6.56509 12.075L3.93509 5.77505L4.53509 5.52505L6.86509 11.095L9.15509 5.43505L9.76509 5.67505L7.17509 12.075H6.56509Z" fill="#231F20"/>
<path d="M2.93509 4.46505L2.46509 4.01505L2.83509 3.59505L3.59509 2.45505L3.90509 2.22505L4.18509 2.11505L4.50509 2.16505L4.91509 2.52505L5.74509 3.67505L5.86509 3.52505L6.68509 2.08505L6.88509 1.94505L7.21509 1.92505L7.48509 2.06505L7.63509 2.21505L8.38509 3.73505L9.50509 2.25505L9.86509 2.00505L10.2651 2.02505L10.6051 2.36505L11.3451 3.51505L11.5351 3.67505L11.0851 4.14505L10.8551 3.92505L10.6451 3.63505L10.0251 2.68505L9.91509 2.76505L8.80509 4.23505L8.60509 4.38505L8.25509 4.40505L7.90509 4.17505L7.72509 3.91505L7.10509 2.60505L6.40509 3.88505L6.10509 4.23505L5.92509 4.36505L5.53509 4.35505L5.35509 4.20505L5.15509 3.98505L4.42509 2.95505L4.23509 2.78505L4.18509 2.80505L4.05509 2.92505L3.17509 4.21505L2.93509 4.46505Z" fill="#231F20"/>
</svg>
