<svg width="14" height="14" viewBox="0 0 14 14" fill="none" xmlns="http://www.w3.org/2000/svg">
<path d="M8.19755 5.68324C8.42538 5.56634 8.69858 5.63066 8.85282 5.82289L8.91142 5.91273L10.8714 9.73305C10.9557 9.89734 10.9481 10.094 10.8518 10.2516C10.7555 10.4089 10.5842 10.5045 10.3997 10.5045H3.59989C3.41542 10.5045 3.24407 10.4089 3.14774 10.2516C3.05149 10.0943 3.04436 9.89828 3.12821 9.73402L5.07743 5.91371L5.13602 5.82387C5.28984 5.63117 5.56315 5.56678 5.7913 5.68324C6.05164 5.81648 6.15477 6.13559 6.02177 6.39613L4.46513 9.44496H9.53251L7.96806 6.39711L7.92899 6.29652C7.86298 6.05929 7.96998 5.80016 8.19755 5.68324Z" fill="#231F20"/>
<path d="M6.46973 12.9548V10.405C6.46973 10.1123 6.70729 9.87476 7 9.87476C7.29271 9.87476 7.53027 10.1123 7.53027 10.405V12.9548C7.53027 13.2475 7.29271 13.4851 7 13.4851C6.70729 13.4851 6.46973 13.2475 6.46973 12.9548Z" fill="#231F20"/>
<path d="M7.00048 0.514649C7.18175 0.514808 7.35061 0.607702 7.44775 0.760742L10.4175 5.44141C10.5209 5.60458 10.5272 5.81117 10.4341 5.98047C10.3409 6.14963 10.1633 6.25481 9.97021 6.25488H4.02001C3.82655 6.25488 3.64824 6.1491 3.55517 5.97949C3.46237 5.81003 3.46905 5.60346 3.57275 5.44043L6.55322 0.760742L6.59228 0.706055C6.6923 0.585676 6.84169 0.514528 7.00048 0.514649ZM4.98583 5.19531H9.00634L6.99853 2.03223L4.98583 5.19531Z" fill="#231F20"/>
</svg>
