<svg width="14" height="14" viewBox="0 0 14 14" fill="none" xmlns="http://www.w3.org/2000/svg">
<path d="M10.1453 12.4443V1.55469C10.1453 1.31997 10.3353 1.12988 10.5701 1.12988C10.8048 1.12988 10.9949 1.31997 10.9949 1.55469V12.4443C10.9949 12.6791 10.8048 12.8701 10.5701 12.8701C10.3353 12.8701 10.1453 12.6791 10.1453 12.4443Z" fill="#231F20"/>
<path d="M7.76538 12.4443V1.55469C7.76538 1.31997 7.95546 1.12988 8.19019 1.12988C8.42491 1.12988 8.61499 1.31997 8.61499 1.55469V12.4443C8.61499 12.6791 8.42491 12.8701 8.19019 12.8701C7.95546 12.8701 7.76538 12.6791 7.76538 12.4443Z" fill="#231F20"/>
<path d="M5.38525 12.4443V1.55469C5.38525 1.31997 5.57534 1.12988 5.81006 1.12988C6.04478 1.12988 6.23486 1.31997 6.23486 1.55469V12.4443C6.23486 12.6791 6.04478 12.8701 5.81006 12.8701C5.57534 12.8701 5.38525 12.6791 5.38525 12.4443Z" fill="#231F20"/>
<path d="M3.00537 12.4443V1.55469C3.00537 1.31997 3.19545 1.12988 3.43018 1.12988C3.6649 1.12988 3.85498 1.31997 3.85498 1.55469V12.4443C3.85498 12.6791 3.6649 12.8701 3.43018 12.8701C3.19545 12.8701 3.00537 12.6791 3.00537 12.4443Z" fill="#231F20"/>
<path d="M12.4399 3.01001C12.6747 3.01001 12.8647 3.20009 12.8647 3.43481C12.8647 3.66954 12.6747 3.85962 12.4399 3.85962H1.56006C1.32534 3.85962 1.13525 3.66954 1.13525 3.43481C1.13525 3.20009 1.32534 3.01001 1.56006 3.01001H12.4399Z" fill="#231F20"/>
<path d="M12.4399 5.38989C12.6747 5.38989 12.8647 5.57998 12.8647 5.8147C12.8647 6.04942 12.6747 6.2395 12.4399 6.2395H1.56006C1.32534 6.2395 1.13525 6.04942 1.13525 5.8147C1.13525 5.57998 1.32534 5.38989 1.56006 5.38989H12.4399Z" fill="#231F20"/>
<path d="M12.4399 7.77002C12.6747 7.77002 12.8647 7.9601 12.8647 8.19482C12.8647 8.42955 12.6747 8.61963 12.4399 8.61963H1.56006C1.32534 8.61963 1.13525 8.42955 1.13525 8.19482C1.13525 7.9601 1.32534 7.77002 1.56006 7.77002H12.4399Z" fill="#231F20"/>
<path d="M12.4399 10.1499C12.6747 10.1499 12.8647 10.34 12.8647 10.5747C12.8647 10.8094 12.6747 10.9995 12.4399 10.9995H1.56006C1.32534 10.9995 1.13525 10.8094 1.13525 10.5747C1.13525 10.34 1.32534 10.1499 1.56006 10.1499H12.4399Z" fill="#231F20"/>
</svg>
