<svg width="14" height="14" viewBox="0 0 14 14" fill="none" xmlns="http://www.w3.org/2000/svg">
<path d="M3.92031 6.15507C3.92029 4.43712 3.8054 3.256 3.40273 2.52128C3.21474 2.17833 2.96611 1.94023 2.62246 1.78691C2.26696 1.6283 1.77436 1.54518 1.08046 1.58476C0.788282 1.60143 0.537647 1.37789 0.520895 1.08574C0.504225 0.793527 0.727723 0.542879 1.01992 0.526165C1.81575 0.480765 2.49283 0.567873 3.0541 0.818157C3.62715 1.07383 4.04292 1.48344 4.33242 2.01152C4.88469 3.01919 4.97987 4.47332 4.97988 6.15507C4.97988 7.87854 4.98418 9.50429 5.28359 10.7019C5.43182 11.2948 5.63974 11.7249 5.90761 12.0027C6.15884 12.2633 6.49566 12.4256 7.00039 12.4256C7.50501 12.4255 7.84196 12.2632 8.09316 12.0027C8.36095 11.7248 8.56898 11.2947 8.71718 10.7019C9.0166 9.50429 9.01992 7.87854 9.01992 6.15507C9.01993 4.47242 9.11859 3.01912 9.67226 2.01152C9.96232 1.48367 10.3772 1.07383 10.9496 0.818157C11.4402 0.599034 12.0192 0.505142 12.6879 0.515423L12.9809 0.526165L13.0863 0.542766C13.3247 0.605817 13.4935 0.829942 13.4789 1.08574C13.4642 1.34154 13.2709 1.5445 13.0268 1.57988L12.9203 1.58476L12.6703 1.57499C12.1083 1.56647 11.693 1.64721 11.3822 1.78593C11.0388 1.93932 10.7896 2.1789 10.601 2.52226C10.1973 3.25707 10.0805 4.43824 10.0805 6.15507C10.0805 7.83156 10.0836 9.60645 9.7455 10.9588C9.57501 11.6407 9.30508 12.2732 8.85586 12.7391C8.38995 13.2222 7.7705 13.4851 7.00039 13.4851C6.23028 13.4851 5.61084 13.2221 5.14492 12.7391C4.6957 12.2732 4.42478 11.6407 4.25429 10.9588C3.91627 9.60647 3.92031 7.8315 3.92031 6.15507Z" fill="#231F20"/>
</svg>
