<svg width="14" height="14" viewBox="0 0 14 14" fill="none" xmlns="http://www.w3.org/2000/svg">
<path d="M11.3379 0.645028C11.5259 0.485796 11.8065 0.475202 12.0078 0.633309C12.2378 0.814272 12.2776 1.14836 12.0966 1.37843L2.73727 13.2778L2.66207 13.355C2.47392 13.5142 2.19345 13.525 1.99215 13.3667C1.76246 13.1857 1.72256 12.8525 1.90328 12.6226L11.2636 0.722176L11.3379 0.645028Z" fill="#231F20"/>
<path d="M1.99214 0.633288C2.19333 0.475035 2.47391 0.48599 2.66206 0.645007L2.73725 0.722155L7.41694 6.67235L7.47456 6.76317C7.58497 6.98345 7.52916 7.25812 7.32807 7.41649C7.12668 7.5749 6.84631 7.56425 6.65815 7.40477L6.58393 7.32762L1.90327 1.37841L1.84565 1.28758C1.73519 1.06723 1.79089 0.791645 1.99214 0.633288Z" fill="#231F20"/>
</svg>
