<svg width="14" height="14" viewBox="0 0 14 14" fill="none" xmlns="http://www.w3.org/2000/svg">
<path d="M6.99969 10.6051C7.58512 10.6051 8.05969 10.1305 8.05969 9.5451C8.05969 8.95968 7.58512 8.48511 6.99969 8.48511C6.41427 8.48511 5.9397 8.95968 5.9397 9.5451C5.9397 10.1305 6.41427 10.6051 6.99969 10.6051Z" fill="#231F20"/>
<path d="M4.0249 1.89502C4.0249 1.6603 4.21499 1.47021 4.44971 1.47021C4.68443 1.47021 4.87451 1.6603 4.87451 1.89502V11.6802H9.54932L9.63525 11.689C9.82893 11.7286 9.97508 11.8996 9.9751 12.105C9.9751 12.3397 9.78404 12.5298 9.54932 12.5298H4.44971C4.21499 12.5298 4.0249 12.3397 4.0249 12.105V1.89502Z" fill="#231F20"/>
</svg>
