<svg width="14" height="14" viewBox="0 0 14 14" fill="none" xmlns="http://www.w3.org/2000/svg">
<path d="M12.6584 0.607725C12.864 0.47188 13.1433 0.494236 13.3244 0.675108C13.5314 0.882086 13.5314 1.21813 13.3244 1.42511L1.42501 13.3245L1.342 13.3929C1.13626 13.5289 0.856177 13.5057 0.675009 13.3245C0.468389 13.1176 0.468323 12.7824 0.675009 12.5755L12.5754 0.675108L12.6584 0.607725Z" fill="#231F20"/>
<path d="M0.675088 0.675088C0.856309 0.493867 1.13632 0.471587 1.34208 0.607706L1.42509 0.675088L13.3245 12.5755L13.3929 12.6585C13.5286 12.8642 13.5056 13.1434 13.3245 13.3245C13.1434 13.5056 12.8642 13.5286 12.6585 13.3929L12.5755 13.3245L0.675088 1.42509L0.607706 1.34208C0.471587 1.13632 0.493867 0.856309 0.675088 0.675088Z" fill="#231F20"/>
</svg>
