<svg width="14" height="14" viewBox="0 0 14 14" fill="none" xmlns="http://www.w3.org/2000/svg">
<path d="M9.8623 0.625953C10.0935 0.446493 10.4269 0.488527 10.6064 0.719703C10.7859 0.950899 10.7439 1.28434 10.5127 1.46384C10.0881 1.79357 9.02557 2.62058 7.96289 3.44822C6.9007 4.27548 5.83747 5.10329 5.41211 5.43357C4.61154 6.05526 4.34277 6.58122 4.34277 6.99998C4.34281 7.41874 4.61153 7.9447 5.41211 8.56638C5.83748 8.89667 6.90068 9.72446 7.96289 10.5517L10.5127 12.5361L10.5898 12.6103C10.7505 12.7975 10.7636 13.0779 10.6064 13.2803C10.4493 13.4826 10.1742 13.5398 9.95312 13.4306L9.8623 13.374L7.31152 11.3877C6.24896 10.5601 5.18728 9.73297 4.7627 9.4033C3.86352 8.70511 3.28226 7.90613 3.28223 6.99998C3.28223 6.0938 3.86351 5.29486 4.7627 4.59666C5.1873 4.26697 6.2488 3.43898 7.31152 2.6113C8.37379 1.78399 9.43691 0.95626 9.8623 0.625953Z" fill="#231F20"/>
</svg>
