<svg width="14" height="14" viewBox="0 0 14 14" fill="none" xmlns="http://www.w3.org/2000/svg">
<path d="M8.99875 6.69585C9.14418 6.48521 9.41459 6.41208 9.64133 6.50835L9.73606 6.5601L9.9177 6.69194C10.7993 7.35517 11.2492 8.12491 11.3034 8.89507C11.3609 9.71203 10.963 10.4206 10.3796 10.8443C9.79616 11.2679 8.99897 11.4272 8.23899 11.1207C7.52258 10.8316 6.92727 10.1666 6.56613 9.12358L6.4968 8.90971L6.47629 8.80424C6.45392 8.55888 6.60633 8.32362 6.85129 8.24956C7.09655 8.17569 7.35445 8.28741 7.47141 8.50444L7.51242 8.60405L7.62766 8.93803C7.91294 9.66276 8.30162 10.0025 8.63547 10.1373C9.0212 10.2928 9.43633 10.2192 9.75656 9.98686C10.0769 9.75427 10.2749 9.38263 10.2458 8.96928C10.2206 8.6117 10.0181 8.13827 9.41672 7.64507L9.13352 7.43315L9.05149 7.36284C8.88111 7.18497 8.85339 6.90648 8.99875 6.69585Z" fill="#231F20"/>
<path d="M8.17334 3.71546C9.14242 2.97699 10.0816 2.74827 10.8813 2.94691C11.6766 3.14445 12.229 3.74097 12.4526 4.4264C12.676 5.11161 12.5815 5.91815 12.0552 6.54554C11.5256 7.17651 10.6311 7.54369 9.4126 7.51624C9.12001 7.5096 8.88843 7.26685 8.89502 6.97425C8.90185 6.68183 9.14453 6.45008 9.43701 6.45667L9.79053 6.45081C10.5685 6.40419 11.0117 6.13985 11.2427 5.86487C11.5093 5.54716 11.5674 5.1303 11.4448 4.75452C11.3222 4.37879 11.0292 4.0755 10.6255 3.97523C10.2262 3.87618 9.61161 3.95189 8.81592 4.55823C8.5831 4.73565 8.25017 4.69047 8.07275 4.45765C7.89566 4.22492 7.94081 3.89284 8.17334 3.71546Z" fill="#231F20"/>
<path d="M7.005 0.463867C7.72619 0.464005 8.46438 0.804046 8.89856 1.49902C9.33527 2.19811 9.40852 3.16232 9.005 4.3125C8.90801 4.58851 8.60531 4.73353 8.32922 4.63672C8.05301 4.53982 7.90712 4.23714 8.00402 3.96094C8.33542 3.0163 8.21771 2.40898 8.00012 2.06055C7.78008 1.70832 7.401 1.52455 7.005 1.52441C6.60884 1.52441 6.22902 1.70819 6.00891 2.06055C5.81857 2.36536 5.70433 2.86854 5.90051 3.62207L6.005 3.96094L6.02941 4.06543C6.06282 4.30974 5.92154 4.55191 5.67981 4.63672C5.43813 4.72141 5.17645 4.62075 5.04992 4.40918L5.00402 4.3125L4.93469 4.09863C4.61175 3.04242 4.70104 2.15443 5.11047 1.49902C5.54473 0.803876 6.28366 0.463867 7.005 0.463867Z" fill="#231F20"/>
<path d="M3.11774 2.94691C3.91749 2.74827 4.85667 2.97699 5.82575 3.71546C6.05841 3.89284 6.10354 4.22488 5.92633 4.45765C5.74892 4.69047 5.41598 4.73565 5.18317 4.55823C4.38742 3.95188 3.77289 3.87612 3.3736 3.97523C2.96994 4.07548 2.67792 4.37889 2.55524 4.75452C2.43263 5.1303 2.48974 5.54716 2.75641 5.86487C3.02032 6.17913 3.56181 6.47922 4.56305 6.45667C4.85538 6.45027 5.09723 6.68195 5.10407 6.97425C5.11066 7.26689 4.87912 7.50965 4.58649 7.51624C3.36803 7.54367 2.47448 7.1765 1.94489 6.54554C1.41822 5.91803 1.32389 5.1118 1.54743 4.4264C1.77104 3.74102 2.3226 3.1445 3.11774 2.94691Z" fill="#231F20"/>
<path d="M4.27211 6.55096C4.51268 6.38421 4.84364 6.44418 5.0104 6.68475C5.17686 6.92523 5.11693 7.25533 4.87661 7.42205L4.5934 7.63494C3.99121 8.13039 3.78852 8.60561 3.76332 8.96404C3.73436 9.37773 3.93191 9.74789 4.25161 9.97967C4.5715 10.2115 4.98648 10.2854 5.3727 10.1291C5.75465 9.97451 6.2081 9.552 6.49672 8.59393L6.53774 8.49432C6.65466 8.27739 6.91171 8.16573 7.15688 8.23944C7.43715 8.32385 7.59676 8.61932 7.51235 8.89959L7.44301 9.11346C7.08187 10.1566 6.48629 10.8217 5.77016 11.1115C5.01047 11.4189 4.21336 11.2612 3.62954 10.8381C3.04574 10.4149 2.64825 9.70614 2.70571 8.88885C2.76364 8.06742 3.27086 7.24507 4.27211 6.55096Z" fill="#231F20"/>
<path d="M6.47437 8.75659C6.47437 8.46388 6.71193 8.22632 7.00464 8.22632C7.29735 8.22632 7.53491 8.46388 7.53491 8.75659C7.53491 9.61359 7.53538 10.4352 7.60718 11.1472C7.68055 11.8747 7.82138 12.3943 8.03784 12.7009C8.20657 12.9401 8.14902 13.2704 7.90991 13.4392C7.67078 13.6079 7.34042 13.5514 7.17163 13.3123C6.78813 12.769 6.62913 12.0136 6.55249 11.2537C6.47429 10.4782 6.47437 9.59959 6.47437 8.75659Z" fill="#231F20"/>
</svg>
