<svg width="14" height="14" viewBox="0 0 14 14" fill="none" xmlns="http://www.w3.org/2000/svg">
<path d="M8.06506 7.00021C8.06506 6.41021 7.58507 5.94019 7.00507 5.94019C6.42507 5.94019 5.94507 6.42021 5.94507 7.00021C5.94507 7.58021 6.42507 8.06021 7.00507 8.06021C7.58507 8.06021 8.06506 7.58021 8.06506 7.00021Z" fill="#231F20"/>
<path d="M12.105 3.17529C12.3397 3.17529 12.5298 3.36538 12.5298 3.6001C12.5298 3.83482 12.3397 4.0249 12.105 4.0249H1.89502C1.6603 4.0249 1.47021 3.83482 1.47021 3.6001C1.47021 3.36538 1.6603 3.17529 1.89502 3.17529H12.105Z" fill="#231F20"/>
<path d="M12.105 9.97534C12.3397 9.97534 12.5298 10.1654 12.5298 10.4001C12.5298 10.6349 12.3397 10.825 12.105 10.825H1.89502C1.6603 10.825 1.47021 10.6349 1.47021 10.4001C1.47021 10.1654 1.6603 9.97534 1.89502 9.97534H12.105Z" fill="#231F20"/>
</svg>
