<svg width="14" height="14" viewBox="0 0 14 14" fill="none" xmlns="http://www.w3.org/2000/svg">
<path d="M8.70005 7.00005C8.70005 6.06005 7.94005 5.30005 7.00005 5.30005C6.06005 5.30005 5.30005 6.06005 5.30005 7.00005C5.30005 7.94005 6.06005 8.70006 7.00005 8.70006C7.94005 8.70006 8.70005 7.94005 8.70005 7.00005Z" fill="#231F20"/>
<path d="M2.21973 12.1001V1.8999C2.21973 1.60719 2.45729 1.36963 2.75 1.36963C3.04271 1.36963 3.28027 1.60719 3.28027 1.8999V12.1001C3.28017 12.3927 3.04264 12.6304 2.75 12.6304C2.45736 12.6304 2.21983 12.3927 2.21973 12.1001Z" fill="#231F20"/>
<path d="M10.7197 12.1001V1.8999C10.7197 1.60719 10.9573 1.36963 11.25 1.36963C11.5427 1.36963 11.7803 1.60719 11.7803 1.8999V12.1001C11.7802 12.3927 11.5426 12.6304 11.25 12.6304C10.9574 12.6304 10.7198 12.3927 10.7197 12.1001Z" fill="#231F20"/>
<path d="M6.46973 12.1001V1.8999C6.46973 1.60719 6.70729 1.36963 7 1.36963C7.29271 1.36963 7.53027 1.60719 7.53027 1.8999V12.1001C7.53017 12.3927 7.29264 12.6304 7 12.6304C6.70736 12.6304 6.46983 12.3927 6.46973 12.1001Z" fill="#231F20"/>
</svg>
