<svg width="14" height="15" viewBox="0 0 14 15" fill="none" xmlns="http://www.w3.org/2000/svg">
<path d="M8.70005 10.0198C8.70005 9.07982 7.94005 8.31982 7.00005 8.31982C6.06005 8.31982 5.30005 9.07982 5.30005 10.0198C5.30005 10.9598 6.06005 11.7198 7.00005 11.7198C7.94005 11.7198 8.70005 10.9598 8.70005 10.0198Z" fill="#231F20"/>
<path d="M12.1001 2.67969L12.2065 2.69043C12.4482 2.73976 12.6304 2.95376 12.6304 3.20996C12.6304 3.46616 12.4482 3.68016 12.2065 3.72949L12.1001 3.74023H1.8999C1.60719 3.74023 1.36963 3.50267 1.36963 3.20996C1.36963 2.91725 1.60719 2.67969 1.8999 2.67969H12.1001Z" fill="#231F20"/>
<path d="M12.1001 9.4895L12.2065 9.50024C12.4482 9.54958 12.6304 9.76357 12.6304 10.0198C12.6304 10.276 12.4482 10.49 12.2065 10.5393L12.1001 10.55H1.8999C1.60719 10.55 1.36963 10.3125 1.36963 10.0198C1.36963 9.72706 1.60719 9.4895 1.8999 9.4895H12.1001Z" fill="#231F20"/>
</svg>
