<svg width="14" height="14" viewBox="0 0 14 14" fill="none" xmlns="http://www.w3.org/2000/svg">
<path d="M6.99994 12.5199C7.58536 12.5199 8.05994 12.0453 8.05994 11.4599C8.05994 10.8745 7.58536 10.3999 6.99994 10.3999C6.41452 10.3999 5.93994 10.8745 5.93994 11.4599C5.93994 12.0453 6.41452 12.5199 6.99994 12.5199Z" fill="#231F20"/>
<path d="M4.02515 12.1001V1.8999C4.02515 1.66518 4.21523 1.4751 4.44995 1.4751C4.68467 1.4751 4.87476 1.66518 4.87476 1.8999V12.1001C4.87464 12.3347 4.6846 12.5249 4.44995 12.5249C4.2153 12.5249 4.02526 12.3347 4.02515 12.1001Z" fill="#231F20"/>
<path d="M9.12524 12.1001V1.8999C9.12524 1.66518 9.31533 1.4751 9.55005 1.4751C9.78477 1.4751 9.97485 1.66518 9.97485 1.8999V12.1001C9.97474 12.3347 9.7847 12.5249 9.55005 12.5249C9.3154 12.5249 9.12536 12.3347 9.12524 12.1001Z" fill="#231F20"/>
</svg>
