<svg width="14" height="14" viewBox="0 0 14 14" fill="none" xmlns="http://www.w3.org/2000/svg">
<path d="M6.46997 12.6348V1.58496C6.46997 1.29225 6.70753 1.05469 7.00024 1.05469C7.29296 1.05469 7.53052 1.29225 7.53052 1.58496V12.6348C7.53052 12.9275 7.29296 13.165 7.00024 13.165C6.70753 13.165 6.46997 12.9275 6.46997 12.6348Z" fill="#231F20"/>
<path d="M9.92472 3.75977C10.1317 3.96674 10.1317 4.30279 9.92472 4.50977C9.7178 4.71658 9.38265 4.71652 9.17569 4.50977L6.99991 2.33398L4.82511 4.50977C4.61813 4.71674 4.28208 4.71674 4.07511 4.50977C3.86823 4.30278 3.86816 3.96671 4.07511 3.75977L6.99991 0.834961L9.92472 3.75977Z" fill="#231F20"/>
</svg>
