<svg width="14" height="14" viewBox="0 0 14 14" fill="none" xmlns="http://www.w3.org/2000/svg">
<path d="M8.65472 6.40979C9.24015 6.40979 9.71472 5.93521 9.71472 5.34979C9.71472 4.76437 9.24015 4.28979 8.65472 4.28979C8.0693 4.28979 7.59473 4.76437 7.59473 5.34979C7.59473 5.93521 8.0693 6.40979 8.65472 6.40979Z" fill="#231F20"/>
<path d="M10.4795 10.9102V3.51465H3.09473C2.86001 3.51465 2.66992 3.32456 2.66992 3.08984C2.66992 2.85512 2.86001 2.66504 3.09473 2.66504H10.9043C11.139 2.66504 11.3301 2.85512 11.3301 3.08984V10.9102C11.3299 11.1447 11.1389 11.335 10.9043 11.335C10.6699 11.3347 10.4797 11.1446 10.4795 10.9102Z" fill="#231F20"/>
</svg>
