<svg width="14" height="14" viewBox="0 0 14 14" fill="none" xmlns="http://www.w3.org/2000/svg">
<path d="M7.00018 3.06238C7.5856 3.06238 8.06018 2.5878 8.06018 2.00238C8.06018 1.41696 7.5856 0.942383 7.00018 0.942383C6.41476 0.942383 5.94019 1.41696 5.94019 2.00238C5.94019 2.5878 6.41476 3.06238 7.00018 3.06238Z" fill="#231F20"/>
<path d="M7.00003 4.12769C7.18545 4.12769 7.34947 4.24776 7.40531 4.42456L9.95511 12.5046L9.97269 12.5886C9.99333 12.7853 9.87372 12.976 9.67777 13.0378C9.48201 13.0994 9.27477 13.0123 9.17875 12.8396L9.14457 12.7605L7.00003 5.9646L4.8555 12.7605C4.78482 12.9843 4.54611 13.1085 4.3223 13.0378C4.09848 12.9672 3.97434 12.7285 4.04496 12.5046L6.59476 4.42456L6.62113 4.36108C6.69244 4.21971 6.83789 4.12776 7.00003 4.12769Z" fill="#231F20"/>
</svg>
