<svg width="14" height="14" viewBox="0 0 14 14" fill="none" xmlns="http://www.w3.org/2000/svg">
<path d="M11.1119 7.50287C10.5087 5.23178 8.17875 3.87936 5.90758 4.4824C3.63659 5.08556 2.28427 7.41563 2.88711 9.6867C3.49015 11.9579 5.82024 13.31 8.09141 12.7072C10.3627 12.1041 11.715 9.77414 11.1119 7.50287ZM11.934 7.28459C12.6575 10.0096 11.0347 12.8057 8.3097 13.5293C5.5848 14.2526 2.78946 12.6296 2.06595 9.90474C1.34264 7.17994 2.96484 4.38488 5.68955 3.66124C8.41444 2.93773 11.2103 4.55978 11.934 7.28459Z" fill="#231F20"/>
<path d="M7.00374 2.41858C7.58917 2.41858 8.06374 1.94401 8.06374 1.35859C8.06374 0.773163 7.58917 0.298584 7.00374 0.298584C6.41832 0.298584 5.94375 0.773163 5.94375 1.35859C5.94375 1.94401 6.41832 2.41858 7.00374 2.41858Z" fill="#231F20"/>
</svg>
