<svg width="14" height="14" viewBox="0 0 14 14" fill="none" xmlns="http://www.w3.org/2000/svg">
<path d="M2.53513 1.89488C2.53513 1.54488 2.24513 1.25488 1.89513 1.25488C1.54513 1.25488 1.25513 1.54488 1.25513 1.89488C1.25513 2.24488 1.54513 2.53488 1.89513 2.53488C2.24513 2.53488 2.53513 2.24488 2.53513 1.89488Z" fill="#231F20"/>
<path d="M5.93503 1.89488C5.93503 1.54488 5.64503 1.25488 5.29503 1.25488C4.94503 1.25488 4.65503 1.54488 4.65503 1.89488C4.65503 2.24488 4.94503 2.53488 5.29503 2.53488C5.64503 2.53488 5.93503 2.24488 5.93503 1.89488Z" fill="#231F20"/>
<path d="M9.34494 1.89488C9.34494 1.54488 9.05494 1.25488 8.70494 1.25488C8.35494 1.25488 8.06494 1.54488 8.06494 1.89488C8.06494 2.24488 8.35494 2.53488 8.70494 2.53488C9.05494 2.53488 9.34494 2.24488 9.34494 1.89488Z" fill="#231F20"/>
<path d="M12.7451 1.89488C12.7451 1.54488 12.4551 1.25488 12.1051 1.25488C11.7551 1.25488 11.4651 1.54488 11.4651 1.89488C11.4651 2.24488 11.7551 2.53488 12.1051 2.53488C12.4551 2.53488 12.7451 2.24488 12.7451 1.89488Z" fill="#231F20"/>
<path d="M2.53513 5.29503C2.53513 4.94503 2.24513 4.65503 1.89513 4.65503C1.54513 4.65503 1.25513 4.94503 1.25513 5.29503C1.25513 5.64503 1.54513 5.93503 1.89513 5.93503C2.24513 5.93503 2.53513 5.64503 2.53513 5.29503Z" fill="#231F20"/>
<path d="M2.53513 8.70494C2.53513 8.35494 2.24513 8.06494 1.89513 8.06494C1.54513 8.06494 1.25513 8.35494 1.25513 8.70494C1.25513 9.05494 1.54513 9.34494 1.89513 9.34494C2.24513 9.34494 2.53513 9.05494 2.53513 8.70494Z" fill="#231F20"/>
<path d="M2.53513 12.1051C2.53513 11.7551 2.24513 11.4651 1.89513 11.4651C1.54513 11.4651 1.25513 11.7551 1.25513 12.1051C1.25513 12.4551 1.54513 12.7451 1.89513 12.7451C2.24513 12.7451 2.53513 12.4551 2.53513 12.1051Z" fill="#231F20"/>
<path d="M5.93503 12.1051C5.93503 11.7551 5.64503 11.4651 5.29503 11.4651C4.94503 11.4651 4.65503 11.7551 4.65503 12.1051C4.65503 12.4551 4.94503 12.7451 5.29503 12.7451C5.64503 12.7451 5.93503 12.4551 5.93503 12.1051Z" fill="#231F20"/>
<path d="M9.34494 12.1051C9.34494 11.7551 9.05494 11.4651 8.70494 11.4651C8.35494 11.4651 8.06494 11.7551 8.06494 12.1051C8.06494 12.4551 8.35494 12.7451 8.70494 12.7451C9.05494 12.7451 9.34494 12.4551 9.34494 12.1051Z" fill="#231F20"/>
<path d="M12.7451 12.1051C12.7451 11.7551 12.4551 11.4651 12.1051 11.4651C11.7551 11.4651 11.4651 11.7551 11.4651 12.1051C11.4651 12.4551 11.7551 12.7451 12.1051 12.7451C12.4551 12.7451 12.7451 12.4551 12.7451 12.1051Z" fill="#231F20"/>
<path d="M12.7451 8.70494C12.7451 8.35494 12.4551 8.06494 12.1051 8.06494C11.7551 8.06494 11.4651 8.35494 11.4651 8.70494C11.4651 9.05494 11.7551 9.34494 12.1051 9.34494C12.4551 9.34494 12.7451 9.05494 12.7451 8.70494Z" fill="#231F20"/>
<path d="M12.7451 5.29503C12.7451 4.94503 12.4551 4.65503 12.1051 4.65503C11.7551 4.65503 11.4651 4.94503 11.4651 5.29503C11.4651 5.64503 11.7551 5.93503 12.1051 5.93503C12.4551 5.93503 12.7451 5.64503 12.7451 5.29503Z" fill="#231F20"/>
</svg>
