<svg width="14" height="14" viewBox="0 0 14 14" fill="none" xmlns="http://www.w3.org/2000/svg">
<path d="M7.63514 6.99457C7.63514 6.40457 7.15513 5.93457 6.57513 5.93457C5.99513 5.93457 5.51514 6.41457 5.51514 6.99457C5.51514 7.57457 5.99513 8.05457 6.57513 8.05457C7.15513 8.05457 7.63514 7.57457 7.63514 6.99457Z" fill="#231F20"/>
<path d="M3.93424 1.17491C4.09999 1.00886 4.36869 1.00833 4.53483 1.17393L10.0651 6.69346C10.1449 6.77308 10.19 6.88156 10.1901 6.99425C10.1902 7.10703 10.1449 7.21528 10.0651 7.29503L4.53581 12.8253C4.36983 12.9913 4.10022 12.9913 3.93424 12.8253C3.76837 12.6593 3.7683 12.3897 3.93424 12.2237L9.16374 6.99425L3.93522 1.77549C3.76917 1.60974 3.76864 1.34105 3.93424 1.17491Z" fill="#231F20"/>
</svg>
