<svg width="14" height="14" viewBox="0 0 14 14" fill="none" xmlns="http://www.w3.org/2000/svg">
<path d="M10.2139 5.90767C9.61074 3.63658 7.2808 2.28416 5.00963 2.8872C2.73864 3.49037 1.38632 5.82043 1.98916 8.09151C2.5922 10.3627 4.92229 11.7148 7.19346 11.112C9.46474 10.5089 10.817 8.17895 10.2139 5.90767ZM11.036 5.68939C11.7596 8.41438 10.1367 11.2105 7.41175 11.9341C4.68685 12.6574 1.89151 11.0344 1.168 8.30954C0.444692 5.58474 2.06689 2.78968 4.7916 2.06604C7.51649 1.34253 10.3124 2.96458 11.036 5.68939Z" fill="#231F20"/>
<path d="M12.4748 6.46535L12.5812 6.47609C12.8227 6.5255 13.004 6.73949 13.004 6.99562C13.004 7.25176 12.8227 7.46575 12.5812 7.51515L12.4748 7.5259H9.07436C8.78165 7.5259 8.54409 7.28833 8.54409 6.99562C8.54409 6.70291 8.78165 6.46535 9.07436 6.46535H12.4748Z" fill="#231F20"/>
</svg>
