<svg width="14" height="14" viewBox="0 0 14 14" fill="none" xmlns="http://www.w3.org/2000/svg">
<path d="M8.70005 4.17998C8.70005 3.23998 7.94005 2.47998 7.00005 2.47998C6.06005 2.47998 5.30005 3.23998 5.30005 4.17998C5.30005 5.11998 6.06005 5.87997 7.00005 5.87997C7.94005 5.87997 8.70005 5.11998 8.70005 4.17998Z" fill="#231F20"/>
<path d="M12.1001 3.6499L12.2065 3.66064C12.4482 3.70998 12.6304 3.92397 12.6304 4.18018C12.6304 4.43638 12.4482 4.65037 12.2065 4.69971L12.1001 4.71045H1.8999C1.60719 4.71045 1.36963 4.47289 1.36963 4.18018C1.36963 3.88746 1.60719 3.6499 1.8999 3.6499H12.1001Z" fill="#231F20"/>
<path d="M12.1001 10.4597L12.2065 10.4705C12.4482 10.5198 12.6304 10.7338 12.6304 10.99C12.6304 11.2462 12.4482 11.4602 12.2065 11.5095L12.1001 11.5203H1.8999C1.60719 11.5203 1.36963 11.2827 1.36963 10.99C1.36963 10.6973 1.60719 10.4597 1.8999 10.4597H12.1001Z" fill="#231F20"/>
</svg>
