<svg width="14" height="14" viewBox="0 0 14 14" fill="none" xmlns="http://www.w3.org/2000/svg">
<path d="M2.91078 1.60789C3.57394 1.20999 4.34255 1.38124 5.03285 1.72898C5.73833 2.0844 6.51066 2.69397 7.30921 3.43797C8.51072 4.55742 9.83991 6.04759 11.1803 7.61668L12.5202 9.20066L12.5797 9.28953C12.6974 9.50629 12.6509 9.78291 12.4547 9.94773C12.2306 10.136 11.8959 10.1064 11.7077 9.8823C9.91776 7.75148 8.13196 5.65321 6.58656 4.21336C5.81154 3.49128 5.12666 2.96369 4.55628 2.67625C3.97402 2.3829 3.64693 2.40372 3.4596 2.51414C2.77204 2.95386 2.49547 3.75393 2.43226 5.37644C2.40112 6.17584 2.42201 7.11849 2.44105 8.24461C2.45998 9.36445 2.47611 10.65 2.43324 12.1079C2.42441 12.4003 2.18075 12.6302 1.88831 12.6216C1.59584 12.613 1.36525 12.3691 1.37367 12.0766C1.41579 10.6445 1.40036 9.37891 1.38148 8.26218C1.36271 7.15218 1.34012 6.17204 1.37269 5.33543C1.43674 3.69139 1.71321 2.36506 2.90003 1.61375L2.91078 1.60789Z" fill="#231F20"/>
<path d="M11.5742 6.14209C11.5742 5.84938 11.8118 5.61182 12.1045 5.61182C12.397 5.61203 12.6338 5.84951 12.6338 6.14209V9.54248C12.6336 9.83488 12.3969 10.0716 12.1045 10.0718H8.7041C8.41152 10.0718 8.17404 9.83501 8.17383 9.54248C8.17383 9.24977 8.41139 9.01221 8.7041 9.01221H11.5742V6.14209Z" fill="#231F20"/>
</svg>
