<svg width="14" height="14" viewBox="0 0 14 14" fill="none" xmlns="http://www.w3.org/2000/svg">
<path d="M6.20009 9.5899C6.20009 9.3599 6.01009 9.15991 5.77009 9.15991C5.53009 9.15991 5.34009 9.3499 5.34009 9.5899C5.34009 9.8299 5.53009 10.0199 5.77009 10.0199C6.01009 10.0199 6.20009 9.8299 6.20009 9.5899Z" fill="#231F20"/>
<path d="M11.13 7.22011C11.3674 7.22011 11.56 7.02758 11.56 6.7901C11.56 6.55262 11.3674 6.36011 11.13 6.36011C10.8925 6.36011 10.7 6.55262 10.7 6.7901C10.7 7.02758 10.8925 7.22011 11.13 7.22011Z" fill="#231F20"/>
<path d="M1.51991 9.5899C1.51991 9.3599 1.32991 9.15991 1.08991 9.15991C0.849912 9.15991 0.659912 9.3499 0.659912 9.5899C0.659912 9.8299 0.849912 10.0199 1.08991 10.0199C1.32991 10.0199 1.51991 9.8299 1.51991 9.5899Z" fill="#231F20"/>
<path d="M8.92006 10.8699C8.92006 10.6399 8.73006 10.4399 8.49006 10.4399C8.25006 10.4399 8.06006 10.6299 8.06006 10.8699C8.06006 11.1099 8.25006 11.2999 8.49006 11.2999C8.73006 11.2999 8.92006 11.1099 8.92006 10.8699Z" fill="#231F20"/>
<path d="M4.57997 5.84993C4.57997 5.61993 4.38997 5.41992 4.14997 5.41992C3.90997 5.41992 3.71997 5.60993 3.71997 5.84993C3.71997 6.08993 3.90997 6.27992 4.14997 6.27992C4.38997 6.27992 4.57997 6.08993 4.57997 5.84993Z" fill="#231F20"/>
<path d="M5.43007 4.40999C5.43007 4.17999 5.24007 3.97998 5.00007 3.97998C4.76007 3.97998 4.57007 4.16999 4.57007 4.40999C4.57007 4.64999 4.76007 4.83998 5.00007 4.83998C5.24007 4.83998 5.43007 4.64999 5.43007 4.40999Z" fill="#231F20"/>
<path d="M9.84999 3.22005C9.84999 2.99005 9.65999 2.79004 9.41999 2.79004C9.17999 2.79004 8.98999 2.98005 8.98999 3.22005C8.98999 3.46005 9.17999 3.65004 9.41999 3.65004C9.65999 3.65004 9.84999 3.46005 9.84999 3.22005Z" fill="#231F20"/>
<path d="M7.13002 4.75008C7.13002 4.52008 6.94002 4.32007 6.70002 4.32007C6.46002 4.32007 6.27002 4.51008 6.27002 4.75008C6.27002 4.99008 6.46002 5.18007 6.70002 5.18007C6.94002 5.18007 7.13002 4.99008 7.13002 4.75008Z" fill="#231F20"/>
<path d="M11.4699 10.7901C11.4699 10.5601 11.2799 10.3601 11.0399 10.3601C10.7999 10.3601 10.6099 10.5501 10.6099 10.7901C10.6099 11.0301 10.7999 11.2201 11.0399 11.2201C11.2799 11.2201 11.4699 11.0301 11.4699 10.7901Z" fill="#231F20"/>
<path d="M10.7001 5.3399C10.7001 5.1099 10.5101 4.90991 10.2701 4.90991C10.0301 4.90991 9.84009 5.0999 9.84009 5.3399C9.84009 5.5799 10.0301 5.76991 10.2701 5.76991C10.5101 5.76991 10.7001 5.5799 10.7001 5.3399Z" fill="#231F20"/>
<path d="M10.2799 12.4C10.2799 12.17 10.0899 11.97 9.84992 11.97C9.60992 11.97 9.41992 12.16 9.41992 12.4C9.41992 12.64 9.60992 12.83 9.84992 12.83C10.0899 12.83 10.2799 12.64 10.2799 12.4Z" fill="#231F20"/>
<path d="M12.7499 3.47005C12.7499 3.24005 12.5599 3.04004 12.3199 3.04004C12.0799 3.04004 11.8899 3.23005 11.8899 3.47005C11.8899 3.71005 12.0799 3.90004 12.3199 3.90004C12.5599 3.90004 12.7499 3.71005 12.7499 3.47005Z" fill="#231F20"/>
<path d="M2.02992 5.26007C2.02992 5.03007 1.83992 4.83008 1.59992 4.83008C1.35992 4.83008 1.16992 5.02007 1.16992 5.26007C1.16992 5.50007 1.35992 5.69008 1.59992 5.69008C1.83992 5.69008 2.02992 5.50007 2.02992 5.26007Z" fill="#231F20"/>
<path d="M1.95009 1.69002C1.95009 1.46002 1.76009 1.26001 1.52009 1.26001C1.28009 1.26001 1.09009 1.45002 1.09009 1.69002C1.09009 1.93002 1.28009 2.12001 1.52009 2.12001C1.76009 2.12001 1.95009 1.93002 1.95009 1.69002Z" fill="#231F20"/>
<path d="M12.2299 9.08015C12.2299 8.85015 12.0399 8.65015 11.7999 8.65015C11.5599 8.65015 11.3699 8.84015 11.3699 9.08015C11.3699 9.32015 11.5599 9.51015 11.7999 9.51015C12.0399 9.51015 12.2299 9.32015 12.2299 9.08015Z" fill="#231F20"/>
<path d="M13.34 12.66C13.34 12.43 13.15 12.23 12.91 12.23C12.67 12.23 12.48 12.42 12.48 12.66C12.48 12.9 12.67 13.09 12.91 13.09C13.15 13.09 13.34 12.9 13.34 12.66Z" fill="#231F20"/>
<path d="M3.98988 3.38997C3.98988 3.15997 3.79988 2.95996 3.55988 2.95996C3.31988 2.95996 3.12988 3.14997 3.12988 3.38997C3.12988 3.62997 3.31988 3.81996 3.55988 3.81996C3.79988 3.81996 3.98988 3.62997 3.98988 3.38997Z" fill="#231F20"/>
<path d="M1.51991 12.4901C1.51991 12.2601 1.32991 12.0601 1.08991 12.0601C0.849912 12.0601 0.659912 12.2501 0.659912 12.4901C0.659912 12.7301 0.849912 12.9201 1.08991 12.9201C1.32991 12.9201 1.51991 12.7301 1.51991 12.4901Z" fill="#231F20"/>
<path d="M9.17006 7.55013C9.17006 7.32013 8.98006 7.12012 8.74006 7.12012C8.50006 7.12012 8.31006 7.31013 8.31006 7.55013C8.31006 7.79013 8.50006 7.98012 8.74006 7.98012C8.98006 7.98012 9.17006 7.79013 9.17006 7.55013Z" fill="#231F20"/>
<path d="M4.16005 12.4901C4.16005 12.2601 3.97005 12.0601 3.73005 12.0601C3.49005 12.0601 3.30005 12.2501 3.30005 12.4901C3.30005 12.7301 3.49005 12.9201 3.73005 12.9201C3.97005 12.9201 4.16005 12.7301 4.16005 12.4901Z" fill="#231F20"/>
<path d="M12.2299 1.59993C12.2299 1.36993 12.0399 1.16992 11.7999 1.16992C11.5599 1.16992 11.3699 1.35993 11.3699 1.59993C11.3699 1.83993 11.5599 2.02992 11.7999 2.02992C12.0399 2.02992 12.2299 1.83993 12.2299 1.59993Z" fill="#231F20"/>
<path d="M2.62995 11.4701C2.86743 11.4701 3.05995 11.2776 3.05995 11.0401C3.05995 10.8026 2.86743 10.6101 2.62995 10.6101C2.39247 10.6101 2.19995 10.8026 2.19995 11.0401C2.19995 11.2776 2.39247 11.4701 2.62995 11.4701Z" fill="#231F20"/>
<path d="M4.57997 7.47005C4.57997 7.24005 4.38997 7.04004 4.14997 7.04004C3.90997 7.04004 3.71997 7.23005 3.71997 7.47005C3.71997 7.71005 3.90997 7.90004 4.14997 7.90004C4.38997 7.90004 4.57997 7.71005 4.57997 7.47005Z" fill="#231F20"/>
<path d="M6.95985 1.42999C6.95985 1.19999 6.76985 1 6.52985 1C6.28985 1 6.09985 1.18999 6.09985 1.42999C6.09985 1.66999 6.28985 1.86 6.52985 1.86C6.76985 1.86 6.95985 1.66999 6.95985 1.42999Z" fill="#231F20"/>
<path d="M5.26008 13.2601C5.49756 13.2601 5.69008 13.0676 5.69008 12.8302C5.69008 12.5927 5.49756 12.4001 5.26008 12.4001C5.0226 12.4001 4.83008 12.5927 4.83008 12.8302C4.83008 13.0676 5.0226 13.2601 5.26008 13.2601Z" fill="#231F20"/>
<path d="M13.1701 11.13C13.1701 10.9 12.9801 10.7 12.7401 10.7C12.5001 10.7 12.3101 10.89 12.3101 11.13C12.3101 11.37 12.5001 11.56 12.7401 11.56C12.9801 11.56 13.1701 11.37 13.1701 11.13Z" fill="#231F20"/>
<path d="M3.14003 9.51007C3.14003 9.28007 2.95003 9.08008 2.71003 9.08008C2.47003 9.08008 2.28003 9.27007 2.28003 9.51007C2.28003 9.75007 2.47003 9.94008 2.71003 9.94008C2.95003 9.94008 3.14003 9.75007 3.14003 9.51007Z" fill="#231F20"/>
<path d="M7.29994 6.96002C7.29994 6.73002 7.10994 6.53003 6.86994 6.53003C6.62994 6.53003 6.43994 6.72002 6.43994 6.96002C6.43994 7.20002 6.62994 7.39003 6.86994 7.39003C7.10994 7.39003 7.29994 7.20002 7.29994 6.96002Z" fill="#231F20"/>
<path d="M2.28993 7.63997C2.28993 7.40997 2.09993 7.20996 1.85993 7.20996C1.61993 7.20996 1.42993 7.39997 1.42993 7.63997C1.42993 7.87997 1.61993 8.06996 1.85993 8.06996C2.09993 8.06996 2.28993 7.87997 2.28993 7.63997Z" fill="#231F20"/>
<path d="M9.08998 1.0899C9.08998 0.859905 8.89998 0.659912 8.65998 0.659912C8.41998 0.659912 8.22998 0.849905 8.22998 1.0899C8.22998 1.3299 8.41998 1.51991 8.65998 1.51991C8.89998 1.51991 9.08998 1.3299 9.08998 1.0899Z" fill="#231F20"/>
<path d="M7.97987 3.05013C7.97987 2.82013 7.78987 2.62012 7.54987 2.62012C7.30987 2.62012 7.11987 2.81013 7.11987 3.05013C7.11987 3.29013 7.30987 3.48012 7.54987 3.48012C7.78987 3.48012 7.97987 3.29013 7.97987 3.05013Z" fill="#231F20"/>
<path d="M7.46986 11.72C7.46986 11.49 7.27986 11.29 7.03986 11.29C6.79986 11.29 6.60986 11.48 6.60986 11.72C6.60986 11.96 6.79986 12.15 7.03986 12.15C7.27986 12.15 7.46986 11.96 7.46986 11.72Z" fill="#231F20"/>
<path d="M7.97987 9.08015C7.97987 8.85015 7.78987 8.65015 7.54987 8.65015C7.30987 8.65015 7.11987 8.84015 7.11987 9.08015C7.11987 9.32015 7.30987 9.51015 7.54987 9.51015C7.78987 9.51015 7.97987 9.32015 7.97987 9.08015Z" fill="#231F20"/>
<path d="M5.34999 11.21C5.34999 10.98 5.15999 10.78 4.91999 10.78C4.67999 10.78 4.48999 10.97 4.48999 11.21C4.48999 11.45 4.67999 11.64 4.91999 11.64C5.15999 11.64 5.34999 11.45 5.34999 11.21Z" fill="#231F20"/>
<path d="M9.08998 4.58015C9.08998 4.35015 8.89998 4.15015 8.65998 4.15015C8.41998 4.15015 8.22998 4.34015 8.22998 4.58015C8.22998 4.82015 8.41998 5.01015 8.65998 5.01015C8.89998 5.01015 9.08998 4.82015 9.08998 4.58015Z" fill="#231F20"/>
<path d="M13.34 7.98004C13.34 7.75004 13.15 7.55005 12.91 7.55005C12.67 7.55005 12.48 7.74004 12.48 7.98004C12.48 8.22004 12.67 8.41005 12.91 8.41005C13.15 8.41005 13.34 8.22004 13.34 7.98004Z" fill="#231F20"/>
<path d="M13.09 5.3399C13.09 5.1099 12.9 4.90991 12.66 4.90991C12.42 4.90991 12.23 5.0999 12.23 5.3399C12.23 5.5799 12.42 5.76991 12.66 5.76991C12.9 5.76991 13.09 5.5799 13.09 5.3399Z" fill="#231F20"/>
<path d="M1.86 3.73004C1.86 3.50004 1.67 3.30005 1.43 3.30005C1.19 3.30005 1 3.49004 1 3.73004C1 3.97004 1.19 4.16005 1.43 4.16005C1.67 4.16005 1.86 3.97004 1.86 3.73004Z" fill="#231F20"/>
<path d="M5.43007 1.42999C5.43007 1.19999 5.24007 1 5.00007 1C4.76007 1 4.57007 1.18999 4.57007 1.42999C4.57007 1.66999 4.76007 1.86 5.00007 1.86C5.24007 1.86 5.43007 1.66999 5.43007 1.42999Z" fill="#231F20"/>
<path d="M10.4501 8.74007C10.4501 8.51007 10.2601 8.31006 10.0201 8.31006C9.78009 8.31006 9.59009 8.50007 9.59009 8.74007C9.59009 8.98007 9.78009 9.17006 10.0201 9.17006C10.2601 9.17006 10.4501 8.98007 10.4501 8.74007Z" fill="#231F20"/>
<path d="M4.67006 9.76007C4.67006 9.53007 4.48006 9.33008 4.24006 9.33008C4.00006 9.33008 3.81006 9.52007 3.81006 9.76007C3.81006 10.0001 4.00006 10.1901 4.24006 10.1901C4.48006 10.1901 4.67006 10.0001 4.67006 9.76007Z" fill="#231F20"/>
<path d="M11.81 12.3201C11.81 12.0901 11.62 11.8901 11.38 11.8901C11.14 11.8901 10.95 12.0801 10.95 12.3201C10.95 12.5601 11.14 12.7501 11.38 12.7501C11.62 12.7501 11.81 12.5601 11.81 12.3201Z" fill="#231F20"/>
<path d="M10.7001 1.26007C10.7001 1.03007 10.5101 0.830078 10.2701 0.830078C10.0301 0.830078 9.84009 1.02007 9.84009 1.26007C9.84009 1.50007 10.0301 1.69008 10.2701 1.69008C10.5101 1.69008 10.7001 1.50007 10.7001 1.26007Z" fill="#231F20"/>
<path d="M8.66005 12.91C8.66005 12.68 8.47005 12.48 8.23005 12.48C7.99005 12.48 7.80005 12.67 7.80005 12.91C7.80005 13.15 7.99005 13.34 8.23005 13.34C8.47005 13.34 8.66005 13.15 8.66005 12.91Z" fill="#231F20"/>
<path d="M3.72987 1.34993C3.72987 1.11993 3.53987 0.919922 3.29987 0.919922C3.05987 0.919922 2.86987 1.10993 2.86987 1.34993C2.86987 1.58993 3.05987 1.77992 3.29987 1.77992C3.53987 1.77992 3.72987 1.58993 3.72987 1.34993Z" fill="#231F20"/>
<path d="M8.57997 6.10994C8.57997 5.87994 8.38997 5.67993 8.14997 5.67993C7.90997 5.67993 7.71997 5.86994 7.71997 6.10994C7.71997 6.34994 7.90997 6.53993 8.14997 6.53993C8.38997 6.53993 8.57997 6.34994 8.57997 6.10994Z" fill="#231F20"/>
<path d="M6.27992 2.96002C6.27992 2.73002 6.08992 2.53003 5.84992 2.53003C5.60992 2.53003 5.41992 2.72002 5.41992 2.96002C5.41992 3.20002 5.60992 3.39003 5.84992 3.39003C6.08992 3.39003 6.27992 3.20002 6.27992 2.96002Z" fill="#231F20"/>
<path d="M6.02992 7.98004C6.02992 7.75004 5.83992 7.55005 5.59992 7.55005C5.35992 7.55005 5.16992 7.74004 5.16992 7.98004C5.16992 8.22004 5.35992 8.41005 5.59992 8.41005C5.83992 8.41005 6.02992 8.22004 6.02992 7.98004Z" fill="#231F20"/>
<path d="M6.11 5.94002C6.11 5.71002 5.92 5.51001 5.68 5.51001C5.44 5.51001 5.25 5.70002 5.25 5.94002C5.25 6.18002 5.44 6.37001 5.68 6.37001C5.92 6.37001 6.11 6.18002 6.11 5.94002Z" fill="#231F20"/>
<path d="M3.14003 6.35994C3.14003 6.12994 2.95003 5.92993 2.71003 5.92993C2.47003 5.92993 2.28003 6.11994 2.28003 6.35994C2.28003 6.59994 2.47003 6.78993 2.71003 6.78993C2.95003 6.78993 3.14003 6.59994 3.14003 6.35994Z" fill="#231F20"/>
</svg>
