<svg width="14" height="14" viewBox="0 0 14 14" fill="none" xmlns="http://www.w3.org/2000/svg">
<path d="M9.5498 3.48975L9.65723 3.50049C9.89866 3.54997 10.0801 3.76395 10.0801 4.02002C10.0801 4.27609 9.89866 4.49007 9.65723 4.53955L9.5498 4.55029H4.4502C4.15748 4.55029 3.91992 4.31273 3.91992 4.02002C3.91992 3.72731 4.15748 3.48975 4.4502 3.48975H9.5498Z" fill="#231F20"/>
<path d="M9.5498 6.46973L9.65723 6.48047C9.89866 6.52995 10.0801 6.74393 10.0801 7C10.0801 7.25607 9.89866 7.47005 9.65723 7.51953L9.5498 7.53027H4.4502C4.15748 7.53027 3.91992 7.29271 3.91992 7C3.91992 6.70729 4.15748 6.46973 4.4502 6.46973H9.5498Z" fill="#231F20"/>
<path d="M9.5498 9.44971L9.65723 9.46045C9.89866 9.50993 10.0801 9.72391 10.0801 9.97998C10.0801 10.2361 9.89866 10.45 9.65723 10.4995L9.5498 10.5103H4.4502C4.15748 10.5103 3.91992 10.2727 3.91992 9.97998C3.91992 9.68727 4.15748 9.44971 4.4502 9.44971H9.5498Z" fill="#231F20"/>
</svg>
