<svg width="14" height="16" viewBox="0 0 14 16" fill="none" xmlns="http://www.w3.org/2000/svg">
<path d="M10.8252 5.44971C10.8252 3.33722 9.11249 1.62451 7 1.62451C4.88751 1.62451 3.1748 3.33722 3.1748 5.44971C3.1748 7.5622 4.88751 9.2749 7 9.2749C9.11249 9.2749 10.8252 7.5622 10.8252 5.44971ZM11.6748 5.44971C11.6748 8.03164 9.58193 10.1245 7 10.1245C4.41807 10.1245 2.3252 8.03164 2.3252 5.44971C2.3252 2.86778 4.41807 0.774902 7 0.774902C9.58193 0.774902 11.6748 2.86778 11.6748 5.44971Z" fill="#231F20"/>
<path d="M5.7251 11.3997C5.7251 11.1649 5.91518 10.9749 6.1499 10.9749C6.38462 10.9749 6.57471 11.1649 6.57471 11.3997V14.3743H8.27002L8.35596 14.3831C8.54945 14.4228 8.69482 14.5948 8.69482 14.8C8.69465 15.0051 8.54931 15.1763 8.35596 15.2161L8.27002 15.2249H6.1499C5.9153 15.2249 5.7253 15.0346 5.7251 14.8V11.3997Z" fill="#231F20"/>
</svg>
