<svg width="14" height="14" viewBox="0 0 14 14" fill="none" xmlns="http://www.w3.org/2000/svg">
<path d="M7.00482 11.7823C7.59024 11.7823 8.06482 11.3078 8.06482 10.7224C8.06482 10.1369 7.59024 9.66235 7.00482 9.66235C6.4194 9.66235 5.94482 10.1369 5.94482 10.7224C5.94482 11.3078 6.4194 11.7823 7.00482 11.7823Z" fill="#231F20"/>
<path d="M12.2238 2.3425C12.3897 2.17637 12.6593 2.1757 12.8254 2.34152C12.9913 2.50732 12.991 2.77603 12.8254 2.94211L7.30588 8.47238C7.22622 8.55218 7.11785 8.59731 7.00509 8.59738C6.89231 8.59743 6.78406 8.55213 6.70431 8.47238L1.17404 2.94308L1.12033 2.8757C1.01147 2.71075 1.02884 2.48672 1.17404 2.34152C1.31924 2.19632 1.54326 2.17896 1.70822 2.28781L1.7756 2.34152L7.00412 7.57101L12.2238 2.3425Z" fill="#231F20"/>
</svg>
