<svg width="14" height="14" viewBox="0 0 14 14" fill="none" xmlns="http://www.w3.org/2000/svg">
<path d="M2.03903 2.0392C2.1841 1.89413 2.4083 1.87598 2.57321 1.98451L2.64059 2.0392L10.4599 9.85951L10.5146 9.92592C10.6237 10.0909 10.6052 10.3148 10.4599 10.4601C10.3146 10.6054 10.0907 10.6239 9.92575 10.5148L9.85934 10.4601L2.03903 2.64076L1.98532 2.57338C1.87646 2.40842 1.89383 2.1844 2.03903 2.0392Z" fill="#231F20"/>
<path d="M11.3598 8.34933C11.5257 8.18377 11.7945 8.1836 11.9604 8.34933C12.1263 8.51531 12.1263 8.78492 11.9604 8.9509L8.9506 11.9607C8.78462 12.1266 8.51501 12.1266 8.34904 11.9607C8.18317 11.7947 8.1831 11.525 8.34904 11.3591L11.3598 8.34933Z" fill="#231F20"/>
</svg>
