<svg width="14" height="14" viewBox="0 0 14 14" fill="none" xmlns="http://www.w3.org/2000/svg">
<path d="M11.4924 12.5524C12.0778 12.5524 12.5524 12.0778 12.5524 11.4924C12.5524 10.9069 12.0778 10.4324 11.4924 10.4324C10.9069 10.4324 10.4324 10.9069 10.4324 11.4924C10.4324 12.0778 10.9069 12.5524 11.4924 12.5524Z" fill="#231F20"/>
<path d="M9.26685 1.87231C9.26685 1.63759 9.45791 1.44751 9.69263 1.44751C9.9272 1.44768 10.1174 1.6377 10.1174 1.87231V9.69263C10.1173 9.9271 9.9271 10.1173 9.69263 10.1174H1.87231C1.6377 10.1174 1.44768 9.9272 1.44751 9.69263C1.44751 9.45791 1.63759 9.26685 1.87231 9.26685H9.26685V1.87231Z" fill="#231F20"/>
</svg>
