<svg width="14" height="14" viewBox="0 0 14 14" fill="none" xmlns="http://www.w3.org/2000/svg">
<path d="M11.1119 5.90767C10.5087 3.63658 8.17875 2.28416 5.90758 2.8872C3.63659 3.49037 2.28427 5.82043 2.88711 8.09151C3.49015 10.3627 5.82024 11.7148 8.09141 11.112C10.3627 10.5089 11.715 8.17895 11.1119 5.90767ZM11.934 5.68939C12.6575 8.41438 11.0347 11.2105 8.3097 11.9341C5.5848 12.6574 2.78946 11.0344 2.06595 8.30954C1.34264 5.58474 2.96484 2.78968 5.68955 2.06604C8.41444 1.34253 11.2103 2.96458 11.934 5.68939Z" fill="#231F20"/>
<path d="M4.60435 8.65288C4.80978 8.51671 5.0899 8.5386 5.27134 8.71929C5.47875 8.92584 5.47887 9.26188 5.27232 9.46929L2.87291 11.8794C2.66636 12.0869 2.33032 12.087 2.12291 11.8804C1.91581 11.6739 1.91475 11.3388 2.12095 11.1314L4.52134 8.72124L4.60435 8.65288Z" fill="#231F20"/>
</svg>
