<svg width="14" height="14" viewBox="0 0 14 14" fill="none" xmlns="http://www.w3.org/2000/svg">
<path d="M7.00507 9.97473C7.59049 9.97473 8.06506 9.50016 8.06506 8.91473C8.06506 8.32931 7.59049 7.85474 7.00507 7.85474C6.41964 7.85474 5.94507 8.32931 5.94507 8.91473C5.94507 9.50016 6.41964 9.97473 7.00507 9.97473Z" fill="#231F20"/>
<path d="M10.8301 9.55518V4.86963H3.16992V9.55518C3.16972 9.78973 2.97972 9.97998 2.74512 9.97998C2.51052 9.97998 2.32051 9.78973 2.32031 9.55518V4.44482C2.32031 4.2101 2.5104 4.02002 2.74512 4.02002H11.2549C11.4896 4.02002 11.6797 4.2101 11.6797 4.44482V9.55518C11.6795 9.78973 11.4895 9.97998 11.2549 9.97998C11.0204 9.97985 10.8303 9.78965 10.8301 9.55518Z" fill="#231F20"/>
</svg>
