<svg width="14" height="14" viewBox="0 0 14 14" fill="none" xmlns="http://www.w3.org/2000/svg">
<path d="M6.99994 3.60001C7.58536 3.60001 8.05994 3.12543 8.05994 2.54001C8.05994 1.95459 7.58536 1.47998 6.99994 1.47998C6.41452 1.47998 5.93994 1.95459 5.93994 2.54001C5.93994 3.12543 6.41452 3.60001 6.99994 3.60001Z" fill="#231F20"/>
<path d="M4.02515 12.1001V1.8999C4.02515 1.66518 4.21523 1.4751 4.44995 1.4751C4.68467 1.4751 4.87476 1.66518 4.87476 1.8999V12.1001C4.87466 12.3347 4.68461 12.5249 4.44995 12.5249C4.21529 12.5249 4.02525 12.3347 4.02515 12.1001Z" fill="#231F20"/>
<path d="M9.12524 12.1001V1.8999C9.12524 1.66518 9.31533 1.4751 9.55005 1.4751C9.78477 1.4751 9.97485 1.66518 9.97485 1.8999V12.1001C9.97475 12.3347 9.78471 12.5249 9.55005 12.5249C9.31539 12.5249 9.12534 12.3347 9.12524 12.1001Z" fill="#231F20"/>
</svg>
