<svg width="14" height="14" viewBox="0 0 14 14" fill="none" xmlns="http://www.w3.org/2000/svg">
<path d="M7.00018 3.59241C7.5856 3.59241 8.06018 3.11783 8.06018 2.53241C8.06018 1.94699 7.5856 1.47241 7.00018 1.47241C6.41476 1.47241 5.94019 1.94699 5.94019 2.53241C5.94019 3.11783 6.41476 3.59241 7.00018 3.59241Z" fill="#231F20"/>
<path d="M8.95508 12.1028V5.29712H5.04492V12.1028C5.04467 12.3373 4.85469 12.5276 4.62012 12.5276C4.38555 12.5276 4.19556 12.3373 4.19531 12.1028V4.87231C4.19531 4.63759 4.3854 4.44751 4.62012 4.44751H9.37988C9.6146 4.44751 9.80469 4.63759 9.80469 4.87231V12.1028C9.80444 12.3373 9.61445 12.5276 9.37988 12.5276C9.14542 12.5275 8.95533 12.3372 8.95508 12.1028Z" fill="#231F20"/>
</svg>
