<svg width="14" height="14" viewBox="0 0 14 14" fill="none" xmlns="http://www.w3.org/2000/svg">
<path d="M12.522 5.37145C11.6226 3.20055 9.13369 2.16947 6.9627 3.06872C4.7919 3.96808 3.76093 6.45707 4.65997 8.62799C5.55923 10.799 8.04822 11.8298 10.2192 10.9307C12.3903 10.0314 13.4213 7.54254 12.522 5.37145ZM13.3078 5.04594C14.3868 7.65074 13.1495 10.6376 10.5447 11.7166C7.94002 12.7953 4.95394 11.5578 3.87504 8.95312C2.79634 6.34849 4.03306 3.36279 6.63757 2.28378C9.24227 1.20488 12.2288 2.44134 13.3078 5.04594Z" fill="#231F20"/>
<path d="M2.42249 6.99592C2.42249 6.40592 1.9425 5.93592 1.3625 5.93592C0.782495 5.93592 0.30249 6.41592 0.30249 6.99592C0.30249 7.57592 0.782495 8.05592 1.3625 8.05592C1.9425 8.05592 2.42249 7.57592 2.42249 6.99592Z" fill="#231F20"/>
</svg>
