<svg width="14" height="14" viewBox="0 0 14 14" fill="none" xmlns="http://www.w3.org/2000/svg">
<path d="M12.3825 4.98879C11.2719 3.19185 8.91449 2.63547 7.11755 3.74615C5.32061 4.85683 4.76422 7.21419 5.8749 9.01113C6.98558 10.8081 9.34295 11.3645 11.1399 10.2538C12.9368 9.1431 13.4932 6.78574 12.3825 4.98879ZM13.1052 4.5421C14.4627 6.73836 13.7828 9.61898 11.5866 10.9765C9.39032 12.334 6.5097 11.6541 5.1522 9.45783C3.7947 7.26157 4.47459 4.38094 6.67085 3.02344C8.86712 1.66595 11.7477 2.34583 13.1052 4.5421Z" fill="#231F20"/>
<path d="M0.195557 5.31334C0.195557 5.07862 0.38564 4.88854 0.620361 4.88854C0.855082 4.88854 1.04517 5.07862 1.04517 5.31334V8.29869H2.74048L2.82642 8.30651C3.01993 8.34625 3.16528 8.51822 3.16528 8.7235C3.1652 8.92865 3.01981 9.09973 2.82642 9.13951L2.74048 9.1483H0.620361C0.385701 9.1483 0.195656 8.95813 0.195557 8.7235V5.31334Z" fill="#231F20"/>
</svg>
