<svg width="14" height="14" viewBox="0 0 14 14" fill="none" xmlns="http://www.w3.org/2000/svg">
<path d="M11.5659 4.71758C10.3052 2.19579 7.23906 1.17283 4.71724 2.4333C2.19536 3.69396 1.17274 6.76093 2.4334 9.2828C3.69413 11.8045 6.76067 12.8264 9.28246 11.5658C11.8041 10.3051 12.8263 7.23932 11.5659 4.71758ZM12.3267 4.33725C13.797 7.27889 12.6043 10.856 9.66279 12.3266C6.7211 13.7971 3.14409 12.6043 1.67345 9.66269C0.202889 6.72092 1.39558 3.14391 4.33735 1.67335C7.27907 0.20298 10.8562 1.39556 12.3267 4.33725Z" fill="#231F20"/>
<path d="M5.08776 6.9847C5.08776 6.3947 4.60776 5.9247 4.02776 5.9247C3.44776 5.9247 2.96776 6.4047 2.96776 6.9847C2.96776 7.5647 3.44776 8.0447 4.02776 8.0447C4.60776 8.0447 5.08776 7.5647 5.08776 6.9847Z" fill="#231F20"/>
</svg>
