<svg width="14" height="14" viewBox="0 0 14 14" fill="none" xmlns="http://www.w3.org/2000/svg">
<path d="M12.6396 6.46997L12.7471 6.48071C12.9885 6.53018 13.1699 6.74416 13.1699 7.00024C13.1699 7.25633 12.9885 7.47031 12.7471 7.51978L12.6396 7.53052H1.58008C1.28737 7.53052 1.0498 7.29296 1.0498 7.00024C1.0498 6.70753 1.28737 6.46997 1.58008 6.46997H12.6396Z" fill="#231F20"/>
<path d="M3.75488 4.07511C3.96183 3.86816 4.2979 3.86823 4.50488 4.07511C4.71186 4.28208 4.71186 4.61813 4.50488 4.82511L2.3291 6.99991L4.50488 9.17569C4.71163 9.38265 4.7117 9.71779 4.50488 9.92472C4.2979 10.1317 3.96186 10.1317 3.75488 9.92472L0.830078 6.99991L3.75488 4.07511Z" fill="#231F20"/>
</svg>
