<svg width="14" height="14" viewBox="0 0 14 14" fill="none" xmlns="http://www.w3.org/2000/svg">
<path d="M3.06727 7.00018C3.06727 6.41018 2.58727 5.94019 2.00727 5.94019C1.42727 5.94019 0.947266 6.42018 0.947266 7.00018C0.947266 7.58018 1.42727 8.06018 2.00727 8.06018C2.58727 8.06018 3.06727 7.58018 3.06727 7.00018Z" fill="#231F20"/>
<path d="M12.4998 4.04488C12.7235 3.97444 12.9623 4.09855 13.033 4.32223C13.1035 4.54592 12.9793 4.78466 12.7556 4.85543L5.96753 6.99996L12.7556 9.14449L12.8347 9.17867C13.0074 9.27482 13.0948 9.48285 13.033 9.67867C12.971 9.87428 12.7802 9.99311 12.5837 9.97262L12.4998 9.95504L4.42944 7.40523C4.25267 7.34937 4.13257 7.18535 4.13257 6.99996C4.13265 6.81465 4.25273 6.65052 4.42944 6.59469L12.4998 4.04488Z" fill="#231F20"/>
</svg>
