<svg width="15" height="14" viewBox="0 0 15 14" fill="none" xmlns="http://www.w3.org/2000/svg">
<path d="M1.42241 0.535275C1.67067 0.473559 1.92145 0.598386 2.02788 0.820432L2.06499 0.921994L2.21733 1.59582C2.93178 5.0574 2.88155 9.82124 2.06499 13.088L2.02788 13.1896C1.92131 13.4118 1.66984 13.5359 1.42143 13.4738C1.13771 13.4026 0.964734 13.115 1.03569 12.8312L1.18218 12.1905C1.81676 9.11549 1.81693 4.90343 1.18218 1.82043L1.03569 1.17785L1.02104 1.07141C1.0108 0.825283 1.17404 0.597186 1.42241 0.535275Z" fill="black"/>
<path d="M4.45182 13.0545C4.39961 13.3422 4.12433 13.533 3.83658 13.4813C3.54866 13.4292 3.35704 13.1539 3.40885 12.866L4.45182 13.0545ZM12.9206 6.99982C12.9206 6.63106 12.7704 6.40561 12.4743 6.22833C12.1388 6.02757 11.6235 5.9011 10.9538 5.8338C10.2947 5.7676 9.55051 5.76348 8.79166 5.7674C8.04541 5.77125 7.27647 5.78318 6.6149 5.73908C5.92585 5.69312 5.36906 5.5459 4.92838 5.2713C4.47745 4.99027 4.19287 4.60319 4.00455 4.16193C3.8224 3.73496 3.7264 3.24757 3.65006 2.75275C3.5697 2.23185 3.51351 1.72477 3.40885 1.13166C3.35812 0.843479 3.55035 0.56923 3.83853 0.518374C4.12671 0.467644 4.40096 0.659879 4.45182 0.948061C4.55712 1.54483 4.62734 2.13317 4.69791 2.59064C4.7725 3.07414 4.8526 3.44924 4.97916 3.74591C5.09957 4.02807 5.25664 4.22713 5.48892 4.37189C5.73157 4.52306 6.09977 4.64239 6.68521 4.68146C7.29862 4.72235 8.01801 4.71179 8.7858 4.70783C9.5408 4.70393 10.3372 4.70661 11.0592 4.77912C11.7705 4.85056 12.4772 4.99537 13.0182 5.31916C13.5986 5.66656 13.9801 6.21862 13.9801 6.99982C13.9801 7.78104 13.5986 8.33308 13.0182 8.68048C12.4772 9.00428 11.7705 9.14907 11.0592 9.22052C10.3372 9.29303 9.54081 9.29571 8.7858 9.29181C8.01801 9.28785 7.29862 9.27826 6.68521 9.31915C6.09976 9.35823 5.73251 9.47685 5.49088 9.62775C5.25957 9.77223 5.1031 9.9712 4.98307 10.2537C4.85699 10.5506 4.77692 10.9252 4.70182 11.409C4.63036 11.8694 4.56017 12.4547 4.45182 13.0545L3.93033 12.9598L3.40885 12.866C3.51548 12.2758 3.57356 11.7649 3.65396 11.2469C3.73069 10.7526 3.82617 10.2654 4.00748 9.83869C4.19493 9.39754 4.47887 9.01073 4.92935 8.72931C5.36951 8.45436 5.92578 8.30652 6.6149 8.26056C7.27647 8.21646 8.04541 8.22839 8.79166 8.23224C9.55051 8.23615 10.2947 8.23204 10.9538 8.16583C11.6236 8.09854 12.1388 7.97208 12.4743 7.7713C12.7704 7.59402 12.9206 7.3686 12.9206 6.99982Z" fill="black"/>
</svg>
