<svg width="15" height="15" viewBox="0 0 15 15" fill="none" xmlns="http://www.w3.org/2000/svg">
<path d="M6.09027 2.46211C6.29699 2.25489 6.63206 2.25442 6.83929 2.46114C7.04649 2.66784 7.04692 3.00293 6.84027 3.21016L2.76019 7.3C2.55347 7.50724 2.2184 7.50771 2.01117 7.30098C1.80398 7.09425 1.80348 6.75917 2.01019 6.55196L6.09027 2.46211Z" fill="#231F20"/>
<path d="M2.76021 11.3811C2.55335 11.588 2.21726 11.5879 2.01021 11.3811C1.80346 11.1743 1.80367 10.8391 2.01021 10.632L2.76021 11.3811ZM10.1704 2.46114C10.3772 2.2544 10.7124 2.25457 10.9194 2.46114C11.1265 2.66799 11.1272 3.00404 10.9204 3.21114L2.76021 11.3811L2.38521 11.0061L2.01021 10.632L10.1704 2.46114Z" fill="#231F20"/>
<path d="M4.80025 13.4211C4.59339 13.628 4.2573 13.6279 4.05025 13.4211C3.84349 13.2143 3.84371 12.8791 4.05025 12.6721L4.80025 13.4211ZM12.2104 4.50118C12.4172 4.29444 12.7524 4.29461 12.9594 4.50118C13.1665 4.70803 13.1673 5.04408 12.9604 5.25118L4.80025 13.4211L4.42525 13.0461L4.05025 12.6721L12.2104 4.50118Z" fill="#231F20"/>
<path d="M12.2104 8.59125C12.4174 8.38431 12.7534 8.38428 12.9604 8.59125C13.1673 8.79822 13.1673 9.13428 12.9604 9.34125L8.88032 13.4213C8.67335 13.6283 8.33729 13.6283 8.13032 13.4213C7.92335 13.2144 7.92337 12.8783 8.13032 12.6713L12.2104 8.59125Z" fill="#231F20"/>
<path d="M12.5854 2.30591C12.8781 2.30602 13.1157 2.54354 13.1157 2.83618V13.0364C13.1156 13.3289 12.878 13.5665 12.5854 13.5667H2.38525C2.0926 13.5667 1.85508 13.329 1.85498 13.0364V2.83618C1.85498 2.54347 2.09254 2.30591 2.38525 2.30591H12.5854ZM2.91553 12.5061H12.0552V3.36646H2.91553V12.5061Z" fill="#231F20"/>
</svg>
