<svg width="14" height="14" viewBox="0 0 14 14" fill="none" xmlns="http://www.w3.org/2000/svg">
<path d="M6.99477 0.389648C8.22739 0.389758 9.22524 1.38747 9.22524 2.62012C9.22515 3.66981 8.50097 4.54641 7.52505 4.78418V5.12207L10.2379 6.66992L10.3248 6.73145C10.5103 6.894 10.5621 7.17003 10.4352 7.39258C10.3082 7.61502 10.0445 7.71061 9.8102 7.63379L9.71255 7.58984L7.52505 6.3418V8.66113L10.4088 12.7754C10.5768 13.015 10.5185 13.3456 10.279 13.5137C10.0693 13.6606 9.79008 13.6351 9.61098 13.4658L9.54067 13.3848L6.99477 9.75391L4.45962 13.3838C4.29197 13.6237 3.96125 13.6822 3.72133 13.5146C3.48142 13.347 3.42281 13.0163 3.59047 12.7764L6.46547 8.66113V6.34277L4.28872 7.58984C4.03479 7.73519 3.71059 7.64733 3.56508 7.39355C3.41973 7.13961 3.50755 6.81541 3.76137 6.66992L6.46547 5.12207V4.78418C5.48926 4.54661 4.76537 3.67001 4.76528 2.62012C4.76528 1.3875 5.7622 0.389806 6.99477 0.389648Z" fill="#231F20"/>
</svg>
