<svg width="15" height="14" viewBox="0 0 15 14" fill="none" xmlns="http://www.w3.org/2000/svg">
<path d="M5.375 6.46997L5.48145 6.48071C5.72313 6.53 5.90527 6.744 5.90527 7.00024C5.90527 7.25649 5.72313 7.47049 5.48145 7.51978L5.375 7.53052H1.54492C1.25221 7.53052 1.01465 7.29296 1.01465 7.00024C1.01465 6.70753 1.25221 6.46997 1.54492 6.46997H5.375Z" fill="#231F20"/>
<path d="M6.9646 12.9507V9.13037C6.9646 8.83766 7.20216 8.6001 7.49487 8.6001C7.78758 8.6001 8.02515 8.83766 8.02515 9.13037V12.9507C8.02498 13.2433 7.78748 13.48 7.49487 13.48C7.20226 13.48 6.96476 13.2433 6.9646 12.9507Z" fill="#231F20"/>
<path d="M13.4551 6.46997L13.5615 6.48071C13.8032 6.53001 13.9854 6.74401 13.9854 7.00024C13.9854 7.25648 13.8032 7.47048 13.5615 7.51978L13.4551 7.53052H9.625C9.33229 7.53052 9.09473 7.29296 9.09473 7.00024C9.09473 6.70753 9.33229 6.46997 9.625 6.46997H13.4551Z" fill="#231F20"/>
<path d="M6.9646 4.87061V1.05029C6.9646 0.757582 7.20216 0.52002 7.49487 0.52002C7.78758 0.52002 8.02515 0.757582 8.02515 1.05029V4.87061C8.02497 5.16316 7.78747 5.3999 7.49487 5.3999C7.20227 5.3999 6.96478 5.16316 6.9646 4.87061Z" fill="#231F20"/>
<path d="M5.6191 8.12618C5.8257 7.91882 6.16174 7.91861 6.3691 8.1252C6.57616 8.33182 6.57657 8.66697 6.37008 8.87423L3.66988 11.5842C3.46336 11.7913 3.12818 11.7924 2.92086 11.5861C2.7135 11.3795 2.71329 11.0435 2.91988 10.8361L5.6191 8.12618Z" fill="#231F20"/>
<path d="M2.921 2.41539C3.12829 2.20886 3.46341 2.20921 3.67002 2.41636L6.37022 5.12632L6.43858 5.20933C6.57404 5.4153 6.55069 5.69555 6.36924 5.87632C6.16187 6.08275 5.82578 6.08167 5.61924 5.87437L2.92002 3.16441C2.7135 2.95712 2.71384 2.622 2.921 2.41539Z" fill="#231F20"/>
<path d="M8.63096 8.12535C8.83825 7.91882 9.17337 7.91917 9.37998 8.12632L12.0802 10.8363L12.1485 10.9193C12.284 11.1253 12.2606 11.4055 12.0792 11.5863C11.8718 11.7927 11.5357 11.7916 11.3292 11.5843L8.62999 8.87437C8.42346 8.66708 8.42381 8.33196 8.63096 8.12535Z" fill="#231F20"/>
<path d="M11.3291 2.41622C11.5357 2.20886 11.8717 2.20865 12.0791 2.41524C12.2861 2.62186 12.2865 2.95701 12.08 3.16427L9.37984 5.87423C9.17332 6.08131 8.83814 6.08244 8.63082 5.87618C8.42346 5.66959 8.42325 5.33354 8.62984 5.12618L11.3291 2.41622Z" fill="#231F20"/>
</svg>
