<svg width="15" height="14" viewBox="0 0 15 14" fill="none" xmlns="http://www.w3.org/2000/svg">
<path d="M3.87033 1.90001C3.87033 1.55001 3.58033 1.26001 3.23033 1.26001C2.88033 1.26001 2.59033 1.55001 2.59033 1.90001C2.59033 2.25001 2.88033 2.54001 3.23033 2.54001C3.58033 2.54001 3.87033 2.25001 3.87033 1.90001Z" fill="black"/>
<path d="M6.00021 3.17003C6.00021 2.82003 5.71021 2.53003 5.36021 2.53003C5.01021 2.53003 4.72021 2.82003 4.72021 3.17003C4.72021 3.52003 5.01021 3.81003 5.36021 3.81003C5.71021 3.81003 6.00021 3.52003 6.00021 3.17003Z" fill="black"/>
<path d="M8.13034 4.45006C8.13034 4.10006 7.84034 3.81006 7.49034 3.81006C7.14034 3.81006 6.85034 4.10006 6.85034 4.45006C6.85034 4.80006 7.14034 5.09006 7.49034 5.09006C7.84034 5.09006 8.13034 4.80006 8.13034 4.45006Z" fill="black"/>
<path d="M10.2502 5.72008C10.2502 5.37008 9.96021 5.08008 9.61021 5.08008C9.26021 5.08008 8.97021 5.37008 8.97021 5.72008C8.97021 6.07008 9.26021 6.36008 9.61021 6.36008C9.96021 6.36008 10.2502 6.07008 10.2502 5.72008Z" fill="black"/>
<path d="M12.3803 7.00011C12.3803 6.65011 12.0903 6.36011 11.7403 6.36011C11.3903 6.36011 11.1003 6.65011 11.1003 7.00011C11.1003 7.35011 11.3903 7.64011 11.7403 7.64011C12.0903 7.64011 12.3803 7.35011 12.3803 7.00011Z" fill="black"/>
<path d="M10.2502 8.27013C10.2502 7.92013 9.96021 7.63013 9.61021 7.63013C9.26021 7.63013 8.97021 7.92013 8.97021 8.27013C8.97021 8.62013 9.26021 8.91013 9.61021 8.91013C9.96021 8.91013 10.2502 8.62013 10.2502 8.27013Z" fill="black"/>
<path d="M8.13034 9.55016C8.13034 9.20016 7.84034 8.91016 7.49034 8.91016C7.14034 8.91016 6.85034 9.20016 6.85034 9.55016C6.85034 9.90016 7.14034 10.1902 7.49034 10.1902C7.84034 10.1902 8.13034 9.90016 8.13034 9.55016Z" fill="black"/>
<path d="M6.00021 10.8202C6.00021 10.4702 5.71021 10.1802 5.36021 10.1802C5.01021 10.1802 4.72021 10.4702 4.72021 10.8202C4.72021 11.1702 5.01021 11.4602 5.36021 11.4602C5.71021 11.4602 6.00021 11.1702 6.00021 10.8202Z" fill="black"/>
<path d="M3.87033 12.1C3.87033 11.75 3.58033 11.46 3.23033 11.46C2.88033 11.46 2.59033 11.75 2.59033 12.1C2.59033 12.45 2.88033 12.74 3.23033 12.74C3.58033 12.74 3.87033 12.45 3.87033 12.1Z" fill="black"/>
</svg>
