<svg width="15" height="14" viewBox="0 0 15 14" fill="none" xmlns="http://www.w3.org/2000/svg">
<path d="M12.9248 8.70508V5.8252H2.0752V8.70508C2.0751 8.9977 1.83757 9.23535 1.54492 9.23535C1.25227 9.23535 1.01475 8.9977 1.01465 8.70508V5.29492C1.01465 5.00221 1.25221 4.76465 1.54492 4.76465H13.4551C13.7477 4.76474 13.9854 5.00227 13.9854 5.29492V8.70508C13.9853 8.99765 13.7477 9.23526 13.4551 9.23535C13.1624 9.23535 12.9249 8.9977 12.9248 8.70508Z" fill="#231F20"/>
<path d="M4.98462 8.70532V5.72485C4.98462 5.43214 5.22218 5.19458 5.51489 5.19458C5.8076 5.19458 6.04517 5.43214 6.04517 5.72485V8.70532C6.0449 8.99781 5.80744 9.23462 5.51489 9.23462C5.22234 9.23462 4.98488 8.99781 4.98462 8.70532Z" fill="#231F20"/>
<path d="M8.95459 8.70532V5.72485C8.95459 5.43214 9.19215 5.19458 9.48486 5.19458C9.77757 5.19458 10.0151 5.43214 10.0151 5.72485V8.70532C10.0149 8.99781 9.77741 9.23462 9.48486 9.23462C9.19232 9.23462 8.95485 8.99781 8.95459 8.70532Z" fill="#231F20"/>
</svg>
