<svg width="13" height="14" viewBox="0 0 13 14" fill="none" xmlns="http://www.w3.org/2000/svg">
<path d="M7.65576 1.50073C7.65576 1.20802 7.89332 0.970459 8.18604 0.970459C8.47857 0.970665 8.71533 1.20815 8.71533 1.50073V4.05054C8.71533 4.1911 8.65945 4.32614 8.56006 4.42554L3.46045 9.52515C3.36105 9.62454 3.22601 9.68042 3.08545 9.68042H0.535645C0.243066 9.68042 0.00558528 9.44365 0.00537109 9.15112C0.00537109 8.85841 0.242934 8.62085 0.535645 8.62085H2.86572L7.65576 3.83081V1.50073Z" fill="#231F20"/>
<path d="M4.25537 13.4109V10.8503C4.25547 10.7101 4.31153 10.5756 4.41064 10.4763L9.51123 5.37573L9.59131 5.30933C9.67764 5.25176 9.77997 5.22054 9.88525 5.22046H12.436L12.5425 5.2312C12.784 5.2806 12.9653 5.49459 12.9653 5.75073C12.9653 6.00687 12.784 6.22086 12.5425 6.27026L12.436 6.28101H10.105L5.31592 11.0701V13.4109C5.31583 13.7035 5.0783 13.9412 4.78564 13.9412C4.49299 13.9412 4.25546 13.7035 4.25537 13.4109Z" fill="#231F20"/>
</svg>
