<svg width="15" height="14" viewBox="0 0 15 14" fill="none" xmlns="http://www.w3.org/2000/svg">
<path d="M10.4058 12.3213V11.4717C10.4058 11.1425 10.301 10.9345 10.1812 10.8116C10.0582 10.6855 9.89363 10.6212 9.72609 10.6211C9.55838 10.6211 9.39311 10.6853 9.27003 10.8116C9.15017 10.9345 9.04542 11.1425 9.04542 11.4717C9.04534 11.9923 8.87403 12.4227 8.5796 12.7247C8.28844 13.0232 7.90068 13.1708 7.51613 13.1709C7.13141 13.1709 6.74295 13.0233 6.45167 12.7247C6.15725 12.4227 5.98594 11.9923 5.98585 11.4717C5.98585 11.1425 5.88112 10.9345 5.76124 10.8116C5.63829 10.6855 5.4737 10.6213 5.30617 10.6211C5.13846 10.6211 4.97319 10.6853 4.85011 10.8116C4.73024 10.9345 4.6255 11.1425 4.6255 11.4717V12.3213C4.6255 12.5561 4.43542 12.7461 4.2007 12.7461C3.96598 12.7461 3.77589 12.5561 3.77589 12.3213V11.4717C3.77589 10.9511 3.94733 10.5208 4.24171 10.2188C4.53301 9.92002 4.92138 9.77153 5.30617 9.77153C5.6908 9.77165 6.07846 9.92015 6.36964 10.2188C6.66403 10.5208 6.83546 10.9511 6.83546 11.4717C6.83555 11.8006 6.94029 12.008 7.06007 12.1309C7.18315 12.2571 7.34842 12.3213 7.51613 12.3213C7.68369 12.3212 7.84823 12.257 7.97121 12.1309C8.09101 12.008 8.19573 11.8007 8.19581 11.4717C8.19581 10.9511 8.36728 10.5208 8.66163 10.2188C8.95293 9.92002 9.3413 9.77153 9.72609 9.77153C10.1107 9.77163 10.4984 9.92013 10.7896 10.2188C11.084 10.5208 11.2554 10.951 11.2554 11.4717V12.3213C11.2554 12.5561 11.0653 12.7461 10.8306 12.7461C10.5959 12.7461 10.4058 12.556 10.4058 12.3213Z" fill="black"/>
<path d="M10.6526 4.49334C10.3174 2.75256 8.6343 1.61318 6.89353 1.94828C5.15268 2.28351 4.01324 3.96647 4.34847 5.70732C4.68382 7.44803 6.36674 8.5876 8.10751 8.25238C9.84815 7.91705 10.9876 6.23403 10.6526 4.49334ZM11.693 4.29298C12.1388 6.60853 10.6234 8.84681 8.30787 9.29283C5.99224 9.73875 3.7531 8.22344 3.30706 5.90786C2.86112 3.59215 4.37728 1.3528 6.69299 0.906864C9.00862 0.46107 11.2471 1.97734 11.693 4.29298Z" fill="black"/>
</svg>
