<svg width="13" height="13" viewBox="0 0 13 13" fill="none" xmlns="http://www.w3.org/2000/svg">
<path d="M3.99512 12.4402V9.89038C3.99512 9.59767 4.23268 9.36011 4.52539 9.36011C4.8181 9.36011 5.05566 9.59767 5.05566 9.89038V12.4402C5.05566 12.7329 4.8181 12.9705 4.52539 12.9705C4.23268 12.9705 3.99512 12.7329 3.99512 12.4402Z" fill="black"/>
<path d="M7.90503 12.4402V9.89038C7.90503 9.59767 8.14259 9.36011 8.4353 9.36011C8.72801 9.36011 8.96558 9.59767 8.96558 9.89038V12.4402C8.96558 12.7329 8.72801 12.9705 8.4353 12.9705C8.14259 12.9705 7.90503 12.7329 7.90503 12.4402Z" fill="black"/>
<path d="M8.43506 1.1689e-07C8.65973 -8.43919e-05 8.86016 0.141722 8.93506 0.353516L12.0855 9.28418C12.1425 9.44629 12.1174 9.6263 12.0181 9.7666C11.9188 9.90692 11.7574 9.99017 11.5855 9.99023H1.38526C1.21336 9.99023 1.052 9.90687 0.952638 9.7666C0.853327 9.62635 0.828247 9.44631 0.885255 9.28418L4.0249 0.354492C4.09948 0.142414 4.3001 0.000153172 4.5249 1.1689e-07C4.74961 -0.000148637 4.94997 0.141693 5.0249 0.353516L6.48291 4.48438L7.93506 0.354492L7.96924 0.27832C8.06063 0.109157 8.2384 0.000121899 8.43506 1.1689e-07ZM2.1333 8.93066H10.8364L8.43506 2.12598L6.98486 6.25586C6.91034 6.4679 6.71059 6.61011 6.48584 6.61035C6.26107 6.61053 6.06076 6.46874 5.98584 6.25684L4.52588 2.12402L2.1333 8.93066Z" fill="black"/>
</svg>
