<svg width="15" height="14" viewBox="0 0 15 14" fill="none" xmlns="http://www.w3.org/2000/svg">
<path d="M13.4549 1.05005H1.54492V2.11005H13.4549V1.05005Z" fill="#231F20"/>
<path fill-rule="evenodd" clip-rule="evenodd" d="M13.4549 3.76001V4.82001H10.6449L10.2049 4.29004L9.53491 3.76001H13.4549Z" fill="#231F20"/>
<path fill-rule="evenodd" clip-rule="evenodd" d="M1.54492 3.76001V4.82001H4.35492L4.79492 4.29004L5.46492 3.76001H1.54492Z" fill="#231F20"/>
<path fill-rule="evenodd" clip-rule="evenodd" d="M1.54492 6.46997V7.52997H3.70491L3.67491 6.99994L3.70491 6.46997H1.54492Z" fill="#231F20"/>
<path fill-rule="evenodd" clip-rule="evenodd" d="M13.4549 6.46997V7.52997H11.2849L11.3249 6.99994L11.2849 6.46997H13.4549Z" fill="#231F20"/>
<path fill-rule="evenodd" clip-rule="evenodd" d="M13.4549 10.2399V9.17993H10.6449L10.2049 9.70996L9.53491 10.2399H13.4549Z" fill="#231F20"/>
<path fill-rule="evenodd" clip-rule="evenodd" d="M1.54492 10.2399V9.17993H4.35492L4.79492 9.70996L5.46492 10.2399H1.54492Z" fill="#231F20"/>
<path d="M13.4549 11.8901H1.54492V12.9501H13.4549V11.8901Z" fill="#231F20"/>
</svg>
