<svg width="7" height="13" viewBox="0 0 7 13" fill="none" xmlns="http://www.w3.org/2000/svg">
<path d="M2.95532 11.7917V0.741943C2.95532 0.449232 3.19288 0.21167 3.4856 0.21167C3.77831 0.21167 4.01587 0.449232 4.01587 0.741943V11.7917C4.01587 12.0845 3.77831 12.322 3.4856 12.322C3.19288 12.322 2.95532 12.0845 2.95532 11.7917Z" fill="#231F20"/>
<path d="M3.19425 0.299588C3.39992 0.163893 3.6792 0.186 3.86027 0.366971L6.41007 2.91678C6.61705 3.12375 6.61705 3.4598 6.41007 3.66678C6.20315 3.87359 5.86801 3.87351 5.66105 3.66678L3.48527 1.49099L1.31046 3.66678C1.10348 3.87375 0.767439 3.87375 0.560462 3.66678C0.353575 3.45979 0.353513 3.12372 0.560462 2.91678L3.11027 0.366971L3.19425 0.299588Z" fill="#231F20"/>
<path d="M6.03516 11.2615L6.14258 11.2722C6.38401 11.3217 6.56543 11.5357 6.56543 11.7917C6.56543 12.0478 6.38401 12.2618 6.14258 12.3113L6.03516 12.322H0.935547C0.642836 12.322 0.405273 12.0845 0.405273 11.7917C0.405273 11.499 0.642836 11.2615 0.935547 11.2615H6.03516Z" fill="#231F20"/>
</svg>
