<svg width="14" height="14" viewBox="0 0 14 14" fill="none" xmlns="http://www.w3.org/2000/svg">
<path d="M6.46997 12.5249V1.4751C6.46997 1.18239 6.70753 0.944824 7.00024 0.944824C7.29296 0.944824 7.53052 1.18239 7.53052 1.4751V12.5249C7.53052 12.8176 7.29296 13.0552 7.00024 13.0552C6.70753 13.0552 6.46997 12.8176 6.46997 12.5249Z" fill="#231F20"/>
<path d="M6.7089 1.03274C6.91457 0.897047 7.19385 0.919154 7.37491 1.10013L9.92472 3.64993C10.1317 3.85691 10.1317 4.19295 9.92472 4.39993C9.7178 4.60674 9.38266 4.60667 9.1757 4.39993L6.99991 2.22415L4.82511 4.39993C4.61813 4.60691 4.28209 4.60691 4.07511 4.39993C3.86822 4.19294 3.86816 3.85688 4.07511 3.64993L6.62491 1.10013L6.7089 1.03274Z" fill="#231F20"/>
<path d="M9.5498 11.9946L9.65723 12.0054C9.89866 12.0549 10.0801 12.2688 10.0801 12.5249C10.0801 12.781 9.89866 12.995 9.65723 13.0444L9.5498 13.0552H4.4502C4.15748 13.0552 3.91992 12.8176 3.91992 12.5249C3.91992 12.2322 4.15748 11.9946 4.4502 11.9946H9.5498Z" fill="#231F20"/>
</svg>
