<svg width="15" height="15" viewBox="0 0 15 15" fill="none" xmlns="http://www.w3.org/2000/svg">
<path d="M7.48083 2.55225C8.30133 2.55238 8.81094 2.97792 9.12146 3.49854C9.33554 3.85755 9.46216 4.27662 9.55408 4.62842C9.91707 4.60655 10.355 4.59895 10.764 4.69287C11.3555 4.82876 11.9182 5.18406 12.1742 5.96436L12.1752 5.96631C12.4255 6.74292 12.1785 7.35942 11.7806 7.81592C11.505 8.13219 11.146 8.38248 10.8373 8.57861C10.9701 8.91756 11.1125 9.33177 11.1498 9.74951C11.2036 10.3531 11.0418 10.9992 10.3802 11.481C9.71872 11.9624 9.0542 11.9175 8.49646 11.6802C8.11035 11.5159 7.76096 11.2526 7.47986 11.021C7.19883 11.2525 6.85009 11.516 6.46423 11.6802C5.90646 11.9175 5.24201 11.9625 4.58044 11.481C3.91888 10.9992 3.75708 10.3531 3.81091 9.74951C3.84824 9.33145 3.99049 8.91673 4.12341 8.57764C3.81789 8.38213 3.45948 8.13177 3.18396 7.81689C2.78555 7.36147 2.53474 6.74437 2.78552 5.96631C3.03672 5.18719 3.60277 4.83597 4.19275 4.70068C4.60169 4.60697 5.04179 4.61234 5.40466 4.63135C5.49663 4.27891 5.62452 3.85864 5.83923 3.49854C6.1498 2.97784 6.66011 2.55225 7.48083 2.55225ZM7.48083 3.40186C7.0216 3.40186 6.76066 3.61135 6.56872 3.93311C6.35672 4.28855 6.25413 4.74169 6.14294 5.18115L6.05603 5.52197L5.70544 5.50146C5.25482 5.47496 4.78981 5.43569 4.38318 5.52881C4.01344 5.61354 3.73392 5.79674 3.59509 6.22705C3.45593 6.65881 3.57469 6.9728 3.82361 7.25732C4.09678 7.56952 4.49634 7.80951 4.87536 8.04639L5.1781 8.23584L5.04431 8.56689C4.87611 8.98213 4.69451 9.41166 4.65759 9.82471C4.62399 10.201 4.7122 10.5253 5.08044 10.7935C5.44862 11.0615 5.78424 11.0464 6.13122 10.8989C6.51196 10.737 6.86487 10.4313 7.20544 10.1431L7.48083 9.91064L7.75525 10.1431C8.09586 10.4313 8.44869 10.7369 8.82947 10.8989C9.17651 11.0465 9.51201 11.0616 9.88025 10.7935C10.2486 10.5252 10.3367 10.201 10.3031 9.82471C10.2662 9.41164 10.0846 8.98214 9.91638 8.56689L9.78161 8.23389L10.0873 8.04541C10.4694 7.80985 10.8688 7.56853 11.14 7.25732C11.387 6.9739 11.5052 6.66024 11.3656 6.22705C11.2212 5.78995 10.9387 5.60487 10.5736 5.521C10.1705 5.42849 9.7079 5.46986 9.26013 5.50146L8.90564 5.52588L8.81872 5.18115C8.70752 4.74163 8.604 4.2886 8.39197 3.93311C8.20009 3.61149 7.93978 3.40197 7.48083 3.40186Z" fill="black"/>
<path d="M7.48018 8.547C8.0656 8.547 8.54018 8.07242 8.54018 7.487C8.54018 6.90158 8.0656 6.427 7.48018 6.427C6.89476 6.427 6.42017 6.90158 6.42017 7.487C6.42017 8.07242 6.89476 8.547 7.48018 8.547Z" fill="black"/>
<path d="M13.4404 0.83667C13.7331 0.836752 13.9707 1.07428 13.9707 1.36694V13.2771C13.9706 13.5697 13.733 13.8073 13.4404 13.8074H1.53027C1.23762 13.8074 1.0001 13.5697 1 13.2771V1.36694C1 1.07423 1.23756 0.83667 1.53027 0.83667H13.4404ZM2.06055 12.7468H12.9102V1.89722H2.06055V12.7468Z" fill="black"/>
</svg>
