<svg width="15" height="15" viewBox="0 0 15 15" fill="none" xmlns="http://www.w3.org/2000/svg">
<path d="M5.7854 7.41113L5.89185 7.42188C6.13352 7.47117 6.31567 7.68517 6.31567 7.94141C6.31567 8.19764 6.13352 8.41164 5.89185 8.46094L5.7854 8.47168H1.95532C1.66261 8.47168 1.42505 8.23412 1.42505 7.94141C1.42505 7.6487 1.66261 7.41113 1.95532 7.41113H5.7854Z" fill="black"/>
<path d="M13.0154 7.41113L13.1218 7.42188C13.3635 7.47116 13.5457 7.68516 13.5457 7.94141C13.5457 8.19765 13.3635 8.41165 13.1218 8.46094L13.0154 8.47168H9.1853C8.89259 8.47168 8.65503 8.23412 8.65503 7.94141C8.65503 7.6487 8.89259 7.41113 9.1853 7.41113H13.0154Z" fill="black"/>
<path d="M5.25513 13.8918V1.99146C5.25513 1.69874 5.49269 1.46118 5.7854 1.46118C6.07811 1.46118 6.31567 1.69874 6.31567 1.99146V13.8918C6.31546 14.1844 6.07798 14.4211 5.7854 14.4211C5.49282 14.4211 5.25534 14.1844 5.25513 13.8918Z" fill="black"/>
<path d="M8.65503 13.8918V1.99146C8.65503 1.69874 8.89259 1.46118 9.1853 1.46118C9.47801 1.46118 9.71558 1.69874 9.71558 1.99146V13.8918C9.71536 14.1844 9.47788 14.4211 9.1853 14.4211C8.89272 14.4211 8.65524 14.1844 8.65503 13.8918Z" fill="black"/>
</svg>
