<svg width="15" height="14" viewBox="0 0 15 14" fill="none" xmlns="http://www.w3.org/2000/svg">
<path d="M7.49522 2.02509C7.84869 2.02509 8.13522 1.73853 8.13522 1.38507C8.13522 1.03161 7.84869 0.745117 7.49522 0.745117C7.14176 0.745117 6.85522 1.03161 6.85522 1.38507C6.85522 1.73853 7.14176 2.02509 7.49522 2.02509Z" fill="black"/>
<path d="M10.3053 2.77509C10.6587 2.77509 10.9453 2.48853 10.9453 2.13507C10.9453 1.78161 10.6587 1.49512 10.3053 1.49512C9.95182 1.49512 9.66528 1.78161 9.66528 2.13507C9.66528 2.48853 9.95182 2.77509 10.3053 2.77509Z" fill="black"/>
<path d="M12.3651 4.83514C12.7186 4.83514 13.0051 4.54859 13.0051 4.19513C13.0051 3.84167 12.7186 3.55518 12.3651 3.55518C12.0116 3.55518 11.7251 3.84167 11.7251 4.19513C11.7251 4.54859 12.0116 4.83514 12.3651 4.83514Z" fill="black"/>
<path d="M13.1151 7.63519C13.4686 7.63519 13.7551 7.3487 13.7551 6.99524C13.7551 6.64178 13.4686 6.35522 13.1151 6.35522C12.7616 6.35522 12.4751 6.64178 12.4751 6.99524C12.4751 7.3487 12.7616 7.63519 13.1151 7.63519Z" fill="black"/>
<path d="M12.3651 10.445C12.7186 10.445 13.0051 10.1585 13.0051 9.80505C13.0051 9.45159 12.7186 9.16504 12.3651 9.16504C12.0116 9.16504 11.7251 9.45159 11.7251 9.80505C11.7251 10.1585 12.0116 10.445 12.3651 10.445Z" fill="black"/>
<path d="M10.3053 12.5051C10.6587 12.5051 10.9453 12.2186 10.9453 11.8651C10.9453 11.5117 10.6587 11.2251 10.3053 11.2251C9.95182 11.2251 9.66528 11.5117 9.66528 11.8651C9.66528 12.2186 9.95182 12.5051 10.3053 12.5051Z" fill="black"/>
<path d="M7.49522 13.2551C7.84869 13.2551 8.13522 12.9686 8.13522 12.6151C8.13522 12.2617 7.84869 11.9751 7.49522 11.9751C7.14176 11.9751 6.85522 12.2617 6.85522 12.6151C6.85522 12.9686 7.14176 13.2551 7.49522 13.2551Z" fill="black"/>
<path d="M4.69518 12.5051C5.04864 12.5051 5.33517 12.2186 5.33517 11.8651C5.33517 11.5117 5.04864 11.2251 4.69518 11.2251C4.34171 11.2251 4.05518 11.5117 4.05518 11.8651C4.05518 12.2186 4.34171 12.5051 4.69518 12.5051Z" fill="black"/>
<path d="M2.63512 10.445C2.98858 10.445 3.27512 10.1585 3.27512 9.80505C3.27512 9.45159 2.98858 9.16504 2.63512 9.16504C2.28165 9.16504 1.99512 9.45159 1.99512 9.80505C1.99512 10.1585 2.28165 10.445 2.63512 10.445Z" fill="black"/>
<path d="M1.88512 7.63519C2.23858 7.63519 2.52512 7.3487 2.52512 6.99524C2.52512 6.64178 2.23858 6.35522 1.88512 6.35522C1.53165 6.35522 1.24512 6.64178 1.24512 6.99524C1.24512 7.3487 1.53165 7.63519 1.88512 7.63519Z" fill="black"/>
<path d="M2.63512 4.83514C2.98858 4.83514 3.27512 4.54859 3.27512 4.19513C3.27512 3.84167 2.98858 3.55518 2.63512 3.55518C2.28165 3.55518 1.99512 3.84167 1.99512 4.19513C1.99512 4.54859 2.28165 4.83514 2.63512 4.83514Z" fill="black"/>
<path d="M4.69518 2.77509C5.04864 2.77509 5.33517 2.48853 5.33517 2.13507C5.33517 1.78161 5.04864 1.49512 4.69518 1.49512C4.34171 1.49512 4.05518 1.78161 4.05518 2.13507C4.05518 2.48853 4.34171 2.77509 4.69518 2.77509Z" fill="black"/>
</svg>
