<svg width="15" height="14" viewBox="0 0 15 14" fill="none" xmlns="http://www.w3.org/2000/svg">
<path d="M12.6001 3.29468V2.44507C12.6001 2.11584 12.4954 1.90786 12.3755 1.78491C12.2525 1.65883 12.088 1.59456 11.9204 1.59448C11.7527 1.59448 11.5874 1.65868 11.4644 1.78491C11.3445 1.90787 11.2397 2.1159 11.2397 2.44507C11.2397 2.96566 11.0684 3.39602 10.7739 3.698C10.4827 3.99649 10.095 4.1442 9.71045 4.14429C9.32572 4.14429 8.93728 3.99668 8.646 3.698C8.35157 3.39602 8.18026 2.96566 8.18018 2.44507C8.18018 2.11584 8.07544 1.90786 7.95557 1.78491C7.83259 1.65882 7.66803 1.59458 7.50049 1.59448C7.33278 1.59448 7.16751 1.65868 7.04443 1.78491C6.92457 1.90786 6.81982 2.11587 6.81982 2.44507C6.81974 2.96566 6.64843 3.39602 6.354 3.698C6.06284 3.9965 5.67508 4.14418 5.29053 4.14429C4.90581 4.14429 4.51735 3.99665 4.22607 3.698C3.93165 3.39602 3.76034 2.96566 3.76025 2.44507C3.76025 2.11584 3.65552 1.90786 3.53564 1.78491C3.41268 1.65882 3.2481 1.5946 3.08057 1.59448C2.91286 1.59448 2.74759 1.65868 2.62451 1.78491C2.50464 1.90786 2.3999 2.11584 2.3999 2.44507V3.29468C2.39989 3.52939 2.20981 3.71948 1.9751 3.71948C1.74038 3.71948 1.55031 3.52939 1.55029 3.29468V2.44507C1.55029 1.92442 1.72173 1.49418 2.01611 1.19214C2.30741 0.893371 2.69577 0.744873 3.08057 0.744873C3.46521 0.744993 3.85286 0.893492 4.14404 1.19214C4.43844 1.49418 4.60986 1.9244 4.60986 2.44507C4.60995 2.77397 4.71469 2.98134 4.83447 3.10425C4.95755 3.23048 5.12282 3.29468 5.29053 3.29468C5.45809 3.29457 5.62263 3.23037 5.74561 3.10425C5.86541 2.98134 5.97013 2.77402 5.97021 2.44507C5.97021 1.92444 6.14168 1.49418 6.43604 1.19214C6.72733 0.893371 7.1157 0.744873 7.50049 0.744873C7.88515 0.744973 8.27276 0.893472 8.56396 1.19214C8.85838 1.49418 9.02979 1.92438 9.02979 2.44507C9.02987 2.77393 9.13463 2.98133 9.25439 3.10425C9.37747 3.23048 9.54274 3.29468 9.71045 3.29468C9.87803 3.29459 10.0425 3.23039 10.1655 3.10425C10.2853 2.98135 10.3901 2.77406 10.3901 2.44507C10.3901 1.92446 10.5616 1.49418 10.856 1.19214C11.1473 0.893371 11.5356 0.744873 11.9204 0.744873C12.3051 0.744953 12.6927 0.893452 12.9839 1.19214C13.2783 1.49419 13.4497 1.92436 13.4497 2.44507V3.29468C13.4497 3.52939 13.2596 3.71948 13.0249 3.71948C12.7903 3.71938 12.6001 3.52932 12.6001 3.29468Z" fill="black"/>
<path d="M10.6579 5.79112C10.8869 5.67659 11.16 5.74277 11.3122 5.93663L11.3688 6.02745L11.5319 6.37803C13.0764 9.98508 10.5217 13.255 7.49481 13.255C4.37038 13.2547 1.74944 9.77013 3.62078 6.02745L3.6784 5.93663C3.83063 5.74283 4.10368 5.67661 4.3327 5.79112C4.59412 5.92219 4.69984 6.24042 4.56903 6.50206L4.43621 6.78721C3.17448 9.72093 5.252 12.1941 7.49481 12.1944C9.73785 12.1944 11.8155 9.72124 10.5534 6.78721L10.4216 6.50206L10.3835 6.40147C10.3196 6.16345 10.429 5.90579 10.6579 5.79112Z" fill="black"/>
</svg>
