<svg width="15" height="14" viewBox="0 0 15 14" fill="none" xmlns="http://www.w3.org/2000/svg">
<path d="M13.3506 6.99951C13.3504 6.10504 12.7758 5.2254 11.7031 4.54248C10.6368 3.86372 9.14326 3.43018 7.5 3.43018C5.85679 3.4302 4.36315 3.86373 3.29688 4.54248C2.2243 5.22538 1.65055 6.10509 1.65039 6.99951C1.65039 7.89409 2.22409 8.77451 3.29688 9.45752C4.36315 10.1363 5.85679 10.5698 7.5 10.5698C9.14326 10.5698 10.6368 10.1363 11.7031 9.45752C12.776 8.77449 13.3506 7.89414 13.3506 6.99951ZM14.4102 6.99951C14.4102 8.38478 13.5244 9.55509 12.2725 10.3521C11.0138 11.1533 9.31674 11.6304 7.5 11.6304C5.6833 11.6303 3.98621 11.1533 2.72754 10.3521C1.47573 9.5551 0.589844 8.38471 0.589844 6.99951C0.590006 5.61451 1.47589 4.44483 2.72754 3.64795C3.98621 2.84673 5.6833 2.36965 7.5 2.36963C9.31674 2.36963 11.0138 2.84672 12.2725 3.64795C13.5242 4.44483 14.41 5.61445 14.4102 6.99951Z" fill="black"/>
<path d="M13.6304 6.46973L13.7368 6.48047C13.9784 6.52984 14.1597 6.74384 14.1597 7C14.1597 7.25616 13.9784 7.47016 13.7368 7.51953L13.6304 7.53027H10.0601C9.76735 7.53027 9.52979 7.29271 9.52979 7C9.52979 6.70729 9.76735 6.46973 10.0601 6.46973H13.6304Z" fill="black"/>
<path d="M4.95044 6.46973L5.05688 6.48047C5.29845 6.52985 5.47974 6.74384 5.47974 7C5.47974 7.25616 5.29845 7.47015 5.05688 7.51953L4.95044 7.53027H1.38013C1.08742 7.53027 0.849854 7.29271 0.849854 7C0.849854 6.70729 1.08742 6.46973 1.38013 6.46973H4.95044Z" fill="black"/>
</svg>
