<svg width="15" height="14" viewBox="0 0 15 14" fill="none" xmlns="http://www.w3.org/2000/svg">
<path d="M5.00028 0.675088C5.1815 0.493867 5.46152 0.471587 5.66728 0.607706L5.75028 0.675088L5.99345 0.929971C7.18082 2.23191 7.9137 3.93302 8.03446 5.69364C8.05449 5.98567 7.83332 6.23905 7.5413 6.25907C7.24938 6.27896 6.99687 6.05785 6.97685 5.76591C6.87248 4.24534 6.23741 2.77039 5.21122 1.64481L5.00028 1.42509L4.9329 1.34208C4.79678 1.13632 4.81906 0.856309 5.00028 0.675088Z" fill="black"/>
<path d="M5.7502 13.3247C5.54323 13.5317 5.20718 13.5317 5.0002 13.3247C4.79349 13.1179 4.79361 12.7827 5.0002 12.5757L5.7502 13.3247ZM7.54122 7.74173C7.83319 7.76175 8.05432 8.01422 8.03438 8.30618C7.90562 10.1841 7.08049 11.9944 5.7502 13.3247L5.3752 12.9497L5.0002 12.5757C6.1498 11.4261 6.86552 9.85593 6.97677 8.23392C6.99679 7.94196 7.24928 7.72182 7.54122 7.74173Z" fill="black"/>
<path d="M11.6025 3.94235C11.8829 3.85836 12.1786 4.01757 12.2627 4.29782C12.3467 4.57822 12.1876 4.87396 11.9072 4.95798L5.0918 6.99997L11.9072 9.04294C12.1875 9.12699 12.3466 9.4218 12.2627 9.70212C12.1787 9.98251 11.8829 10.1416 11.6025 10.0576L3.09277 7.50778C2.86863 7.44051 2.71484 7.23401 2.71484 6.99997C2.71492 6.76597 2.86863 6.55938 3.09277 6.49216L11.6025 3.94235Z" fill="black"/>
</svg>
