<svg width="15" height="14" viewBox="0 0 15 14" fill="none" xmlns="http://www.w3.org/2000/svg">
<path d="M7.49979 1.19995C9.91514 1.19995 12.0701 2.56994 13.1678 4.68237C14.2719 6.80756 14.2882 9.63841 12.5447 12.5427L12.4803 12.6287C12.3136 12.8106 12.0369 12.8563 11.8172 12.7244C11.5663 12.5737 11.4851 12.2487 11.6355 11.9978L11.7781 11.7517C13.2062 9.22007 13.1144 6.87777 12.2273 5.17065C11.305 3.39561 9.50442 2.2605 7.49979 2.2605C5.49562 2.26052 3.6948 3.39795 2.77225 5.17456C1.88516 6.88308 1.79381 9.22513 3.22147 11.7517L3.36404 11.9968L3.40994 12.0945C3.49183 12.3267 3.40256 12.5924 3.18338 12.7244C2.96402 12.8563 2.68715 12.8109 2.52029 12.6296L2.45584 12.5437L2.29764 12.2722C0.713706 9.46761 0.762251 6.74625 1.83182 4.68628C2.92924 2.57292 5.084 1.19998 7.49979 1.19995Z" fill="#231F20"/>
<path d="M10.561 2.68178C10.7507 2.5241 11.0311 2.51661 11.231 2.6769C11.4593 2.86002 11.4961 3.19366 11.313 3.42202L9.61281 5.54116C9.42969 5.76952 9.09605 5.80631 8.86769 5.62319C8.63971 5.44 8.60363 5.10629 8.78664 4.87807L10.4859 2.75796L10.561 2.68178Z" fill="#231F20"/>
<path d="M3.75783 2.67696C3.95756 2.5168 4.23811 2.52453 4.42776 2.68184L4.50295 2.75801L6.20315 4.87813C6.38626 5.10649 6.34947 5.44013 6.12111 5.62325C5.89276 5.80631 5.5591 5.76955 5.376 5.54122L3.67678 3.42208L3.61819 3.33126C3.50583 3.11212 3.55845 2.83721 3.75783 2.67696Z" fill="#231F20"/>
<path d="M11.0474 8.15136L13.2574 8.79101C13.5385 8.87241 13.7 9.16616 13.6187 9.44726C13.5373 9.7284 13.2436 9.89096 12.9625 9.80956L10.7525 9.16894L10.6529 9.1289C10.4348 9.01421 10.32 8.75864 10.3912 8.51269C10.4625 8.26668 10.6962 8.11204 10.942 8.13183L11.0474 8.15136Z" fill="#231F20"/>
<path d="M3.94241 8.15144C4.22353 8.07003 4.51719 8.23168 4.59866 8.51277C4.68007 8.7939 4.51844 9.08757 4.23733 9.16902L2.02737 9.80965C1.74623 9.89103 1.45254 9.72848 1.37112 9.44734C1.28984 9.16625 1.45137 8.8725 1.73245 8.79109L3.94241 8.15144Z" fill="#231F20"/>
</svg>
