<svg width="15" height="14" viewBox="0 0 15 14" fill="none" xmlns="http://www.w3.org/2000/svg">
<path d="M8.55005 7.00024C8.55005 6.41504 8.07077 5.93494 7.4856 5.93481C6.90031 5.93481 6.42017 6.41497 6.42017 7.00024C6.42029 7.58541 6.90039 8.0647 7.4856 8.0647C8.07069 8.06457 8.54992 7.58534 8.55005 7.00024ZM9.40063 7.00024C9.40051 8.05478 8.54014 8.91516 7.4856 8.91528C6.43096 8.91528 5.57068 8.05486 5.57056 7.00024C5.57056 5.94552 6.43088 5.08521 7.4856 5.08521C8.54022 5.08533 9.40063 5.9456 9.40063 7.00024Z" fill="#231F20"/>
<path d="M12.5901 2.96021C12.5901 2.375 12.1108 1.8949 11.5256 1.89478C10.9404 1.89478 10.4602 2.37493 10.4602 2.96021C10.4603 3.54538 10.9404 4.02466 11.5256 4.02466C12.1107 4.02453 12.59 3.5453 12.5901 2.96021ZM13.4407 2.96021C13.4405 4.01474 12.5802 4.87512 11.5256 4.87524C10.471 4.87524 9.61072 4.01482 9.6106 2.96021C9.6106 1.90548 10.4709 1.04517 11.5256 1.04517C12.5802 1.04529 13.4407 1.90556 13.4407 2.96021Z" fill="#231F20"/>
<path d="M4.51001 11.0403C4.51001 10.4551 4.03073 9.97499 3.44556 9.97485C2.86028 9.97485 2.38013 10.455 2.38013 11.0403C2.38026 11.6255 2.86036 12.1047 3.44556 12.1047C4.03065 12.1046 4.50988 11.6254 4.51001 11.0403ZM5.3606 11.0403C5.36047 12.0948 4.50009 12.9552 3.44556 12.9553C2.39091 12.9553 1.53065 12.0949 1.53052 11.0403C1.53052 9.98557 2.39083 9.12524 3.44556 9.12524C4.50016 9.12538 5.3606 9.98564 5.3606 11.0403Z" fill="#231F20"/>
<path d="M1.48043 13.7546C1.27345 13.9616 0.937406 13.9616 0.730429 13.7546C0.52377 13.5477 0.523783 13.2125 0.730429 13.0056L1.48043 13.7546ZM1.75094 11.9851C1.95786 11.7784 2.29305 11.7784 2.49996 11.9851C2.70694 12.192 2.70694 12.5281 2.49996 12.7351L1.48043 13.7546L1.10543 13.3796L0.730429 13.0056L1.75094 11.9851Z" fill="#231F20"/>
<path d="M13.2204 2.01461C13.0134 2.22159 12.6774 2.22159 12.4704 2.01461C12.2638 1.8077 12.2638 1.47251 12.4704 1.26559L13.2204 2.01461ZM13.4909 0.245077C13.6978 0.0384352 14.033 0.0384144 14.24 0.245077C14.4469 0.452054 14.4469 0.788098 14.24 0.995077L13.2204 2.01461L12.8454 1.63961L12.4704 1.26559L13.4909 0.245077Z" fill="#231F20"/>
<path d="M10.8315 4.39404L8.88135 6.354L8.12939 5.60596L10.0796 3.646L10.8315 4.39404Z" fill="#231F20"/>
<path d="M6.84033 8.39502L4.88037 10.355L4.13037 9.60498L6.09033 7.64502L6.84033 8.39502Z" fill="#231F20"/>
</svg>
