<svg width="15" height="14" viewBox="0 0 15 14" fill="none" xmlns="http://www.w3.org/2000/svg">
<path d="M7.49522 2.02997C7.84869 2.02997 8.13522 1.74342 8.13522 1.38995C8.13522 1.03649 7.84869 0.75 7.49522 0.75C7.14176 0.75 6.85522 1.03649 6.85522 1.38995C6.85522 1.74342 7.14176 2.02997 7.49522 2.02997Z" fill="#231F20"/>
<path d="M9.37512 3.90009C9.72858 3.90009 10.0151 3.61359 10.0151 3.26013C10.0151 2.90667 9.72858 2.62012 9.37512 2.62012C9.02166 2.62012 8.73511 2.90667 8.73511 3.26013C8.73511 3.61359 9.02166 3.90009 9.37512 3.90009Z" fill="#231F20"/>
<path d="M11.2452 5.76996C11.5987 5.76996 11.8852 5.48347 11.8852 5.13C11.8852 4.77654 11.5987 4.48999 11.2452 4.48999C10.8918 4.48999 10.6052 4.77654 10.6052 5.13C10.6052 5.48347 10.8918 5.76996 11.2452 5.76996Z" fill="#231F20"/>
<path d="M13.1151 7.63983C13.4686 7.63983 13.7551 7.35334 13.7551 6.99988C13.7551 6.64642 13.4686 6.35986 13.1151 6.35986C12.7616 6.35986 12.4751 6.64642 12.4751 6.99988C12.4751 7.35334 12.7616 7.63983 13.1151 7.63983Z" fill="#231F20"/>
<path d="M11.2452 9.51001C11.5987 9.51001 11.8852 9.22346 11.8852 8.87C11.8852 8.51653 11.5987 8.22998 11.2452 8.22998C10.8918 8.22998 10.6052 8.51653 10.6052 8.87C10.6052 9.22346 10.8918 9.51001 11.2452 9.51001Z" fill="#231F20"/>
<path d="M9.37512 11.3801C9.72858 11.3801 10.0151 11.0936 10.0151 10.7401C10.0151 10.3867 9.72858 10.1001 9.37512 10.1001C9.02166 10.1001 8.73511 10.3867 8.73511 10.7401C8.73511 11.0936 9.02166 11.3801 9.37512 11.3801Z" fill="#231F20"/>
<path d="M7.49522 13.25C7.84869 13.25 8.13522 12.9634 8.13522 12.61C8.13522 12.2565 7.84869 11.97 7.49522 11.97C7.14176 11.97 6.85522 12.2565 6.85522 12.61C6.85522 12.9634 7.14176 13.25 7.49522 13.25Z" fill="#231F20"/>
<path d="M5.62512 11.3801C5.97858 11.3801 6.26512 11.0936 6.26512 10.7401C6.26512 10.3867 5.97858 10.1001 5.62512 10.1001C5.27166 10.1001 4.98511 10.3867 4.98511 10.7401C4.98511 11.0936 5.27166 11.3801 5.62512 11.3801Z" fill="#231F20"/>
<path d="M3.75523 9.51001C4.1087 9.51001 4.39523 9.22346 4.39523 8.87C4.39523 8.51653 4.1087 8.22998 3.75523 8.22998C3.40177 8.22998 3.11523 8.51653 3.11523 8.87C3.11523 9.22346 3.40177 9.51001 3.75523 9.51001Z" fill="#231F20"/>
<path d="M1.88512 7.63983C2.23858 7.63983 2.52512 7.35334 2.52512 6.99988C2.52512 6.64642 2.23858 6.35986 1.88512 6.35986C1.53165 6.35986 1.24512 6.64642 1.24512 6.99988C1.24512 7.35334 1.53165 7.63983 1.88512 7.63983Z" fill="#231F20"/>
<path d="M3.75523 5.76996C4.1087 5.76996 4.39523 5.48347 4.39523 5.13C4.39523 4.77654 4.1087 4.48999 3.75523 4.48999C3.40177 4.48999 3.11523 4.77654 3.11523 5.13C3.11523 5.48347 3.40177 5.76996 3.75523 5.76996Z" fill="#231F20"/>
<path d="M5.62512 3.90009C5.97858 3.90009 6.26512 3.61359 6.26512 3.26013C6.26512 2.90667 5.97858 2.62012 5.62512 2.62012C5.27166 2.62012 4.98511 2.90667 4.98511 3.26013C4.98511 3.61359 5.27166 3.90009 5.62512 3.90009Z" fill="#231F20"/>
</svg>
