<svg width="15" height="15" viewBox="0 0 15 15" fill="none" xmlns="http://www.w3.org/2000/svg">
<path d="M13.5516 4.22665C13.7314 4.07581 14.0003 4.09857 14.1512 4.27841C14.3019 4.45813 14.2779 4.72616 14.0984 4.87704L3.92852 13.4073L3.85723 13.4561C3.68337 13.5503 3.46189 13.512 3.32989 13.3546C3.17909 13.1748 3.20186 12.9068 3.38165 12.7559L13.5516 4.22665Z" fill="black"/>
<path d="M11.0318 1.23685C11.2115 1.08597 11.4795 1.10899 11.6305 1.2886C11.7813 1.46826 11.7582 1.73626 11.5787 1.88724L1.41856 10.4175L1.34727 10.4663C1.17363 10.5603 0.951991 10.5227 0.819923 10.3658C0.668998 10.186 0.691915 9.91707 0.87168 9.76614L11.0318 1.23685Z" fill="black"/>
<path d="M4.28172 5.23681C4.43903 5.10461 4.66388 5.10605 4.81883 5.229L4.88035 5.28857L9.04051 10.2388L9.08934 10.3101C9.18331 10.4837 9.14579 10.7054 8.98875 10.8374C8.8315 10.9695 8.60658 10.968 8.45164 10.8452L8.39012 10.7856L4.22996 5.83544L4.18113 5.76415C4.08702 5.59045 4.12462 5.36891 4.28172 5.23681Z" fill="black"/>
<path d="M2.59178 6.65682C2.74911 6.52491 2.9741 6.52618 3.12889 6.649L3.19041 6.70857L7.3408 11.6588C7.4916 11.8386 7.46792 12.1066 7.28807 12.2574C7.1082 12.4082 6.84024 12.3845 6.68943 12.2047L2.54002 7.25545L2.49119 7.18416C2.39706 7.01043 2.43471 6.78888 2.59178 6.65682Z" fill="black"/>
<path d="M0.90149 8.07575C1.05882 7.94385 1.28382 7.9461 1.4386 8.06891L1.5011 8.12848L5.65051 13.0787C5.80131 13.2585 5.77762 13.5265 5.59778 13.6773C5.41791 13.8281 5.14995 13.8044 4.99915 13.6246L0.848755 8.67536L0.800904 8.60407C0.706678 8.43016 0.744028 8.20776 0.90149 8.07575Z" fill="black"/>
<path d="M5.98157 3.80573C6.1389 3.67384 6.36389 3.67608 6.51868 3.79889L6.58118 3.85846L10.7306 8.80866C10.8814 8.98852 10.8577 9.25649 10.6779 9.40729C10.498 9.55809 10.23 9.53443 10.0792 9.35456L5.92883 4.40534L5.88098 4.33405C5.78676 4.16014 5.82411 3.93774 5.98157 3.80573Z" fill="black"/>
<path d="M7.67161 2.38671C7.82892 2.25451 8.05378 2.25595 8.20872 2.3789L8.27024 2.43847L12.4304 7.38867L12.4792 7.45995C12.5732 7.63362 12.5357 7.85525 12.3786 7.9873C12.2214 8.11945 11.9965 8.11791 11.8415 7.99511L11.78 7.93554L7.61985 2.98534L7.57103 2.91406C7.47691 2.74036 7.51451 2.51881 7.67161 2.38671Z" fill="black"/>
<path d="M9.37156 0.966876C9.5289 0.834971 9.75389 0.836243 9.90867 0.959063L9.9702 1.01863L14.1206 5.96883C14.2714 6.14869 14.2477 6.41666 14.0679 6.56746C13.888 6.71826 13.62 6.6946 13.4692 6.51473L9.31981 1.56551L9.27098 1.49422C9.17685 1.32049 9.2145 1.09894 9.37156 0.966876Z" fill="black"/>
</svg>
