<svg width="15" height="14" viewBox="0 0 15 14" fill="none" xmlns="http://www.w3.org/2000/svg">
<path d="M13.4551 6.47485L13.5615 6.4856C13.8032 6.53492 13.9854 6.74892 13.9854 7.00513C13.9854 7.26134 13.8032 7.47533 13.5615 7.52466L13.4551 7.5354H1.54492C1.25221 7.5354 1.01465 7.29784 1.01465 7.00513C1.01465 6.71242 1.25221 6.47485 1.54492 6.47485H13.4551Z" fill="black"/>
<path d="M2.88477 8.44482V5.55518C2.88477 5.26246 3.12233 5.0249 3.41504 5.0249C3.70775 5.0249 3.94531 5.26246 3.94531 5.55518V8.44482C3.94531 8.73754 3.70775 8.9751 3.41504 8.9751C3.12233 8.9751 2.88477 8.73754 2.88477 8.44482Z" fill="black"/>
<path d="M5.60474 9.125V4.875C5.60474 4.58229 5.8423 4.34473 6.13501 4.34473C6.42772 4.34473 6.66528 4.58229 6.66528 4.875V9.125C6.66528 9.41771 6.42772 9.65527 6.13501 9.65527C5.8423 9.65527 5.60474 9.41771 5.60474 9.125Z" fill="black"/>
<path d="M8.33472 9.125V4.875C8.33472 4.58229 8.57228 4.34473 8.86499 4.34473C9.1577 4.34473 9.39526 4.58229 9.39526 4.875V9.125C9.39526 9.41771 9.1577 9.65527 8.86499 9.65527C8.57228 9.65527 8.33472 9.41771 8.33472 9.125Z" fill="black"/>
<path d="M11.0547 8.44482V5.55518C11.0547 5.26246 11.2923 5.0249 11.585 5.0249C11.8777 5.0249 12.1152 5.26246 12.1152 5.55518V8.44482C12.1152 8.73754 11.8777 8.9751 11.585 8.9751C11.2923 8.9751 11.0547 8.73754 11.0547 8.44482Z" fill="black"/>
</svg>
