<svg width="15" height="14" viewBox="0 0 15 14" fill="none" xmlns="http://www.w3.org/2000/svg">
<path d="M11.7394 13.193C11.7394 12.9543 11.7358 12.685 11.8126 12.4098C11.8939 12.119 12.0506 11.8598 12.2941 11.5709L12.3087 11.5534L12.3243 11.5377C13.0744 10.7877 12.8743 10.2879 12.7492 10.1627C12.6239 10.0375 12.1242 9.8375 11.3742 10.5875C10.4242 11.5375 9.22397 11.7371 8.49915 11.0123C7.77459 10.2875 7.97509 9.08816 8.92493 8.13831C9.32129 7.74195 9.49652 7.44298 9.55482 7.24769C9.60424 7.082 9.56577 7.02102 9.52943 6.98011C9.46491 6.90756 9.30266 6.80505 8.97474 6.74476C8.65715 6.68643 8.23903 6.67838 7.74329 6.7389L7.74232 6.73694C7.34261 6.79901 6.95261 6.65748 6.6388 6.48597C6.30396 6.30294 5.97207 6.04189 5.67005 5.76819C5.21549 5.35621 4.78997 4.87914 4.47571 4.49964L4.2013 4.15882L4.14368 4.068C4.03412 3.84719 4.09124 3.5722 4.2931 3.41468C4.49511 3.25727 4.77559 3.26924 4.96302 3.42933L5.03724 3.50648L5.29407 3.82679C5.58613 4.17929 5.97521 4.61424 6.38099 4.98206C6.65258 5.22821 6.91543 5.42841 7.14759 5.5553C7.39263 5.68923 7.52991 5.70095 7.58411 5.69105L7.59974 5.68812L7.61536 5.68616C8.18449 5.61672 8.71476 5.61889 9.16614 5.70179C9.60673 5.78275 10.0348 5.95289 10.3214 6.27503C10.6363 6.6291 10.7093 7.08614 10.5704 7.5514C10.4402 7.98725 10.1275 8.43381 9.67396 8.88733C8.9239 9.63739 9.12396 10.1381 9.24915 10.2633C9.3748 10.3885 9.87464 10.587 10.6242 9.83753C11.5741 8.8876 12.7743 8.68794 13.4992 9.41273C14.2169 10.1304 14.0268 11.313 13.1007 12.2584C12.9172 12.4768 12.8592 12.6015 12.8331 12.695C12.8025 12.8047 12.799 12.9217 12.799 13.193C12.7988 13.4854 12.5621 13.7221 12.2697 13.7223C11.9771 13.7223 11.7396 13.4855 11.7394 13.193Z" fill="#231F20"/>
<path d="M2.01685 1.23018C2.65953 0.587486 3.58231 0.183256 4.55884 0.296582C5.55281 0.412085 6.4988 1.05089 7.20044 2.2917C7.34451 2.5465 7.25505 2.87029 7.00024 3.01436C6.74546 3.15833 6.42163 3.06795 6.27759 2.81318C5.7043 1.79951 5.02388 1.41754 4.43677 1.34932C3.83226 1.27913 3.21902 1.528 2.76685 1.98018C2.31468 2.43235 2.0658 3.04559 2.13599 3.6501C2.20421 4.23721 2.58619 4.91763 3.59985 5.49092C3.85461 5.63496 3.94499 5.95879 3.80103 6.21357C3.65696 6.46838 3.33317 6.55784 3.07837 6.41377C1.83778 5.71225 1.19892 4.76693 1.08325 3.77314C0.969755 2.79646 1.37406 1.87296 2.01685 1.23018Z" fill="#231F20"/>
</svg>
