<svg width="15" height="15" viewBox="0 0 15 15" fill="none" xmlns="http://www.w3.org/2000/svg">
<path d="M11.9516 4.56199C10.4272 2.09567 7.19193 1.33221 4.72557 2.85648C2.25917 4.38094 1.49559 7.61617 3.02006 10.0826C4.54458 12.5488 7.77982 13.3125 10.2461 11.7881C12.7123 10.2636 13.4759 7.02827 11.9516 4.56199ZM12.8529 4.0049C14.685 6.96916 13.7673 10.8571 10.8032 12.6894C7.83894 14.5216 3.95024 13.6043 2.11793 10.6402C0.285665 7.67579 1.2036 3.78661 4.16796 1.95435C7.1323 0.12228 11.0207 1.04061 12.8529 4.0049Z" fill="black"/>
<path d="M7.47199 1.13845C7.62368 1.13845 7.76418 1.21907 7.84015 1.35036L12.8499 10.0203C12.9259 10.1518 12.9258 10.3145 12.8499 10.4461C12.7739 10.5773 12.6334 10.658 12.4818 10.658H2.46222C2.31045 10.658 2.17 10.5775 2.09406 10.4461C2.01815 10.3145 2.01807 10.1518 2.09406 10.0203L7.10382 1.35036L7.17218 1.26247C7.25076 1.18409 7.35806 1.13851 7.47199 1.13845ZM3.19855 9.80837H11.7464L7.47199 2.41286L3.19855 9.80837Z" fill="black"/>
</svg>
