<svg width="15" height="15" viewBox="0 0 15 15" fill="none" xmlns="http://www.w3.org/2000/svg">
<path d="M10.4604 7.94165C10.4604 6.2965 9.13094 4.96627 7.48584 4.96606C5.84056 4.96606 4.51025 6.29637 4.51025 7.94165C4.51046 9.58675 5.84069 10.9163 7.48584 10.9163C9.13082 10.9161 10.4602 9.58663 10.4604 7.94165ZM11.3101 7.94165C11.3099 10.0561 9.60026 11.7657 7.48584 11.7659C5.37125 11.7659 3.66085 10.0562 3.66064 7.94165C3.66064 5.82693 5.37112 4.11646 7.48584 4.11646C9.60039 4.11666 11.3101 5.82706 11.3101 7.94165Z" fill="#231F20"/>
<path d="M1.40622 14.6218C1.24025 14.7878 0.970628 14.7878 0.804655 14.6218C0.638922 14.4559 0.639095 14.1872 0.804655 14.0212L1.40622 14.6218ZM13.5654 1.26047C13.7314 1.09491 14.0001 1.09473 14.166 1.26047C14.332 1.42644 14.332 1.69606 14.166 1.86203L1.40622 14.6218L1.10544 14.321L0.804655 14.0212L13.5654 1.26047Z" fill="#231F20"/>
<path d="M9.30465 2.96042C9.44985 2.81522 9.67388 2.79785 9.83883 2.90671L9.90622 2.96042L12.456 5.51022L12.5107 5.5776C12.6194 5.74254 12.6012 5.96665 12.456 6.11178C12.3109 6.25692 12.0868 6.27516 11.9218 6.16647L11.8545 6.11178L9.30465 3.56198L9.25094 3.4946C9.14209 3.32964 9.15945 3.10562 9.30465 2.96042Z" fill="#231F20"/>
<path d="M5.6569 12.321C5.82247 12.4873 5.82122 12.7569 5.65495 12.9225C5.48872 13.0878 5.21994 13.0875 5.05436 12.9215L5.6569 12.321ZM2.50553 9.76042C2.6718 9.5948 2.94046 9.5952 3.10612 9.76139L5.6569 12.321L5.35514 12.6208L5.05436 12.9215L2.50456 10.361C2.33894 10.1947 2.33934 9.92607 2.50553 9.76042Z" fill="#231F20"/>
<path d="M5.90451 6.36032C6.04971 6.21512 6.27373 6.19775 6.43869 6.30661L6.50607 6.36032L9.05587 8.91012L9.11056 8.97751C9.21924 9.14244 9.20101 9.36656 9.05587 9.51169C8.91074 9.65682 8.68663 9.67505 8.5217 9.56637L8.45431 9.51169L5.90451 6.96188L5.8508 6.8945C5.74194 6.72954 5.75931 6.50552 5.90451 6.36032Z" fill="#231F20"/>
</svg>
