<svg width="15" height="15" viewBox="0 0 15 15" fill="none" xmlns="http://www.w3.org/2000/svg">
<path d="M13.4901 1.18618C13.6971 0.979242 14.0332 0.979319 14.2401 1.18618C14.4471 1.39316 14.4471 1.7292 14.2401 1.93618L1.48037 14.6959C1.27339 14.9029 0.937349 14.9029 0.730372 14.6959C0.523508 14.489 0.523432 14.1529 0.730372 13.9459L13.4901 1.18618Z" fill="black"/>
<path d="M8.60038 2.67631C8.7816 2.49509 9.06162 2.47281 9.26737 2.60893L9.35038 2.67631L12.7498 6.0767L12.8182 6.15971C12.9539 6.36542 12.9309 6.64463 12.7498 6.82572C12.5687 7.00681 12.2895 7.02988 12.0838 6.89408L12.0008 6.82572L8.60038 3.42631L8.533 3.3433C8.39688 3.13754 8.41916 2.85753 8.60038 2.67631Z" fill="black"/>
<path d="M2.2205 9.05619C2.40172 8.87497 2.68173 8.85269 2.88749 8.98881L2.9705 9.05619L6.36991 12.4566L6.43827 12.5396C6.57405 12.7453 6.551 13.0245 6.36991 13.2056C6.18883 13.3867 5.90961 13.4097 5.7039 13.274L5.62089 13.2056L2.2205 9.80619L2.15312 9.72318C2.017 9.51743 2.03928 9.23741 2.2205 9.05619Z" fill="black"/>
<path d="M5.41044 5.86625C5.59166 5.68503 5.87167 5.66275 6.07743 5.79887L6.16044 5.86625L9.55985 9.26664L9.62821 9.34965C9.764 9.55536 9.74094 9.83458 9.55985 10.0157C9.37876 10.1967 9.09955 10.2198 8.89384 10.084L8.81083 10.0157L5.41044 6.61625L5.34306 6.53324C5.20694 6.32749 5.22922 6.04747 5.41044 5.86625Z" fill="black"/>
</svg>
