<svg width="15" height="14" viewBox="0 0 15 14" fill="none" xmlns="http://www.w3.org/2000/svg">
<path d="M4.73508 3.59508C4.73508 3.24508 4.44508 2.95508 4.09508 2.95508C3.74508 2.95508 3.45508 3.24508 3.45508 3.59508C3.45508 3.94508 3.74508 4.23507 4.09508 4.23507C4.44508 4.23507 4.73508 3.94508 4.73508 3.59508Z" fill="#231F20"/>
<path d="M6.43527 5.29504C6.43527 4.94504 6.14527 4.65503 5.79527 4.65503C5.44527 4.65503 5.15527 4.94504 5.15527 5.29504C5.15527 5.64504 5.44527 5.93504 5.79527 5.93504C6.14527 5.93504 6.43527 5.64504 6.43527 5.29504Z" fill="#231F20"/>
<path d="M8.13522 6.99498C8.13522 6.64498 7.84522 6.35498 7.49522 6.35498C7.14522 6.35498 6.85522 6.64498 6.85522 6.99498C6.85522 7.34498 7.14522 7.63498 7.49522 7.63498C7.84522 7.63498 8.13522 7.34498 8.13522 6.99498Z" fill="#231F20"/>
<path d="M9.83517 8.70518C9.83517 8.35518 9.54518 8.06519 9.19518 8.06519C8.84518 8.06519 8.55518 8.35518 8.55518 8.70518C8.55518 9.05518 8.84518 9.34518 9.19518 9.34518C9.54518 9.34518 9.83517 9.05518 9.83517 8.70518Z" fill="#231F20"/>
<path d="M11.5351 10.4051C11.5351 10.0551 11.2451 9.76514 10.8951 9.76514C10.5451 9.76514 10.2551 10.0551 10.2551 10.4051C10.2551 10.7551 10.5451 11.0452 10.8951 11.0452C11.2451 11.0452 11.5351 10.7551 11.5351 10.4051Z" fill="#231F20"/>
<path d="M13.0599 8.41093C13.2666 8.61792 13.2668 8.95305 13.0599 9.15995C12.8529 9.36686 12.5178 9.36672 12.3108 9.15995L13.0599 8.41093ZM5.34013 1.44023C5.52135 1.259 5.80136 1.23672 6.00712 1.37284L6.09013 1.44023L13.0599 8.41093L12.6849 8.78495L12.3108 9.15995L5.34013 2.19023L5.27274 2.10722C5.13663 1.90146 5.15891 1.62145 5.34013 1.44023Z" fill="#231F20"/>
<path d="M9.65995 11.8108C9.86672 12.0178 9.86686 12.3529 9.65995 12.5599C9.45305 12.7668 9.11792 12.7666 8.91093 12.5599L9.65995 11.8108ZM1.94023 4.84013C2.12145 4.65891 2.40146 4.63663 2.60722 4.77274L2.69023 4.84013L9.65995 11.8108L9.28495 12.1849L8.91093 12.5599L1.94023 5.59013L1.87284 5.50712C1.73672 5.30136 1.759 5.02135 1.94023 4.84013Z" fill="#231F20"/>
</svg>
