<svg width="15" height="16" viewBox="0 0 15 16" fill="none" xmlns="http://www.w3.org/2000/svg">
<path d="M3.11422 2.25432C3.28016 2.08838 3.5498 2.08843 3.71578 2.25432C3.88176 2.42029 3.88176 2.68991 3.71578 2.85588L3.0361 3.53557C2.43701 4.13466 2.59567 4.53398 2.69528 4.6342C2.79486 4.73378 3.19502 4.89422 3.79489 4.29436C4.55498 3.53442 5.5153 3.37419 6.09567 3.95451C6.67603 4.53487 6.51578 5.49519 5.75582 6.2553C5.15597 6.85515 5.31638 7.25531 5.41598 7.3549C5.51607 7.4545 5.91552 7.614 6.51461 7.01506C7.27461 6.25506 8.23494 6.09421 8.81539 6.67424C9.39581 7.25465 9.23569 8.21586 8.47555 8.976C7.876 9.57572 8.03614 9.97507 8.13571 10.0746C8.23534 10.1742 8.63471 10.3343 9.23434 9.73479C9.99448 8.97465 10.9557 8.81453 11.5361 9.39494C12.116 9.9754 11.9552 10.9358 11.1953 11.6957C10.5962 12.2949 10.7558 12.6944 10.8554 12.7944C10.955 12.8939 11.3552 13.0544 11.955 12.4545L12.6347 11.7748C12.8007 11.6089 13.0693 11.6089 13.2353 11.7748C13.4013 11.9408 13.4013 12.2094 13.2353 12.3754C13.122 12.4887 13.0088 12.602 12.8955 12.7153C12.7821 12.8286 12.669 12.9427 12.5556 13.0561C11.7956 13.8159 10.8352 13.976 10.2548 13.3959C9.67444 12.8155 9.83455 11.8543 10.5947 11.0942C11.1943 10.4944 11.0341 10.0951 10.9345 9.99553C10.8348 9.89595 10.4355 9.73595 9.8359 10.3354C9.07578 11.0955 8.11554 11.2556 7.53512 10.6752C6.9547 10.0948 7.11483 9.13457 7.87496 8.37444C8.47423 7.77503 8.31439 7.37565 8.21481 7.2758C8.11524 7.17623 7.71591 7.01606 7.11617 7.61565C6.35603 8.37579 5.39483 8.53592 4.81442 7.95549C4.23428 7.37512 4.39443 6.41474 5.15426 5.65471C5.75321 5.05576 5.59469 4.65642 5.49508 4.55608C5.3955 4.4565 4.99533 4.29606 4.39547 4.89592C3.63542 5.65578 2.67505 5.81599 2.09469 5.23576C1.51434 4.65542 1.67462 3.69508 2.43453 2.93498C2.54787 2.82165 2.66104 2.70749 2.77438 2.59416C2.88766 2.48088 3.00094 2.3676 3.11422 2.25432Z" fill="black"/>
<path d="M4.47433 0.894178C4.6194 0.74911 4.8436 0.730965 5.00851 0.83949L5.07589 0.894178L7.3757 3.19398L7.43039 3.26137C7.53907 3.4263 7.52083 3.65041 7.3757 3.79554C7.23057 3.94067 7.00645 3.95892 6.84152 3.85023L6.77414 3.79554L4.47433 1.49574L4.42062 1.42836C4.31177 1.2634 4.32913 1.03938 4.47433 0.894178Z" fill="black"/>
<path d="M11.0355 6.85495C11.2014 7.02093 11.2015 7.2896 11.0355 7.45553C10.8696 7.62146 10.6009 7.62138 10.4349 7.45553L11.0355 6.85495ZM8.04432 4.46432C8.18952 4.31912 8.41355 4.30176 8.5785 4.41061L8.64589 4.46432L11.0355 6.85495L10.7348 7.15475L10.4349 7.45553L8.04432 5.06588L7.98964 4.9985C7.88111 4.83359 7.89926 4.60939 8.04432 4.46432Z" fill="black"/>
<path d="M11.7043 8.12416C11.8494 7.97909 12.0736 7.96095 12.2385 8.06947L12.3059 8.12416L14.6057 10.424L14.6604 10.4913C14.7691 10.6563 14.7508 10.8804 14.6057 11.0255C14.4605 11.1707 14.2364 11.1889 14.0715 11.0802L14.0041 11.0255L11.7043 8.72572L11.6506 8.65834C11.5417 8.49338 11.5591 8.26936 11.7043 8.12416Z" fill="black"/>
<path d="M0.394178 4.97433C0.539378 4.82913 0.763403 4.81177 0.928357 4.92062L0.99574 4.97433L3.29554 7.27511C3.46124 7.4411 3.46141 7.70981 3.29554 7.8757C3.12957 8.04167 2.85995 8.04167 2.69398 7.8757L0.394178 5.57589L0.33949 5.50851C0.230965 5.3436 0.24911 5.1194 0.394178 4.97433Z" fill="black"/>
<path d="M3.96425 8.55441C4.10945 8.40921 4.33347 8.39185 4.49843 8.5007L4.56581 8.55441L6.94569 10.9343L7.00038 11.0017C7.109 11.1666 7.09079 11.3907 6.94569 11.5359C6.80058 11.681 6.57644 11.6992 6.41151 11.5905L6.34413 11.5359L3.96425 9.15597L3.90956 9.08859C3.80103 8.92368 3.81918 8.69948 3.96425 8.55441Z" fill="black"/>
<path d="M7.62448 12.2042C7.76955 12.0592 7.99374 12.041 8.15866 12.1495L8.22604 12.2042L10.5258 14.504L10.5805 14.5714C10.6892 14.7364 10.671 14.9605 10.5258 15.1056C10.3807 15.2507 10.1566 15.269 9.99167 15.1603L9.92428 15.1056L7.62448 12.8058L7.57077 12.7384C7.46191 12.5735 7.47928 12.3494 7.62448 12.2042Z" fill="black"/>
</svg>
