<svg width="15" height="15" viewBox="0 0 15 15" fill="none" xmlns="http://www.w3.org/2000/svg">
<path d="M12.1602 11.8916L12.2676 11.9023C12.509 11.9518 12.6904 12.1658 12.6904 12.4219C12.6904 12.6779 12.509 12.8919 12.2676 12.9414L12.1602 12.9521H2.81055C2.51784 12.9521 2.28027 12.7146 2.28027 12.4219C2.28027 12.1292 2.51784 11.8916 2.81055 11.8916H12.1602Z" fill="#231F20"/>
<path d="M7.49101 1.69165C7.72643 1.69185 7.93392 1.84747 7.9998 2.07349L10.9695 12.2737L10.9891 12.3792C11.0092 12.6248 10.8549 12.8592 10.6092 12.9309C10.3631 13.0025 10.1069 12.8875 9.99199 12.6692L9.95195 12.5706L7.48906 4.1145L5.01933 12.5706C4.93727 12.8514 4.643 13.0128 4.36211 12.9309C4.08126 12.8489 3.91991 12.5545 4.00176 12.2737L6.98223 2.07349L7.01348 1.99243C7.1006 1.81112 7.28484 1.69156 7.49101 1.69165Z" fill="#231F20"/>
</svg>
