<svg width="15" height="15" viewBox="0 0 15 15" fill="none" xmlns="http://www.w3.org/2000/svg">
<path d="M9.18541 7.93633C9.18541 6.99633 8.42541 6.23633 7.48541 6.23633C6.54541 6.23633 5.7854 6.99633 5.7854 7.93633C5.7854 8.87633 6.54541 9.63632 7.48541 9.63632C8.42541 9.63632 9.18541 8.87633 9.18541 7.93633Z" fill="black"/>
<path d="M13.0155 4.11626C13.0155 3.17626 12.2555 2.41626 11.3155 2.41626C10.3755 2.41626 9.61548 3.17626 9.61548 4.11626C9.61548 5.05626 10.3755 5.81627 11.3155 5.81627C12.2555 5.81627 13.0155 5.05626 13.0155 4.11626Z" fill="black"/>
<path d="M5.35532 11.7662C5.35532 10.8262 4.59532 10.0662 3.65532 10.0662C2.71532 10.0662 1.95532 10.8262 1.95532 11.7662C1.95532 12.7062 2.71532 13.4662 3.65532 13.4662C4.59532 13.4662 5.35532 12.7062 5.35532 11.7662Z" fill="black"/>
<path d="M13.4911 1.19112C13.6981 0.984539 14.0333 0.9844 14.2401 1.19112C14.447 1.39817 14.4471 1.73422 14.2401 1.94112L1.48036 14.6911C1.27335 14.898 0.937264 14.898 0.730355 14.6911C0.523507 14.4841 0.523443 14.148 0.730355 13.9411L13.4911 1.19112Z" fill="black"/>
</svg>
