<svg width="15" height="14" viewBox="0 0 15 14" fill="none" xmlns="http://www.w3.org/2000/svg">
<path d="M13.4551 6.47485L13.5615 6.4856C13.8032 6.53492 13.9854 6.74892 13.9854 7.00513C13.9854 7.26134 13.8032 7.47533 13.5615 7.52466L13.4551 7.5354H1.54492C1.25221 7.5354 1.01465 7.29784 1.01465 7.00513C1.01465 6.71242 1.25221 6.47485 1.54492 6.47485H13.4551Z" fill="black"/>
<path d="M6.9646 12.9551V1.04492C6.9646 0.752211 7.20216 0.514648 7.49487 0.514648C7.78758 0.514648 8.02515 0.752211 8.02515 1.04492V12.9551C8.02506 13.2477 7.78753 13.4854 7.49487 13.4854C7.20221 13.4854 6.96468 13.2477 6.9646 12.9551Z" fill="black"/>
<path d="M3.66988 11.5898C3.46301 11.7967 3.12692 11.7966 2.91988 11.5898C2.71311 11.383 2.71335 11.0478 2.91988 10.8408L3.66988 11.5898ZM11.33 2.41988C11.5369 2.21315 11.872 2.21331 12.0791 2.41988C12.2862 2.62674 12.2869 2.96278 12.08 3.16988L3.66988 11.5898L3.29488 11.2148L2.91988 10.8408L11.33 2.41988Z" fill="black"/>
<path d="M2.91993 2.41987C3.10118 2.23884 3.38127 2.21644 3.58693 2.35249L3.66993 2.41987L12.0801 10.8408C12.2866 11.0479 12.2861 11.383 12.0791 11.5898C11.8721 11.7964 11.5369 11.7966 11.3301 11.5898L2.91993 3.16987L2.85255 3.08589C2.71692 2.88017 2.73893 2.60087 2.91993 2.41987Z" fill="black"/>
</svg>
