<svg width="15" height="15" viewBox="0 0 15 15" fill="none" xmlns="http://www.w3.org/2000/svg">
<path d="M12.2104 1.84557C12.2104 1.49557 11.9204 1.20557 11.5704 1.20557C11.2204 1.20557 10.9304 1.49557 10.9304 1.84557C10.9304 2.19557 11.2204 2.48557 11.5704 2.48557C11.9204 2.48557 12.2104 2.19557 12.2104 1.84557Z" fill="#231F20"/>
<path d="M10.1704 3.8856C10.1704 3.5356 9.88038 3.24561 9.53038 3.24561C9.18038 3.24561 8.89038 3.5356 8.89038 3.8856C8.89038 4.2356 9.18038 4.5256 9.53038 4.5256C9.88038 4.5256 10.1704 4.2356 10.1704 3.8856Z" fill="#231F20"/>
<path d="M8.13058 5.92564C8.13058 5.57564 7.84059 5.28564 7.49059 5.28564C7.14059 5.28564 6.85059 5.57564 6.85059 5.92564C6.85059 6.27564 7.14059 6.56564 7.49059 6.56564C7.84059 6.56564 8.13058 6.27564 8.13058 5.92564Z" fill="#231F20"/>
<path d="M6.08054 7.96568C6.08054 7.61568 5.79054 7.32568 5.44054 7.32568C5.09054 7.32568 4.80054 7.61568 4.80054 7.96568C4.80054 8.31568 5.09054 8.60568 5.44054 8.60568C5.79054 8.60568 6.08054 8.31568 6.08054 7.96568Z" fill="#231F20"/>
<path d="M4.0405 10.0157C4.0405 9.66572 3.7505 9.37573 3.4005 9.37573C3.0505 9.37573 2.7605 9.66572 2.7605 10.0157C2.7605 10.3657 3.0505 10.6557 3.4005 10.6557C3.7505 10.6557 4.0405 10.3657 4.0405 10.0157Z" fill="#231F20"/>
<path d="M2.00046 12.0555C2.00046 11.7055 1.71046 11.4155 1.36046 11.4155C1.01046 11.4155 0.720459 11.7055 0.720459 12.0555C0.720459 12.4055 1.01046 12.6955 1.36046 12.6955C1.71046 12.6955 2.00046 12.4055 2.00046 12.0555Z" fill="#231F20"/>
<path d="M14.2505 3.8856C14.2505 3.5356 13.9605 3.24561 13.6105 3.24561C13.2605 3.24561 12.9705 3.5356 12.9705 3.8856C12.9705 4.2356 13.2605 4.5256 13.6105 4.5256C13.9605 4.5256 14.2505 4.2356 14.2505 3.8856Z" fill="#231F20"/>
<path d="M12.2104 5.92564C12.2104 5.57564 11.9204 5.28564 11.5704 5.28564C11.2204 5.28564 10.9304 5.57564 10.9304 5.92564C10.9304 6.27564 11.2204 6.56564 11.5704 6.56564C11.9204 6.56564 12.2104 6.27564 12.2104 5.92564Z" fill="#231F20"/>
<path d="M10.1704 7.96568C10.1704 7.61568 9.88038 7.32568 9.53038 7.32568C9.18038 7.32568 8.89038 7.61568 8.89038 7.96568C8.89038 8.31568 9.18038 8.60568 9.53038 8.60568C9.88038 8.60568 10.1704 8.31568 10.1704 7.96568Z" fill="#231F20"/>
<path d="M8.13058 10.0157C8.13058 9.66572 7.84059 9.37573 7.49059 9.37573C7.14059 9.37573 6.85059 9.66572 6.85059 10.0157C6.85059 10.3657 7.14059 10.6557 7.49059 10.6557C7.84059 10.6557 8.13058 10.3657 8.13058 10.0157Z" fill="#231F20"/>
<path d="M6.08054 12.0555C6.08054 11.7055 5.79054 11.4155 5.44054 11.4155C5.09054 11.4155 4.80054 11.7055 4.80054 12.0555C4.80054 12.4055 5.09054 12.6955 5.44054 12.6955C5.79054 12.6955 6.08054 12.4055 6.08054 12.0555Z" fill="#231F20"/>
<path d="M4.0405 14.0956C4.0405 13.7456 3.7505 13.4556 3.4005 13.4556C3.0505 13.4556 2.7605 13.7456 2.7605 14.0956C2.7605 14.4456 3.0505 14.7356 3.4005 14.7356C3.7505 14.7356 4.0405 14.4456 4.0405 14.0956Z" fill="#231F20"/>
</svg>
