<svg width="15" height="15" viewBox="0 0 15 15" fill="none" xmlns="http://www.w3.org/2000/svg">
<path d="M11.9727 6.34702C11.4953 3.86883 9.09908 2.24711 6.62081 2.72435C4.14275 3.20176 2.52095 5.59715 2.99795 8.07529C3.47519 10.5536 5.8708 12.1761 8.34907 11.6991C10.8275 11.2218 12.45 8.82543 11.9727 6.34702ZM13.0141 6.14647C13.6021 9.19974 11.6029 12.1525 8.54962 12.7405C5.49649 13.3282 2.54448 11.329 1.95653 8.27583C1.36884 5.22283 3.36735 2.27105 6.42026 1.68293C9.4734 1.09499 12.426 3.09343 13.0141 6.14647Z" fill="#231F20"/>
<path d="M9.18966 7.21267C9.18966 6.27267 8.42967 5.51265 7.48967 5.51265C6.54967 5.51265 5.78965 6.27267 5.78965 7.21267C5.78965 8.15267 6.54967 8.91265 7.48967 8.91265C8.42967 8.91265 9.18966 8.15267 9.18966 7.21267Z" fill="#231F20"/>
</svg>
