<svg width="15" height="15" viewBox="0 0 15 15" fill="none" xmlns="http://www.w3.org/2000/svg">
<path d="M11.9858 7.17709C11.5477 4.69163 9.17762 3.03206 6.69208 3.46988C4.20675 3.90788 2.54712 6.2772 2.9847 8.7626C3.42252 11.2481 5.79206 12.9086 8.27759 12.471C10.7633 12.0331 12.4236 9.66277 11.9858 7.17709ZM13.0302 6.99311C13.5696 10.0553 11.5238 12.976 8.46157 13.5154C5.3995 14.0546 2.47961 12.0087 1.94023 8.94658C1.40109 5.88464 3.44623 2.96497 6.5081 2.42541C9.57019 1.88603 12.4907 3.93111 13.0302 6.99311Z" fill="#231F20"/>
<path d="M11.0524 4.39742L11.4274 4.77242L4.2878 11.9121L3.9128 11.5371L3.5378 11.163L10.6784 4.02242L11.0524 4.39742Z" fill="#231F20"/>
<path d="M11.4274 11.163L11.0524 11.5371L10.6784 11.9121L3.5378 4.77242L4.2878 4.02242L11.4274 11.163Z" fill="#231F20"/>
</svg>
