<svg width="15" height="15" viewBox="0 0 15 15" fill="none" xmlns="http://www.w3.org/2000/svg">
<path d="M1.85498 6.66602V2.83594C1.85498 2.54323 2.09254 2.30566 2.38525 2.30566H6.20557L6.31201 2.31641C6.55358 2.36578 6.73486 2.57977 6.73486 2.83594C6.73486 3.0921 6.55358 3.30609 6.31201 3.35547L6.20557 3.36621H2.91553V6.66602C2.91548 6.95868 2.67793 7.19629 2.38525 7.19629C2.09257 7.19629 1.85503 6.95868 1.85498 6.66602Z" fill="#231F20"/>
<path d="M1.85498 9.21606C1.85498 8.92335 2.09254 8.68579 2.38525 8.68579C2.67796 8.68579 2.91553 8.92335 2.91553 9.21606V12.5159H6.20557L6.31201 12.5266C6.55357 12.576 6.73486 12.79 6.73486 13.0461C6.73482 13.3023 6.55356 13.5163 6.31201 13.5657L6.20557 13.5764H2.38525C2.09257 13.5764 1.85503 13.3388 1.85498 13.0461V9.21606Z" fill="#231F20"/>
<path d="M12.0552 6.66602V3.36621H8.75537C8.46266 3.36621 8.2251 3.12865 8.2251 2.83594C8.2251 2.54323 8.46266 2.30566 8.75537 2.30566H12.5854C12.8781 2.30571 13.1157 2.54325 13.1157 2.83594V6.66602C13.1157 6.95866 12.8781 7.19625 12.5854 7.19629C12.2928 7.19629 12.0552 6.95868 12.0552 6.66602Z" fill="#231F20"/>
<path d="M12.0552 9.21606C12.0552 8.92335 12.2927 8.68579 12.5854 8.68579C12.8781 8.68583 13.1157 8.92338 13.1157 9.21606V13.0461C13.1157 13.3388 12.8781 13.5764 12.5854 13.5764H8.75537C8.46269 13.5764 8.22515 13.3388 8.2251 13.0461C8.2251 12.7534 8.46266 12.5159 8.75537 12.5159H12.0552V9.21606Z" fill="#231F20"/>
</svg>
