<svg width="15" height="14" viewBox="0 0 15 14" fill="none" xmlns="http://www.w3.org/2000/svg">
<path d="M3.77752 0.620418C3.98256 0.467225 4.26231 0.485101 4.44647 0.648738L4.51971 0.72784L4.76385 1.07061C7.20713 4.65928 7.12592 9.79631 4.51873 13.2728C4.34311 13.5069 4.01072 13.5548 3.77655 13.3792C3.54259 13.2035 3.49551 12.8711 3.67108 12.637C6.00418 9.52601 6.07724 4.88553 3.88885 1.66925L3.6701 1.36261L3.61541 1.27081C3.51019 1.04775 3.57233 0.773861 3.77752 0.620418Z" fill="black"/>
<path d="M10.4808 0.727764C10.656 0.493577 10.9876 0.445454 11.222 0.620343C11.4564 0.795639 11.5047 1.12811 11.3294 1.36253C8.99521 4.48395 8.92319 9.12474 11.1107 12.3313L11.3294 12.6369L11.3841 12.7287C11.4897 12.9517 11.428 13.2254 11.223 13.3791C10.9888 13.5547 10.6564 13.5069 10.4808 13.2727C7.78953 9.68397 7.79034 4.32555 10.4808 0.727764Z" fill="black"/>
</svg>
