<svg width="15" height="14" viewBox="0 0 15 14" fill="none" xmlns="http://www.w3.org/2000/svg">
<path d="M12.9448 6.46973L13.0522 6.48047C13.2937 6.52996 13.4751 6.74394 13.4751 7C13.4751 7.25606 13.2937 7.47004 13.0522 7.51953L12.9448 7.53027H2.05518C1.76246 7.53027 1.5249 7.29271 1.5249 7C1.5249 6.70729 1.76246 6.46973 2.05518 6.46973H12.9448Z" fill="black"/>
<path d="M11.5852 3.74976L11.6917 3.7605C11.9334 3.80973 12.1155 4.02374 12.1155 4.28003C12.1155 4.53632 11.9334 4.75033 11.6917 4.79956L11.5852 4.8103H3.41528C3.12257 4.8103 2.88501 4.57274 2.88501 4.28003C2.88501 3.98732 3.12257 3.74976 3.41528 3.74976H11.5852Z" fill="black"/>
<path d="M11.5852 9.1897L11.6917 9.20044C11.9334 9.24967 12.1155 9.46368 12.1155 9.71997C12.1155 9.97626 11.9334 10.1903 11.6917 10.2395L11.5852 10.2502H3.41528C3.12257 10.2502 2.88501 10.0127 2.88501 9.71997C2.88501 9.42726 3.12257 9.1897 3.41528 9.1897H11.5852Z" fill="black"/>
<path d="M10.2253 1.02979L10.3318 1.04053C10.5734 1.08986 10.7556 1.30386 10.7556 1.56006C10.7556 1.81626 10.5734 2.03025 10.3318 2.07959L10.2253 2.09033H4.77515C4.48244 2.09033 4.24487 1.85277 4.24487 1.56006C4.24487 1.26735 4.48244 1.02979 4.77515 1.02979H10.2253Z" fill="black"/>
<path d="M10.2253 11.9097L10.3318 11.9204C10.5734 11.9697 10.7556 12.1837 10.7556 12.4399C10.7556 12.6961 10.5734 12.9101 10.3318 12.9595L10.2253 12.9702H4.77515C4.48244 12.9702 4.24487 12.7327 4.24487 12.4399C4.24487 12.1472 4.48244 11.9097 4.77515 11.9097H10.2253Z" fill="black"/>
</svg>
