<svg width="15" height="14" viewBox="0 0 15 14" fill="none" xmlns="http://www.w3.org/2000/svg">
<path d="M7.50045 0.511475C8.26086 0.511537 8.86434 0.873065 9.32076 1.39819C9.76678 1.91144 10.0894 2.5969 10.3286 3.31909C10.8078 4.76616 11.0036 6.52083 11.0893 7.8064C11.1751 9.09347 11.3012 10.3479 11.6674 11.2449C11.8472 11.6851 12.0675 11.9947 12.3286 12.1833C12.5777 12.3633 12.9106 12.4675 13.393 12.4148C13.6839 12.3832 13.9452 12.5937 13.977 12.8845C14.0086 13.1752 13.7989 13.4365 13.5083 13.4685C12.8007 13.5458 12.1977 13.3961 11.7085 13.0427C11.2313 12.698 10.9099 12.1944 10.686 11.6462C10.2448 10.5657 10.1159 9.13958 10.0317 7.87671C9.9474 6.6124 9.75738 4.96736 9.32174 3.6521C9.10355 2.9934 8.83657 2.45676 8.52096 2.09351C8.21559 1.74218 7.88485 1.57208 7.50045 1.57202C7.11596 1.57202 6.78535 1.74212 6.47994 2.09351C6.16422 2.4568 5.89642 2.99321 5.67818 3.6521C5.24255 4.96734 5.0535 6.61241 4.9692 7.87671C4.88501 9.13958 4.75612 10.5657 4.3149 11.6462C4.09101 12.1945 3.76958 12.698 3.29244 13.0427C2.80315 13.3962 2.20024 13.5458 1.49263 13.4685C1.20182 13.4367 0.991348 13.1753 1.02291 12.8845C1.0547 12.5935 1.31689 12.383 1.60787 12.4148C2.09018 12.4675 2.42222 12.3633 2.67135 12.1833C2.93252 11.9947 3.15362 11.6853 3.33346 11.2449C3.69965 10.3479 3.82578 9.0934 3.91158 7.8064C3.99729 6.5208 4.19305 4.76617 4.67232 3.31909C4.91156 2.59681 5.23403 1.91146 5.68013 1.39819C6.1366 0.873019 6.73994 0.511475 7.50045 0.511475Z" fill="#231F20"/>
</svg>
