<svg width="15" height="14" viewBox="0 0 15 14" fill="none" xmlns="http://www.w3.org/2000/svg">
<path d="M10.395 7.84985V7.00024C10.395 6.67102 10.2903 6.46303 10.1704 6.34009C10.0474 6.214 9.88287 6.14976 9.71533 6.14966C9.54763 6.14966 9.38235 6.21386 9.25928 6.34009C9.13942 6.46304 9.03467 6.67104 9.03467 7.00024C9.03458 7.52084 8.86328 7.9512 8.56885 8.25317C8.27768 8.55167 7.88992 8.69935 7.50537 8.69946C7.12066 8.69946 6.7322 8.55182 6.44092 8.25317C6.14649 7.9512 5.97518 7.52084 5.9751 7.00024C5.9751 6.67102 5.87036 6.46303 5.75049 6.34009C5.62753 6.21399 5.46294 6.14978 5.29541 6.14966C5.12771 6.14966 4.96243 6.21386 4.83936 6.34009C4.71948 6.46303 4.61475 6.67102 4.61475 7.00024V7.84985C4.61473 8.08456 4.42465 8.27466 4.18994 8.27466C3.95523 8.27466 3.76515 8.08456 3.76514 7.84985V7.00024C3.76514 6.47959 3.93658 6.04936 4.23096 5.74731C4.52225 5.44855 4.91062 5.30005 5.29541 5.30005C5.68005 5.30017 6.06771 5.44867 6.35889 5.74731C6.65327 6.04936 6.82471 6.47958 6.82471 7.00024C6.82479 7.32915 6.92953 7.53651 7.04932 7.65942C7.17239 7.78566 7.33766 7.84985 7.50537 7.84985C7.67293 7.84974 7.83748 7.78555 7.96045 7.65942C8.08025 7.53652 8.18498 7.3292 8.18506 7.00024C8.18506 6.47961 8.35652 6.04936 8.65088 5.74731C8.94218 5.44855 9.33054 5.30005 9.71533 5.30005C10.1 5.30015 10.4876 5.44865 10.7788 5.74731C11.0732 6.04936 11.2446 6.47956 11.2446 7.00024V7.84985C11.2446 8.08456 11.0545 8.27466 10.8198 8.27466C10.5852 8.2746 10.395 8.08453 10.395 7.84985Z" fill="#231F20"/>
<path d="M13.3506 6.99951C13.3504 6.10505 12.7758 5.2254 11.7031 4.54248C10.6368 3.86371 9.14326 3.43018 7.5 3.43018C5.85679 3.4302 4.36315 3.86373 3.29688 4.54248C2.22431 5.22538 1.65056 6.10509 1.65039 6.99951C1.65039 7.89409 2.22409 8.77452 3.29688 9.45752C4.36315 10.1363 5.85679 10.5698 7.5 10.5698C9.14326 10.5698 10.6368 10.1363 11.7031 9.45752C12.776 8.7745 13.3506 7.89414 13.3506 6.99951ZM14.4102 6.99951C14.4102 8.38478 13.5244 9.5551 12.2725 10.3521C11.0138 11.1533 9.31674 11.6304 7.5 11.6304C5.6833 11.6303 3.98621 11.1533 2.72754 10.3521C1.47573 9.5551 0.589844 8.38471 0.589844 6.99951C0.590013 5.61452 1.47589 4.44483 2.72754 3.64795C3.98621 2.84673 5.6833 2.36965 7.5 2.36963C9.31674 2.36963 11.0138 2.84671 12.2725 3.64795C13.5242 4.44483 14.41 5.61445 14.4102 6.99951Z" fill="#231F20"/>
</svg>
