<svg width="15" height="15" viewBox="0 0 15 15" fill="none" xmlns="http://www.w3.org/2000/svg">
<path d="M12.5854 1.68677L12.6919 1.69751C12.9335 1.74684 13.1157 1.96084 13.1157 2.21704C13.1157 2.47324 12.9335 2.68724 12.6919 2.73657L12.5854 2.74731H2.38525C2.09254 2.74731 1.85498 2.50975 1.85498 2.21704C1.85498 1.92433 2.09254 1.68677 2.38525 1.68677H12.5854Z" fill="#231F20"/>
<path d="M3.55518 12.427V2.21704C3.55518 1.92433 3.79274 1.68677 4.08545 1.68677C4.37816 1.68677 4.61572 1.92433 4.61572 2.21704V12.427C4.61572 12.7197 4.37816 12.9573 4.08545 12.9573C3.79274 12.9573 3.55518 12.7197 3.55518 12.427Z" fill="#231F20"/>
<path d="M10.355 12.427V2.21704C10.355 1.92433 10.5925 1.68677 10.8853 1.68677C11.178 1.68677 11.4155 1.92433 11.4155 2.21704V12.427C11.4155 12.7197 11.178 12.9573 10.8853 12.9573C10.5925 12.9573 10.355 12.7197 10.355 12.427Z" fill="#231F20"/>
</svg>
