<svg width="15" height="14" viewBox="0 0 15 14" fill="none" xmlns="http://www.w3.org/2000/svg">
<path d="M13.138 4.49015C13.3724 4.31517 13.704 4.36343 13.8792 4.59758C14.0545 4.83199 14.0072 5.16447 13.7728 5.33976C10.2872 7.94622 5.14908 8.02754 1.56869 5.58293L1.22689 5.33879L1.14779 5.26652C0.984303 5.08208 0.967773 4.80146 1.12142 4.5966C1.27523 4.39183 1.549 4.3299 1.77181 4.43547L1.86361 4.49113L2.16927 4.70988C5.37581 6.89708 10.0167 6.82426 13.138 4.49015Z" fill="black"/>
<path d="M9.09863 6.52528C9.34946 6.47388 9.59545 6.60916 9.69238 6.83583L9.72461 6.93837L10.1445 8.97841C10.2032 9.26481 10.0188 9.54524 9.73242 9.60438C9.44572 9.66341 9.16547 9.47799 9.10645 9.1913L8.68555 7.15126L8.67481 7.04481C8.67455 6.79833 8.8478 6.57692 9.09863 6.52528Z" fill="black"/>
<path d="M5.9027 6.52536C6.18903 6.58452 6.3735 6.86493 6.31481 7.15134L5.89489 9.19138C5.83589 9.47791 5.55543 9.66317 5.26891 9.60446C4.98239 9.54547 4.79713 9.265 4.85582 8.97849L5.27672 6.93845C5.33575 6.65175 5.616 6.46633 5.9027 6.52536Z" fill="black"/>
<path d="M11.9556 5.37266C12.1887 5.2667 12.4591 5.34328 12.604 5.54258L12.6577 5.63535L13.5073 7.50547C13.6285 7.77194 13.5111 8.08649 13.2446 8.20762C12.9782 8.32874 12.6636 8.21042 12.5425 7.94395L11.6929 6.07481L11.6587 5.97227C11.604 5.73218 11.7228 5.47869 11.9556 5.37266Z" fill="black"/>
<path d="M2.34234 5.63533C2.46354 5.36901 2.77809 5.25154 3.04449 5.37263C3.31094 5.49377 3.42831 5.80832 3.30719 6.07478L2.45758 7.94392C2.33645 8.2104 2.0219 8.32872 1.75543 8.20759C1.48918 8.08636 1.37166 7.77181 1.49273 7.50545L2.34234 5.63533Z" fill="black"/>
</svg>
