<svg width="15" height="14" viewBox="0 0 15 14" fill="none" xmlns="http://www.w3.org/2000/svg">
<path d="M7.12031 1.01115C7.27174 0.859455 7.49936 0.813109 7.69745 0.894936C7.89562 0.976914 8.0246 1.17072 8.0246 1.38517V6.47501H13.1154C13.3295 6.4752 13.5227 6.60437 13.6047 6.80216C13.6867 7.0003 13.6412 7.22878 13.4894 7.38029L7.86933 12.9906C7.66228 13.1971 7.32709 13.1964 7.12031 12.9897L1.50995 7.38029C1.30317 7.1735 1.30348 6.83831 1.50995 6.63126L7.12031 1.01115ZM2.63398 7.00431L7.49433 11.8656L11.8332 7.53556H7.49531C7.20262 7.53556 6.96507 7.29797 6.96503 7.00529V2.66544L2.63398 7.00431Z" fill="black"/>
</svg>
