<svg width="15" height="14" viewBox="0 0 15 14" fill="none" xmlns="http://www.w3.org/2000/svg">
<path d="M4.5249 2.21484C4.81761 2.21484 5.05518 2.45241 5.05518 2.74512V10.7256H9.94482V2.74512C9.94482 2.45241 10.1824 2.21484 10.4751 2.21484H13.0249L13.1323 2.22559C13.3737 2.27514 13.5552 2.48911 13.5552 2.74512C13.5552 3.00112 13.3737 3.2151 13.1323 3.26465L13.0249 3.27539H11.0054V11.2549C11.0054 11.5476 10.7678 11.7852 10.4751 11.7852H4.5249C4.23228 11.785 3.99463 11.5475 3.99463 11.2549V3.27539H1.9751C1.68239 3.27539 1.44482 3.03783 1.44482 2.74512C1.44482 2.45241 1.68239 2.21484 1.9751 2.21484H4.5249Z" fill="#231F20"/>
</svg>
