<svg width="15" height="14" viewBox="0 0 15 14" fill="none" xmlns="http://www.w3.org/2000/svg">
<path d="M5.13769 1.97642C5.36675 1.86189 5.63977 1.92807 5.79199 2.12193L5.84863 2.21275L5.93652 2.40123C6.33995 3.34081 6.23885 4.24981 5.80273 4.94419C5.34731 5.66907 4.54233 6.12974 3.6748 6.12974C2.80736 6.12967 2.00323 5.66902 1.54785 4.94419C1.08253 4.2035 0.998077 3.21854 1.50098 2.21275C1.63195 1.95111 1.95018 1.84556 2.21191 1.97642C2.47367 2.10735 2.58011 2.42557 2.44922 2.68736C2.10222 3.38147 2.18818 3.97145 2.44531 4.38072C2.71238 4.80565 3.18248 5.0701 3.6748 5.07017C4.16728 5.07017 4.63818 4.80584 4.90527 4.38072C5.14631 3.99704 5.23644 3.45447 4.96094 2.81626L4.90137 2.68736L4.86328 2.58677C4.79942 2.34875 4.90884 2.09109 5.13769 1.97642Z" fill="black"/>
<path d="M12.7876 1.97642C13.0167 1.8619 13.2897 1.92807 13.4419 2.12193L13.4985 2.21275L13.5864 2.40123C13.9898 3.34081 13.8888 4.24981 13.4526 4.9442C12.9972 5.66908 12.1922 6.12974 11.3247 6.12974C10.4573 6.12967 9.65313 5.66902 9.19775 4.9442C8.73243 4.2035 8.64798 3.21855 9.15088 2.21275C9.28185 1.95111 9.60008 1.84556 9.86182 1.97642C10.1236 2.10735 10.23 2.42558 10.0991 2.68736C9.75212 3.38147 9.83809 3.97145 10.0952 4.38072C10.3623 4.80566 10.8324 5.0701 11.3247 5.07017C11.8172 5.07017 12.2881 4.80584 12.5552 4.38072C12.7962 3.99704 12.8863 3.45447 12.6108 2.81627L12.5513 2.68736L12.5132 2.58677C12.4493 2.34875 12.5587 2.09109 12.7876 1.97642Z" fill="black"/>
<path d="M8.96753 7.92637C9.19658 7.81185 9.4696 7.87802 9.62183 8.07188L9.67847 8.1627L9.76636 8.35118C10.1698 9.29076 10.0687 10.1998 9.63257 10.8941C9.17715 11.619 8.37216 12.0797 7.50464 12.0797C6.63719 12.0796 5.83306 11.619 5.37768 10.8941C4.91236 10.1535 4.82791 9.1685 5.33081 8.1627C5.46178 7.90106 5.78002 7.79551 6.04175 7.92637C6.3035 8.0573 6.40994 8.37553 6.27905 8.63731C5.93205 9.33142 6.01802 9.9214 6.27515 10.3307C6.54222 10.7556 7.01232 11.0201 7.50464 11.0201C7.99711 11.0201 8.46802 10.7558 8.73511 10.3307C8.97613 9.947 9.06627 9.40442 8.79077 8.76622L8.7312 8.63731L8.69311 8.53673C8.62925 8.2987 8.73866 8.04104 8.96753 7.92637Z" fill="black"/>
</svg>
