<svg width="15" height="14" viewBox="0 0 15 14" fill="none" xmlns="http://www.w3.org/2000/svg">
<path d="M3.89011 2.745C3.89011 2.395 3.60011 2.10498 3.25011 2.10498C2.90011 2.10498 2.61011 2.395 2.61011 2.745C2.61011 3.095 2.90011 3.38495 3.25011 3.38495C3.60011 3.38495 3.89011 3.095 3.89011 2.745Z" fill="#231F20"/>
<path d="M6.02 4.87488C6.02 4.52488 5.73 4.23486 5.38 4.23486C5.03 4.23486 4.73999 4.52488 4.73999 4.87488C4.73999 5.22488 5.03 5.51483 5.38 5.51483C5.73 5.51483 6.02 5.22488 6.02 4.87488Z" fill="#231F20"/>
<path d="M8.14011 6.995C8.14011 6.645 7.85011 6.35498 7.50011 6.35498C7.15011 6.35498 6.86011 6.645 6.86011 6.995C6.86011 7.345 7.15011 7.63495 7.50011 7.63495C7.85011 7.63495 8.14011 7.345 8.14011 6.995Z" fill="#231F20"/>
<path d="M10.27 9.12488C10.27 8.77488 9.98 8.48486 9.63 8.48486C9.28 8.48486 8.98999 8.77488 8.98999 9.12488C8.98999 9.47488 9.28 9.76483 9.63 9.76483C9.98 9.76483 10.27 9.47488 10.27 9.12488Z" fill="#231F20"/>
<path d="M12.3901 11.2549C12.3901 10.9049 12.1001 10.615 11.7501 10.615C11.4001 10.615 11.1101 10.9049 11.1101 11.2549C11.1101 11.6049 11.4001 11.895 11.7501 11.895C12.1001 11.895 12.3901 11.6049 12.3901 11.2549Z" fill="#231F20"/>
</svg>
