<svg width="15" height="15" viewBox="0 0 15 15" fill="none" xmlns="http://www.w3.org/2000/svg">
<path d="M11.3603 1.61642C11.5673 1.40944 11.9033 1.40944 12.1103 1.61642C12.3173 1.82339 12.3173 2.15944 12.1103 2.36642L3.61031 10.8664C3.40333 11.0734 3.06729 11.0734 2.86031 10.8664C2.65333 10.6594 2.65333 10.3234 2.86031 10.1164L11.3603 1.61642Z" fill="black"/>
<path d="M11.2051 5.39185V1.99146C11.2051 1.69874 11.4426 1.46118 11.7354 1.46118C12.0281 1.46118 12.2656 1.69874 12.2656 1.99146V5.39185C12.2654 5.68438 12.0279 5.92114 11.7354 5.92114C11.4428 5.92114 11.2053 5.68438 11.2051 5.39185Z" fill="black"/>
<path d="M8.375 8.22168V4.82129C8.375 4.52858 8.61256 4.29102 8.90527 4.29102C9.19798 4.29102 9.43555 4.52858 9.43555 4.82129V8.22168C9.43533 8.51421 9.19785 8.75098 8.90527 8.75098C8.61269 8.75098 8.37521 8.51421 8.375 8.22168Z" fill="black"/>
<path d="M5.53516 11.0618V7.66138C5.53516 7.36867 5.77272 7.1311 6.06543 7.1311C6.35814 7.1311 6.5957 7.36867 6.5957 7.66138V11.0618C6.5955 11.3543 6.35801 11.5911 6.06543 11.5911C5.77285 11.5911 5.53536 11.3543 5.53516 11.0618Z" fill="black"/>
<path d="M2.70508 13.8918V10.4915C2.70508 10.1987 2.94264 9.96118 3.23535 9.96118C3.52806 9.96118 3.76562 10.1987 3.76562 10.4915V13.8918C3.76542 14.1844 3.52794 14.4211 3.23535 14.4211C2.94277 14.4211 2.70528 14.1844 2.70508 13.8918Z" fill="black"/>
</svg>
