<svg width="15" height="14" viewBox="0 0 15 14" fill="none" xmlns="http://www.w3.org/2000/svg">
<path d="M3.04001 12.1002C3.04001 11.7502 2.75001 11.4602 2.40001 11.4602C2.05001 11.4602 1.76001 11.7502 1.76001 12.1002C1.76001 12.4502 2.05001 12.7402 2.40001 12.7402C2.75001 12.7402 3.04001 12.4502 3.04001 12.1002Z" fill="black"/>
<path d="M3.04001 9.55017C3.04001 9.20017 2.75001 8.91016 2.40001 8.91016C2.05001 8.91016 1.76001 9.20017 1.76001 9.55017C1.76001 9.90017 2.05001 10.1902 2.40001 10.1902C2.75001 10.1902 3.04001 9.90017 3.04001 9.55017Z" fill="black"/>
<path d="M3.04001 7.00012C3.04001 6.65012 2.75001 6.36011 2.40001 6.36011C2.05001 6.36011 1.76001 6.65012 1.76001 7.00012C1.76001 7.35012 2.05001 7.64011 2.40001 7.64011C2.75001 7.64011 3.04001 7.35012 3.04001 7.00012Z" fill="black"/>
<path d="M3.04001 4.45004C3.04001 4.10004 2.75001 3.81006 2.40001 3.81006C2.05001 3.81006 1.76001 4.10004 1.76001 4.45004C1.76001 4.80004 2.05001 5.09006 2.40001 5.09006C2.75001 5.09006 3.04001 4.80004 3.04001 4.45004Z" fill="black"/>
<path d="M3.04001 1.90002C3.04001 1.55002 2.75001 1.26001 2.40001 1.26001C2.05001 1.26001 1.76001 1.55002 1.76001 1.90002C1.76001 2.25002 2.05001 2.54001 2.40001 2.54001C2.75001 2.54001 3.04001 2.25002 3.04001 1.90002Z" fill="black"/>
<path d="M5.59006 12.1002C5.59006 11.7502 5.30006 11.4602 4.95006 11.4602C4.60006 11.4602 4.31006 11.7502 4.31006 12.1002C4.31006 12.4502 4.60006 12.7402 4.95006 12.7402C5.30006 12.7402 5.59006 12.4502 5.59006 12.1002Z" fill="black"/>
<path d="M5.59006 9.55017C5.59006 9.20017 5.30006 8.91016 4.95006 8.91016C4.60006 8.91016 4.31006 9.20017 4.31006 9.55017C4.31006 9.90017 4.60006 10.1902 4.95006 10.1902C5.30006 10.1902 5.59006 9.90017 5.59006 9.55017Z" fill="black"/>
<path d="M5.59006 7.00012C5.59006 6.65012 5.30006 6.36011 4.95006 6.36011C4.60006 6.36011 4.31006 6.65012 4.31006 7.00012C4.31006 7.35012 4.60006 7.64011 4.95006 7.64011C5.30006 7.64011 5.59006 7.35012 5.59006 7.00012Z" fill="black"/>
<path d="M5.59006 4.45004C5.59006 4.10004 5.30006 3.81006 4.95006 3.81006C4.60006 3.81006 4.31006 4.10004 4.31006 4.45004C4.31006 4.80004 4.60006 5.09006 4.95006 5.09006C5.30006 5.09006 5.59006 4.80004 5.59006 4.45004Z" fill="black"/>
<path d="M5.59006 1.90002C5.59006 1.55002 5.30006 1.26001 4.95006 1.26001C4.60006 1.26001 4.31006 1.55002 4.31006 1.90002C4.31006 2.25002 4.60006 2.54001 4.95006 2.54001C5.30006 2.54001 5.59006 2.25002 5.59006 1.90002Z" fill="black"/>
<path d="M8.14011 12.1002C8.14011 11.7502 7.85011 11.4602 7.50011 11.4602C7.15011 11.4602 6.86011 11.7502 6.86011 12.1002C6.86011 12.4502 7.15011 12.7402 7.50011 12.7402C7.85011 12.7402 8.14011 12.4502 8.14011 12.1002Z" fill="black"/>
<path d="M8.14011 9.55017C8.14011 9.20017 7.85011 8.91016 7.50011 8.91016C7.15011 8.91016 6.86011 9.20017 6.86011 9.55017C6.86011 9.90017 7.15011 10.1902 7.50011 10.1902C7.85011 10.1902 8.14011 9.90017 8.14011 9.55017Z" fill="black"/>
<path d="M8.14011 7.00012C8.14011 6.65012 7.85011 6.36011 7.50011 6.36011C7.15011 6.36011 6.86011 6.65012 6.86011 7.00012C6.86011 7.35012 7.15011 7.64011 7.50011 7.64011C7.85011 7.64011 8.14011 7.35012 8.14011 7.00012Z" fill="black"/>
<path d="M8.14011 4.45004C8.14011 4.10004 7.85011 3.81006 7.50011 3.81006C7.15011 3.81006 6.86011 4.10004 6.86011 4.45004C6.86011 4.80004 7.15011 5.09006 7.50011 5.09006C7.85011 5.09006 8.14011 4.80004 8.14011 4.45004Z" fill="black"/>
<path d="M8.14011 1.90002C8.14011 1.55002 7.85011 1.26001 7.50011 1.26001C7.15011 1.26001 6.86011 1.55002 6.86011 1.90002C6.86011 2.25002 7.15011 2.54001 7.50011 2.54001C7.85011 2.54001 8.14011 2.25002 8.14011 1.90002Z" fill="black"/>
<path d="M10.6902 12.1002C10.6902 11.7502 10.4002 11.4602 10.0502 11.4602C9.70016 11.4602 9.41016 11.7502 9.41016 12.1002C9.41016 12.4502 9.70016 12.7402 10.0502 12.7402C10.4002 12.7402 10.6902 12.4502 10.6902 12.1002Z" fill="black"/>
<path d="M10.6902 9.55017C10.6902 9.20017 10.4002 8.91016 10.0502 8.91016C9.70016 8.91016 9.41016 9.20017 9.41016 9.55017C9.41016 9.90017 9.70016 10.1902 10.0502 10.1902C10.4002 10.1902 10.6902 9.90017 10.6902 9.55017Z" fill="black"/>
<path d="M10.6902 7.00012C10.6902 6.65012 10.4002 6.36011 10.0502 6.36011C9.70016 6.36011 9.41016 6.65012 9.41016 7.00012C9.41016 7.35012 9.70016 7.64011 10.0502 7.64011C10.4002 7.64011 10.6902 7.35012 10.6902 7.00012Z" fill="black"/>
<path d="M10.6902 4.45004C10.6902 4.10004 10.4002 3.81006 10.0502 3.81006C9.70016 3.81006 9.41016 4.10004 9.41016 4.45004C9.41016 4.80004 9.70016 5.09006 10.0502 5.09006C10.4002 5.09006 10.6902 4.80004 10.6902 4.45004Z" fill="black"/>
<path d="M10.6902 1.90002C10.6902 1.55002 10.4002 1.26001 10.0502 1.26001C9.70016 1.26001 9.41016 1.55002 9.41016 1.90002C9.41016 2.25002 9.70016 2.54001 10.0502 2.54001C10.4002 2.54001 10.6902 2.25002 10.6902 1.90002Z" fill="black"/>
<path d="M13.24 12.1002C13.24 11.7502 12.95 11.4602 12.6 11.4602C12.25 11.4602 11.96 11.7502 11.96 12.1002C11.96 12.4502 12.25 12.7402 12.6 12.7402C12.95 12.7402 13.24 12.4502 13.24 12.1002Z" fill="black"/>
<path d="M13.24 9.55017C13.24 9.20017 12.95 8.91016 12.6 8.91016C12.25 8.91016 11.96 9.20017 11.96 9.55017C11.96 9.90017 12.25 10.1902 12.6 10.1902C12.95 10.1902 13.24 9.90017 13.24 9.55017Z" fill="black"/>
<path d="M13.24 7.00012C13.24 6.65012 12.95 6.36011 12.6 6.36011C12.25 6.36011 11.96 6.65012 11.96 7.00012C11.96 7.35012 12.25 7.64011 12.6 7.64011C12.95 7.64011 13.24 7.35012 13.24 7.00012Z" fill="black"/>
<path d="M13.24 4.45004C13.24 4.10004 12.95 3.81006 12.6 3.81006C12.25 3.81006 11.96 4.10004 11.96 4.45004C11.96 4.80004 12.25 5.09006 12.6 5.09006C12.95 5.09006 13.24 4.80004 13.24 4.45004Z" fill="black"/>
<path d="M13.24 1.90002C13.24 1.55002 12.95 1.26001 12.6 1.26001C12.25 1.26001 11.96 1.55002 11.96 1.90002C11.96 2.25002 12.25 2.54001 12.6 2.54001C12.95 2.54001 13.24 2.25002 13.24 1.90002Z" fill="black"/>
</svg>
