<svg width="15" height="15" viewBox="0 0 15 15" fill="none" xmlns="http://www.w3.org/2000/svg">
<path d="M1.48043 14.7199C1.27345 14.9269 0.937407 14.9269 0.730429 14.7199C0.523759 14.513 0.523794 14.1778 0.730429 13.9709L1.48043 14.7199ZM3.79098 10.9104C3.9979 10.7037 4.3331 10.7037 4.54 10.9104C4.74698 11.1173 4.74698 11.4534 4.54 11.6604L1.48043 14.7199L1.10543 14.3449L0.730429 13.9709L3.79098 10.9104Z" fill="black"/>
<path d="M6.33028 9.87984C6.1233 10.0868 5.78726 10.0868 5.58028 9.87984C5.37361 9.67294 5.37365 9.33775 5.58028 9.13082L6.33028 9.87984ZM8.64083 6.07027C8.84776 5.86364 9.18295 5.8636 9.38985 6.07027C9.59683 6.27725 9.59683 6.61329 9.38985 6.82027L6.33028 9.87984L5.95528 9.50484L5.58028 9.13082L8.64083 6.07027Z" fill="black"/>
<path d="M13.4917 1.2204C13.699 1.0138 14.0341 1.01407 14.2407 1.22138C14.4472 1.4286 14.4467 1.76375 14.2397 1.9704L11.1694 5.03095C10.9622 5.2373 10.627 5.23684 10.4204 5.02997C10.2137 4.82266 10.214 4.48661 10.4213 4.27997L13.4917 1.2204Z" fill="black"/>
</svg>
