<svg width="15" height="14" viewBox="0 0 15 14" fill="none" xmlns="http://www.w3.org/2000/svg">
<path d="M8.9105 0.585165C9.11735 0.378484 9.45254 0.378541 9.65952 0.585165C9.86663 0.79201 9.86734 1.12805 9.6605 1.33517L1.84019 9.16427C1.63334 9.37138 1.2973 9.37209 1.09019 9.16524C0.883286 8.95838 0.883412 8.62228 1.09019 8.41524L8.9105 0.585165Z" fill="black"/>
<path d="M11.1203 2.63516C11.3272 2.42829 11.6633 2.42822 11.8703 2.63516C12.0771 2.84211 12.0771 3.17821 11.8703 3.38516L3.88003 11.3754C3.67308 11.5822 3.33697 11.5822 3.13003 11.3754C2.92309 11.1685 2.92317 10.8324 3.13003 10.6254L11.1203 2.63516Z" fill="black"/>
<path d="M13.2434 4.7779C13.449 4.64202 13.7282 4.66442 13.9094 4.84528C14.1164 5.05226 14.1164 5.3883 13.9094 5.59528L6.09005 13.4146L6.00704 13.483C5.8013 13.619 5.52123 13.5958 5.34005 13.4146C5.13346 13.2077 5.13333 12.8725 5.34005 12.6656L13.1604 4.84528L13.2434 4.7779Z" fill="black"/>
<path d="M5.3401 0.58515C5.52135 0.404128 5.80145 0.381725 6.00709 0.517767L6.0901 0.58515L13.9104 8.41523L13.9778 8.49921C14.1134 8.705 14.0906 8.9843 13.9094 9.16523C13.7283 9.34607 13.449 9.36844 13.2434 9.23261L13.1604 9.16425L5.3401 1.33515L5.27272 1.25117C5.13708 1.04545 5.1591 0.766145 5.3401 0.58515Z" fill="black"/>
<path d="M3.13017 2.63529C3.31139 2.45407 3.5914 2.43179 3.79716 2.56791L3.88017 2.63529L11.8704 10.6255L11.9378 10.7085C12.0737 10.9143 12.0515 11.1944 11.8704 11.3755C11.6893 11.5567 11.4091 11.5788 11.2034 11.4429L11.1204 11.3755L3.13017 3.38529L3.06278 3.30229C2.92667 3.09653 2.94895 2.81651 3.13017 2.63529Z" fill="black"/>
<path d="M1.09013 4.84525C1.27135 4.66403 1.55136 4.64175 1.75712 4.77787L1.84013 4.84525L9.65946 12.6656L9.72782 12.7486C9.86367 12.9543 9.84057 13.2335 9.65946 13.4146C9.47835 13.5957 9.19917 13.6188 8.99345 13.4829L8.91044 13.4146L1.09013 5.59525L1.02274 5.51225C0.886627 5.30649 0.908906 5.02648 1.09013 4.84525Z" fill="black"/>
</svg>
