<svg width="15" height="14" viewBox="0 0 15 14" fill="none" xmlns="http://www.w3.org/2000/svg">
<path d="M2.69756 0.530393C2.94582 0.468676 3.1966 0.593504 3.30303 0.815549L3.34014 0.917111L3.49248 1.59094C4.20693 5.05252 4.1567 9.81636 3.34014 13.0831L3.30303 13.1847C3.19645 13.4069 2.94499 13.531 2.69658 13.4689C2.41286 13.3977 2.23988 13.1101 2.31084 12.8263L2.45732 12.1857C3.09191 9.11061 3.09207 4.89854 2.45732 1.81555L2.31084 1.17297L2.29619 1.06653C2.28594 0.8204 2.44919 0.592303 2.69756 0.530393Z" fill="#231F20"/>
<path d="M11.6456 7.00519C11.6456 5.04518 11.2232 4.3687 10.7296 4.06573C10.4544 3.89692 10.0919 3.80022 9.60169 3.74151C9.10138 3.68162 8.55818 3.66791 7.88978 3.62335C6.56433 3.53496 5.75453 3.21973 5.2765 2.68194C4.81647 2.16432 4.75549 1.50756 4.68568 1.15851C4.62851 0.871611 4.81479 0.592839 5.10169 0.535459C5.38859 0.478291 5.66736 0.664573 5.72474 0.951474C5.82483 1.45203 5.84883 1.7306 6.06849 1.97784C6.27041 2.20501 6.73596 2.48407 7.96009 2.56573C8.56639 2.60615 9.19223 2.62468 9.72767 2.68878C10.2734 2.75413 10.8148 2.87498 11.2833 3.16241C12.2771 3.77204 12.7052 4.96561 12.7052 7.00519C12.7052 9.04464 12.2771 10.2384 11.2833 10.848C10.8148 11.1353 10.2733 11.2553 9.72767 11.3206C9.19221 11.3847 8.56642 11.4032 7.96009 11.4437C6.73593 11.5253 6.27042 11.8054 6.06849 12.0325C5.84896 12.2798 5.82487 12.5583 5.72474 13.0589C5.66736 13.3458 5.38856 13.532 5.10169 13.4749C4.81467 13.4175 4.62827 13.1379 4.68568 12.8509C4.75548 12.5018 4.81645 11.845 5.2765 11.3275C5.75455 10.7898 6.56447 10.4744 7.88978 10.386C8.55816 10.3415 9.10139 10.3287 9.60169 10.2689C10.0919 10.2101 10.4544 10.1135 10.7296 9.94464C11.2233 9.64173 11.6456 8.96527 11.6456 7.00519Z" fill="#231F20"/>
</svg>
