<svg width="15" height="15" viewBox="0 0 15 15" fill="none" xmlns="http://www.w3.org/2000/svg">
<path d="M11.7354 2.31079L11.8418 2.32153C12.0835 2.37079 12.2656 2.5848 12.2656 2.84106C12.2656 3.09733 12.0835 3.31133 11.8418 3.3606L11.7354 3.37134H3.23535C2.94264 3.37134 2.70508 3.13378 2.70508 2.84106C2.70508 2.54835 2.94264 2.31079 3.23535 2.31079H11.7354Z" fill="#231F20"/>
<path d="M6.95508 13.0413V2.84106C6.95508 2.54835 7.19264 2.31079 7.48535 2.31079C7.77806 2.31079 8.01562 2.54835 8.01562 2.84106V13.0413C8.01553 13.3339 7.778 13.5715 7.48535 13.5715C7.1927 13.5715 6.95518 13.3339 6.95508 13.0413Z" fill="#231F20"/>
</svg>
