<svg width="15" height="14" viewBox="0 0 15 14" fill="none" xmlns="http://www.w3.org/2000/svg">
<path d="M5.79517 0.52002C6.08783 0.520077 6.32544 0.757618 6.32544 1.05029V12.9507C6.32523 13.2432 6.0877 13.4799 5.79517 13.48H3.67505C3.38247 13.48 3.14499 13.2432 3.14478 12.9507C3.14478 12.658 3.38234 12.4204 3.67505 12.4204H5.26489V1.58057H3.67505C3.38234 1.58057 3.14478 1.343 3.14478 1.05029C3.14478 0.757582 3.38234 0.52002 3.67505 0.52002H5.79517Z" fill="black"/>
<path d="M11.325 0.52002L11.4314 0.530762C11.6731 0.580063 11.8552 0.794062 11.8552 1.05029C11.8552 1.30652 11.6731 1.52052 11.4314 1.56982L11.325 1.58057H9.73511V12.4204H11.325L11.4314 12.4312C11.673 12.4805 11.8552 12.6945 11.8552 12.9507C11.855 13.2067 11.6729 13.4199 11.4314 13.4692L11.325 13.48H9.20483C8.91226 13.48 8.67477 13.2432 8.67456 12.9507V1.05029C8.67456 0.757582 8.91212 0.52002 9.20483 0.52002H11.325Z" fill="black"/>
</svg>
