<svg width="15" height="15" viewBox="0 0 15 15" fill="none" xmlns="http://www.w3.org/2000/svg">
<path d="M13.436 2.96704L13.5425 2.97778C13.784 3.02719 13.9653 3.24118 13.9653 3.49731C13.9653 3.75345 13.784 3.96744 13.5425 4.01685L13.436 4.02759H10.9858V6.04712C10.9858 6.33983 10.7483 6.57739 10.4556 6.57739H8.01611V8.59692C8.01611 8.88957 7.77847 9.1271 7.48584 9.1272H5.03564V11.1477C5.03543 11.4402 4.79795 11.677 4.50537 11.677H1.53564C1.24307 11.677 1.00559 11.4402 1.00537 11.1477C1.00537 10.855 1.24293 10.6174 1.53564 10.6174H3.97607V8.59692C3.97629 8.30449 4.21292 8.06778 4.50537 8.06763H6.95557V6.04712C6.95567 5.75449 7.19319 5.51685 7.48584 5.51685H9.92529V3.49731C9.92529 3.20463 10.1629 2.96709 10.4556 2.96704H13.436Z" fill="#231F20"/>
</svg>
