<svg width="15" height="15" viewBox="0 0 15 15" fill="none" xmlns="http://www.w3.org/2000/svg">
<path d="M13.0151 9.96582L13.1226 9.97656C13.364 10.026 13.5454 10.24 13.5454 10.4961C13.5454 10.7522 13.364 10.9662 13.1226 11.0156L13.0151 11.0264H1.95557C1.66286 11.0264 1.42529 10.7888 1.42529 10.4961C1.42529 10.2034 1.66286 9.96582 1.95557 9.96582H13.0151Z" fill="#231F20"/>
<path d="M13.0151 4.85571L13.1226 4.86646C13.364 4.91592 13.5454 5.1299 13.5454 5.38599C13.5454 5.64207 13.364 5.85605 13.1226 5.90552L13.0151 5.91626H1.95557C1.66286 5.91626 1.42529 5.6787 1.42529 5.38599C1.42529 5.09328 1.66286 4.85571 1.95557 4.85571H13.0151Z" fill="#231F20"/>
<path d="M9.17413 2.10833C9.34411 1.87019 9.67517 1.81453 9.91339 1.98431C10.1515 2.15429 10.2072 2.48534 10.0374 2.72356L7.91729 5.69427C7.81798 5.83327 7.65746 5.91567 7.48663 5.91595C7.31571 5.91614 7.15467 5.83408 7.05499 5.69524L4.92511 2.72454C4.75467 2.48669 4.80937 2.15583 5.04718 1.98528C5.28503 1.81485 5.61589 1.86955 5.78643 2.10735L7.4837 4.47454L9.17413 2.10833Z" fill="#231F20"/>
<path d="M5.78627 13.7754C5.61563 14.013 5.28478 14.067 5.04702 13.8965C4.80915 13.7259 4.75436 13.3951 4.92495 13.1572L5.78627 13.7754ZM7.48647 9.96582C7.65739 9.9661 7.81783 10.0494 7.91713 10.1885L10.0373 13.1582C10.2072 13.3964 10.1514 13.7274 9.91323 13.8975C9.67505 14.0673 9.34401 14.0125 9.17397 13.7744L7.48354 11.4062L5.78627 13.7754L5.35561 13.4658L4.92495 13.1572L7.05483 10.1875C7.15449 10.0485 7.31545 9.96563 7.48647 9.96582Z" fill="#231F20"/>
</svg>
