<svg width="15" height="15" viewBox="0 0 15 15" fill="none" xmlns="http://www.w3.org/2000/svg">
<path d="M13.0602 1.61638C13.2672 1.40942 13.6032 1.40948 13.8102 1.61638C14.0172 1.82335 14.0172 2.1594 13.8102 2.36638L2.97038 13.2062C2.7634 13.4132 2.42736 13.4132 2.22038 13.2062C2.01348 12.9992 2.01343 12.6632 2.22038 12.4562L13.0602 1.61638Z" fill="black"/>
<path d="M4.40552 13.8918V11.0217H1.5354C1.24269 11.0217 1.00513 10.7842 1.00513 10.4915C1.00513 10.1987 1.24269 9.96118 1.5354 9.96118H4.93579C5.22833 9.96139 5.46509 10.1989 5.46509 10.4915V13.8918C5.46487 14.1842 5.22819 14.4209 4.93579 14.4211C4.64321 14.4211 4.40573 14.1844 4.40552 13.8918Z" fill="black"/>
<path d="M7.80542 10.4917V7.62158H4.9353C4.64259 7.62158 4.40503 7.38402 4.40503 7.09131C4.40503 6.7986 4.64259 6.56104 4.9353 6.56104H8.33569C8.62822 6.56125 8.86499 6.79873 8.86499 7.09131V10.4917C8.86478 10.7841 8.62809 11.0208 8.33569 11.021C8.04311 11.021 7.80563 10.7842 7.80542 10.4917Z" fill="black"/>
<path d="M11.2056 7.0918V4.22168H8.33545C8.04274 4.22168 7.80518 3.98412 7.80518 3.69141C7.80518 3.3987 8.04274 3.16113 8.33545 3.16113H11.7358C12.0284 3.16134 12.2651 3.39882 12.2651 3.69141V7.0918C12.2649 7.38421 12.0283 7.62089 11.7358 7.62109C11.4433 7.62109 11.2058 7.38434 11.2056 7.0918Z" fill="black"/>
</svg>
