<svg width="15" height="15" viewBox="0 0 15 15" fill="none" xmlns="http://www.w3.org/2000/svg">
<path d="M6.95996 13.9253V11.3657C6.95996 11.073 7.19752 10.8354 7.49023 10.8354C7.78295 10.8354 8.02051 11.073 8.02051 11.3657V13.9253C8.02051 14.218 7.78295 14.4556 7.49023 14.4556C7.19752 14.4556 6.95996 14.218 6.95996 13.9253Z" fill="#231F20"/>
<path d="M7.49076 1.48535C7.71556 1.48551 7.91619 1.62777 7.99076 1.83984L11.1304 10.7695C11.1874 10.9317 11.1623 11.1117 11.063 11.252C10.9637 11.3922 10.8023 11.4756 10.6304 11.4756H4.34037C4.16843 11.4756 4.00711 11.3923 3.90775 11.252C3.80846 11.1116 3.78327 10.9317 3.84037 10.7695L6.99076 1.83887L7.02396 1.76367C7.11543 1.59422 7.29384 1.48525 7.49076 1.48535ZM5.08939 10.416H9.88236L7.48881 3.61035L5.08939 10.416Z" fill="#231F20"/>
</svg>
