<svg width="15" height="15" viewBox="0 0 15 15" fill="none" xmlns="http://www.w3.org/2000/svg">
<path d="M11.0188 3.05475C11.2244 2.9189 11.5036 2.94125 11.6848 3.12213C11.8918 3.32911 11.8918 3.66515 11.6848 3.87213L4.03536 11.5215L3.95235 11.5899C3.74661 11.7259 3.46653 11.7027 3.28536 11.5215C3.07874 11.3146 3.07868 10.9794 3.28536 10.7725L10.9358 3.12213L11.0188 3.05475Z" fill="#231F20"/>
<path d="M3.28544 3.12211C3.46666 2.94089 3.74667 2.91861 3.95243 3.05473L4.03544 3.12211L11.6849 10.7725L11.7532 10.8555C11.889 11.0612 11.8659 11.3404 11.6849 11.5215C11.5038 11.7026 11.2246 11.7257 11.0188 11.5899L10.9358 11.5215L3.28544 3.87211L3.21806 3.7891C3.08194 3.58334 3.10422 3.30333 3.28544 3.12211Z" fill="#231F20"/>
</svg>
