<svg width="14" height="14" viewBox="0 0 14 14" fill="none" xmlns="http://www.w3.org/2000/svg">
<path d="M7.00537 0.514648C8.44051 0.514671 9.76096 0.659759 10.7378 0.904297C11.2218 1.02549 11.6516 1.17862 11.9731 1.36914C12.2602 1.53926 12.6353 1.84567 12.6353 2.3252C12.6352 2.40829 12.6222 2.48574 12.6021 2.55859L10.9272 12.1953L10.9253 12.1943C10.8828 12.5617 10.5905 12.7837 10.4058 12.8926C10.1703 13.0313 9.8651 13.1383 9.53467 13.2207C8.86567 13.3876 7.9706 13.4853 7.00537 13.4854C6.03999 13.4854 5.14419 13.3876 4.4751 13.2207C4.14473 13.1383 3.83938 13.0313 3.604 12.8926C3.42916 12.7895 3.15342 12.5857 3.08838 12.2529C3.08291 12.2341 3.07619 12.2151 3.07275 12.1953L1.37256 2.41602L1.36475 2.30859C1.36613 2.26204 1.37616 2.21723 1.38916 2.17383C1.45725 1.78028 1.78104 1.52064 2.03662 1.36914C2.35828 1.17853 2.78869 1.02553 3.27295 0.904297C4.24982 0.659802 5.5703 0.514648 7.00537 0.514648ZM4.10205 11.9277C4.10562 11.9377 4.10884 11.9477 4.11182 11.958C4.1204 11.9637 4.12959 11.9721 4.14209 11.9795C4.25196 12.0442 4.44615 12.1211 4.73193 12.1924C5.29534 12.3329 6.10075 12.4248 7.00537 12.4248C7.90973 12.4248 8.71451 12.3329 9.27783 12.1924C9.5636 12.1211 9.7578 12.0442 9.86768 11.9795C9.87693 11.974 9.88404 11.9674 9.89111 11.9629L11.3511 3.56055C11.1606 3.62823 10.955 3.69074 10.7378 3.74512C9.76096 3.98965 8.44051 4.13474 7.00537 4.13477C5.57025 4.13477 4.24983 3.98963 3.27295 3.74512C3.0511 3.68958 2.84083 3.62606 2.64697 3.55664L4.10205 11.9277ZM4.13525 12.1055C4.13525 12.0811 4.13222 12.059 4.12842 12.04C4.13104 12.0614 4.13525 12.0834 4.13525 12.1055ZM7.00537 1.5752C5.63064 1.5752 4.40038 1.71467 3.52979 1.93262C3.09049 2.0426 2.77214 2.16538 2.57666 2.28125C2.5511 2.2964 2.53046 2.31172 2.51221 2.32422C2.53055 2.3368 2.55088 2.35287 2.57666 2.36816C2.77213 2.48403 3.09054 2.60682 3.52979 2.7168C4.40038 2.93474 5.63064 3.0752 7.00537 3.0752C8.37995 3.07517 9.60946 2.93472 10.48 2.7168C10.9194 2.6068 11.2376 2.48405 11.4331 2.36816C11.4586 2.35306 11.4784 2.33668 11.4966 2.32422C11.4785 2.31184 11.4584 2.29621 11.4331 2.28125C11.2376 2.16536 10.9194 2.04261 10.48 1.93262C9.60947 1.71471 8.37989 1.57522 7.00537 1.5752Z" fill="#231F20"/>
</svg>
