<svg width="15" height="14" viewBox="0 0 15 14" fill="none" xmlns="http://www.w3.org/2000/svg">
<path d="M12.6001 3.9751V3.12549C12.6001 2.79626 12.4954 2.58828 12.3755 2.46533C12.2525 2.33925 12.088 2.27498 11.9204 2.2749C11.7527 2.2749 11.5874 2.3391 11.4644 2.46533C11.3445 2.58829 11.2397 2.79632 11.2397 3.12549C11.2397 3.64608 11.0684 4.07644 10.7739 4.37842C10.4827 4.67691 10.095 4.82462 9.71045 4.82471C9.32572 4.82471 8.93728 4.6771 8.646 4.37842C8.35157 4.07644 8.18026 3.64608 8.18018 3.12549C8.18018 2.79626 8.07544 2.58828 7.95557 2.46533C7.83259 2.33924 7.66803 2.275 7.50049 2.2749C7.33278 2.2749 7.16751 2.3391 7.04443 2.46533C6.92457 2.58828 6.81982 2.79629 6.81982 3.12549C6.81974 3.64608 6.64843 4.07644 6.354 4.37842C6.06284 4.67692 5.67508 4.8246 5.29053 4.82471C4.90581 4.82471 4.51735 4.67707 4.22607 4.37842C3.93165 4.07644 3.76034 3.64608 3.76025 3.12549C3.76025 2.79626 3.65552 2.58828 3.53564 2.46533C3.41268 2.33924 3.2481 2.27502 3.08057 2.2749C2.91286 2.2749 2.74759 2.3391 2.62451 2.46533C2.50464 2.58828 2.3999 2.79626 2.3999 3.12549V3.9751C2.39989 4.20981 2.20981 4.3999 1.9751 4.3999C1.74038 4.3999 1.55031 4.20981 1.55029 3.9751V3.12549C1.55029 2.60484 1.72173 2.1746 2.01611 1.87256C2.30741 1.57379 2.69577 1.42529 3.08057 1.42529C3.46521 1.42541 3.85286 1.57391 4.14404 1.87256C4.43844 2.1746 4.60986 2.60482 4.60986 3.12549C4.60995 3.45439 4.71469 3.66176 4.83447 3.78467C4.95755 3.9109 5.12282 3.9751 5.29053 3.9751C5.45809 3.97499 5.62263 3.91079 5.74561 3.78467C5.86541 3.66176 5.97013 3.45444 5.97021 3.12549C5.97021 2.60486 6.14168 2.1746 6.43604 1.87256C6.72733 1.57379 7.1157 1.42529 7.50049 1.42529C7.88515 1.42539 8.27276 1.57389 8.56396 1.87256C8.85838 2.1746 9.02979 2.6048 9.02979 3.12549C9.02987 3.45435 9.13463 3.66175 9.25439 3.78467C9.37747 3.9109 9.54274 3.9751 9.71045 3.9751C9.87803 3.97501 10.0425 3.91081 10.1655 3.78467C10.2853 3.66177 10.3901 3.45448 10.3901 3.12549C10.3901 2.60488 10.5616 2.1746 10.856 1.87256C11.1473 1.57379 11.5356 1.42529 11.9204 1.42529C12.3051 1.42537 12.6927 1.57387 12.9839 1.87256C13.2783 2.17461 13.4497 2.60478 13.4497 3.12549V3.9751C13.4497 4.20981 13.2596 4.3999 13.0249 4.3999C12.7903 4.3998 12.6001 4.20974 12.6001 3.9751Z" fill="black"/>
<path d="M11.7451 6.41479C12.0378 6.41479 12.2754 6.65236 12.2754 6.94507V12.0447C12.2754 12.3374 12.0378 12.575 11.7451 12.575H3.24512C2.95241 12.575 2.71484 12.3374 2.71484 12.0447V6.94507C2.71484 6.65236 2.95241 6.41479 3.24512 6.41479H11.7451ZM3.77539 11.5154H11.2148V7.47534H3.77539V11.5154Z" fill="black"/>
</svg>
