<svg width="15" height="16" viewBox="0 0 15 16" fill="none" xmlns="http://www.w3.org/2000/svg">
<path d="M1.95397 0.896444C2.16089 0.689807 2.49608 0.689777 2.70299 0.896444C2.90997 1.10342 2.90997 1.43947 2.70299 1.64644L1.85338 2.49605C1.10332 3.24612 1.30339 3.74684 1.42858 3.87203C1.55437 3.99724 2.05425 4.19558 2.80358 3.44625C3.75349 2.49645 4.95381 2.29667 5.67858 3.02144C6.4033 3.74627 6.2027 4.94654 5.2528 5.89644C4.50354 6.6459 4.70281 7.14592 4.82799 7.27144C4.95318 7.39663 5.4539 7.5967 6.20397 6.84664C7.15387 5.89685 8.35322 5.69708 9.07799 6.42183C9.80276 7.14661 9.60298 8.34595 8.65319 9.29586C7.90312 10.0459 8.1032 10.5467 8.22838 10.6718C8.35385 10.797 8.85386 10.9963 9.60338 10.247C10.5533 9.29714 11.7536 9.09657 12.4784 9.82125C13.2032 10.546 13.0034 11.7463 12.0536 12.6962C11.3043 13.4455 11.5026 13.9454 11.6278 14.0712C11.753 14.1964 12.2537 14.3965 13.0038 13.6464L13.8534 12.7968C14.0604 12.5899 14.3964 12.5899 14.6034 12.7968C14.8101 13.0037 14.81 13.3389 14.6034 13.5459L13.7528 14.3964C12.8029 15.3461 11.6035 15.5459 10.8788 14.8212C10.154 14.0964 10.3536 12.8962 11.3036 11.9462C12.0535 11.1963 11.8536 10.6964 11.7284 10.5712C11.603 10.4461 11.1031 10.2464 10.3534 10.9961C9.40344 11.946 8.2032 12.1457 7.47838 11.4209C6.75402 10.6961 6.95366 9.49658 7.90319 8.54683C8.65325 7.79677 8.45416 7.29605 8.32897 7.17086C8.20375 7.04567 7.70302 6.84661 6.95299 7.59664C6.00323 8.54618 4.80373 8.74585 4.07897 8.02144C3.35415 7.29663 3.55384 6.09638 4.50377 5.14644C5.25349 4.39662 5.05376 3.89675 4.92858 3.77144C4.8034 3.64627 4.30355 3.44638 3.55358 4.19625C2.60364 5.14619 1.40339 5.34587 0.678578 4.62105C-0.0460073 3.89631 0.153784 2.69686 1.10338 1.74703L1.95397 0.896444Z" fill="black"/>
</svg>
