<svg width="15" height="14" viewBox="0 0 15 14" fill="none" xmlns="http://www.w3.org/2000/svg">
<path d="M12.6001 3.11987V2.27026C12.6001 1.94104 12.4954 1.73305 12.3755 1.61011C12.2525 1.48402 12.088 1.41976 11.9204 1.41968C11.7527 1.41968 11.5874 1.48387 11.4644 1.61011C11.3445 1.73306 11.2397 1.9411 11.2397 2.27026C11.2397 2.79086 11.0684 3.22122 10.7739 3.52319C10.4827 3.82169 10.095 3.96939 9.71045 3.96948C9.32572 3.96948 8.93728 3.82187 8.646 3.52319C8.35157 3.22122 8.18026 2.79086 8.18018 2.27026C8.18018 1.94104 8.07544 1.73305 7.95557 1.61011C7.83259 1.48402 7.66803 1.41978 7.50049 1.41968C7.33278 1.41968 7.16751 1.48387 7.04443 1.61011C6.92457 1.73306 6.81982 1.94106 6.81982 2.27026C6.81974 2.79086 6.64843 3.22122 6.354 3.52319C6.06284 3.82169 5.67508 3.96937 5.29053 3.96948C4.90581 3.96948 4.51735 3.82185 4.22607 3.52319C3.93165 3.22122 3.76034 2.79086 3.76025 2.27026C3.76025 1.94104 3.65552 1.73305 3.53564 1.61011C3.41268 1.48401 3.2481 1.4198 3.08057 1.41968C2.91286 1.41968 2.74759 1.48388 2.62451 1.61011C2.50464 1.73305 2.3999 1.94104 2.3999 2.27026V3.11987C2.39989 3.35458 2.20981 3.54468 1.9751 3.54468C1.74038 3.54468 1.55031 3.35458 1.55029 3.11987V2.27026C1.55029 1.74961 1.72173 1.31938 2.01611 1.01733C2.30741 0.718566 2.69577 0.570068 3.08057 0.570068C3.46521 0.570188 3.85286 0.718687 4.14404 1.01733C4.43844 1.31938 4.60986 1.7496 4.60986 2.27026C4.60995 2.59916 4.71469 2.80653 4.83447 2.92944C4.95755 3.05568 5.12282 3.11987 5.29053 3.11987C5.45809 3.11976 5.62263 3.05557 5.74561 2.92944C5.86541 2.80654 5.97013 2.59922 5.97021 2.27026C5.97021 1.74963 6.14168 1.31937 6.43604 1.01733C6.72733 0.718566 7.1157 0.570068 7.50049 0.570068C7.88515 0.570168 8.27276 0.718667 8.56396 1.01733C8.85838 1.31938 9.02979 1.74958 9.02979 2.27026C9.02987 2.59913 9.13463 2.80653 9.25439 2.92944C9.37747 3.05568 9.54274 3.11987 9.71045 3.11987C9.87803 3.11978 10.0425 3.05559 10.1655 2.92944C10.2853 2.80654 10.3901 2.59925 10.3901 2.27026C10.3901 1.74965 10.5616 1.31937 10.856 1.01733C11.1473 0.718566 11.5356 0.570068 11.9204 0.570068C12.3051 0.570149 12.6927 0.718647 12.9839 1.01733C13.2783 1.31938 13.4497 1.74955 13.4497 2.27026V3.11987C13.4497 3.35458 13.2596 3.54468 13.0249 3.54468C12.7903 3.54457 12.6001 3.35452 12.6001 3.11987Z" fill="#231F20"/>
<path d="M10.4311 5.86247C10.5623 5.60082 10.8814 5.49493 11.143 5.62614C11.4043 5.75737 11.5102 6.07559 11.3793 6.33708L7.96918 13.1379C7.87919 13.317 7.6951 13.43 7.49457 13.4299C7.29404 13.4296 7.11062 13.3163 7.02093 13.1369L3.62152 6.33708L3.58343 6.2365C3.51957 5.99847 3.62898 5.74081 3.85785 5.62614C4.0869 5.51162 4.35992 5.57779 4.51215 5.77165L4.56879 5.86247L7.49457 11.715L10.4311 5.86247Z" fill="#231F20"/>
</svg>
